<svg xmlns="http://www.w3.org/2000/svg" xmlns:xlink="http://www.w3.org/1999/xlink" viewBox="0 0 466.65 411.6">
  <defs>
    <style>
      .cls-1 {
        isolation: isolate;
      }

      .cls-2 {
        fill: #8c6239;
      }

      .cls-3 {
        fill: #754c24;
      }

      .cls-4 {
        fill: #344913;
      }

      .cls-5 {
        fill: #5b5b5b;
      }

      .cls-6 {
        fill: #939393;
      }

      .cls-7 {
        fill: #636363;
      }

      .cls-8 {
        fill: #211102;
      }

      .cls-9 {
        fill: #35170b;
      }

      .cls-10 {
        fill: #421f0d;
      }

      .cls-11 {
        fill: #2b120a;
      }

      .cls-12 {
        fill: #261006;
      }

      .cls-13 {
        fill: #2d1309;
      }

      .cls-14 {
        fill: url(#linear-gradient);
      }

      .cls-15 {
        fill: url(#linear-gradient-2);
      }

      .cls-16 {
        opacity: 0.75;
      }

      .cls-16, .cls-21 {
        mix-blend-mode: screen;
      }

      .cls-17 {
        fill: url(#linear-gradient-3);
      }

      .cls-18 {
        fill: url(#linear-gradient-4);
      }

      .cls-19 {
        fill: url(#linear-gradient-5);
      }

      .cls-20 {
        fill: url(#linear-gradient-6);
      }

      .cls-21 {
        opacity: 0.45;
      }

      .cls-22 {
        opacity: 0.35;
        mix-blend-mode: multiply;
      }

      .cls-23 {
        fill: url(#linear-gradient-7);
      }

      .cls-24 {
        fill: #ff2400;
      }

      .cls-25 {
        fill: url(#linear-gradient-8);
      }

      .cls-26 {
        fill: url(#linear-gradient-9);
      }

      .cls-27 {
        fill: url(#linear-gradient-10);
      }
    </style>
    <linearGradient id="linear-gradient" x1="239.43" y1="99.35" x2="239.38" y2="125.11" gradientUnits="userSpaceOnUse">
      <stop offset="0" stop-color="#d43500"/>
      <stop offset="1" stop-color="#2a1c00"/>
    </linearGradient>
    <linearGradient id="linear-gradient-2" x1="248.21" y1="205.76" x2="248.66" y2="168.27" gradientUnits="userSpaceOnUse">
      <stop offset="0" stop-color="#ffb815"/>
      <stop offset="1" stop-color="#d40000"/>
    </linearGradient>
    <linearGradient id="linear-gradient-3" x1="195.32" y1="269.48" x2="205.56" y2="528.71" xlink:href="#linear-gradient-2"/>
    <linearGradient id="linear-gradient-4" x1="163.26" y1="251.75" x2="167.38" y2="355.96" xlink:href="#linear-gradient-2"/>
    <linearGradient id="linear-gradient-5" x1="317.88" y1="202.99" x2="330.78" y2="529.36" xlink:href="#linear-gradient-2"/>
    <linearGradient id="linear-gradient-6" x1="74.91" y1="241.63" x2="77.15" y2="298.21" xlink:href="#linear-gradient-2"/>
    <linearGradient id="linear-gradient-7" x1="335.92" y1="135.55" x2="342.81" y2="135.55" gradientTransform="matrix(1.11, 0.56, -0.35, 0.72, -47.48, -111.42)" gradientUnits="userSpaceOnUse">
      <stop offset="0" stop-color="#d40005"/>
      <stop offset="0.28" stop-color="#e6560c"/>
      <stop offset="0.52" stop-color="#f39911"/>
      <stop offset="0.69" stop-color="#fcc214"/>
      <stop offset="0.78" stop-color="#ffd215"/>
    </linearGradient>
    <linearGradient id="linear-gradient-8" x1="305.64" y1="129.41" x2="318.07" y2="129.41" gradientTransform="matrix(1.11, 0.56, -0.35, 0.72, -47.48, -111.42)" gradientUnits="userSpaceOnUse">
      <stop offset="0" stop-color="#d40005"/>
      <stop offset="0.36" stop-color="#e6560c"/>
      <stop offset="0.67" stop-color="#f39911"/>
      <stop offset="0.89" stop-color="#fcc214"/>
      <stop offset="1" stop-color="#ffd215"/>
    </linearGradient>
    <linearGradient id="linear-gradient-9" x1="301.97" y1="178.49" x2="345.66" y2="90.81" gradientTransform="matrix(1.1, 0.48, -0.35, 0.75, -46.23, -95.34)" xlink:href="#linear-gradient-2"/>
    <linearGradient id="linear-gradient-10" x1="275.24" y1="144.87" x2="287.51" y2="144.87" xlink:href="#linear-gradient-8"/>
  </defs>
  <title>0</title>
  <g class="cls-1">
    <g id="Layer_1" data-name="Layer 1">
      <polygon class="cls-2" points="48.93 244.06 48.93 272.19 237.84 379.81 238.98 352.72 48.93 244.06"/>
      <polygon class="cls-3" points="427.88 266.74 430.73 242.03 238.58 353.2 237.84 379.81 427.88 266.74"/>
      <polygon class="cls-4" points="48.45 244.54 238.79 128.95 430.73 242.03 238.6 353.2 48.45 244.54"/>
      <path class="cls-5" d="M216.91,195.42c.26.45-.15.73-.58,1-1,.69-.17,1.7.37,2.16,2.37,2,6.58,3.18,10.51,5.52,6.22,3.69,12.37,8.92,16,10.66,7.81,3.67,19.54,3.86,21.08,2.19s-4.22-2.38-4.22-2.38a39.14,39.14,0,0,1,7.64,1.77c3.59,1.29,4-2.82,3.69-4.46s-4.08-3.75-4.08-3.75c4.06,1.57,12.16,2.5,18.05.74s-3.8-7.58.26-6-1.41-.8,5.44.16,3.87-2.53,4.94-4.47-2.68-3-3.62-4.58,4.49-1.46,4.49-1.46c3.71-3.36-3.47-5.95-1.15-6.82s-2.52-3.23-2.52-3.23c5.89-2.85-1.14-5.73-.68-6.56s-2.82-2.68-2.82-2.68,7.94,1.21,4.62-5S282,161.63,283,160s-2.2-2.7-2.2-2.7,4.94-3.38.55-7.67-10.6-2-10.6-2c-3-1.31-6.68-.14-6.68-.14a8.76,8.76,0,0,0-4.74-7c-4.69-2.65-5.58,1.2-7-2.88s-5.65-5.36-9.85-5.55-.3,1.65-3.25,1.43-1.85,2.23-4.36.09-3.9-1.84-8.09-.94-.59,3.3-.57,5.49-1.54,1.67-4.65,1.73-1.51,5-1.51,5a7.76,7.76,0,0,0-7.8-2.59c-2.18.59,3.15,4.32,1.43,4.08a2.45,2.45,0,0,0-2.47,1.14s-4.87-4.55-10.45-2.25,4.45,9.76,4.45,9.76-8.45-5.85-11.2.22,18,13.06,13.8,11.77-5.13.37-6.05,2,5.15,1.82,2.7,6.25,12.18,4.68,9.86,6.64,1.6,4.9,4.58,7.3,5.15,1.62,3.26,2.47c-1.68.77-2.51.8-3.67.06a7.28,7.28,0,0,0-3.51-1.16C213.41,190.44,215.63,193.16,216.91,195.42Z" transform="translate(-8.35 -91.4)"/>
      <path class="cls-6" d="M217,198.67a4.22,4.22,0,0,0,3.46,4.49,41.46,41.46,0,0,1,6.78,1.67c3.47,1.9,2.49,3.47,7.69,7s1.92,2.78,5.24,4.34c7.81,3.68,19.54,3.87,21.08,2.2S257,216,257,216a38.72,38.72,0,0,1,7.64,1.76c3.58,1.3,4-2.81,3.69-4.45s-4.08-3.75-4.08-3.75c4.06,1.56,12.15,2.5,18.05.74s-3.81-7.59.25-6-1.4-.79,5.45.17,3.86-2.54,4.93-4.48-2.67-3-3.62-4.58,4.5-1.45,4.5-1.45c3.7-3.36-3.47-6-1.15-6.82s-2.52-3.24-2.52-3.24c5.89-2.85-1.14-5.72-.68-6.55s-2.82-2.68-2.82-2.68,7.94,1.21,4.62-5-12.35-6.6-11.43-8.26-2.21-2.69-2.21-2.69,4.95-3.38.56-7.67-10.6-2-10.6-2c-3-1.31-6.69-.15-6.69-.15a8.75,8.75,0,0,0-4.73-7c-4.69-2.64-5.59,1.21-7-2.87s-5.65-5.36-9.85-5.55S239,135,236,134.83s-1.85,2.22-4.36.08-3.9-1.83-8.09-.93-.6,3.29-.58,5.48-1.54,1.68-4.65,1.74-1.51,5-1.51,5a7.77,7.77,0,0,0-7.8-2.58c-2.17.59,3.15,4.32,1.44,4.08a2.47,2.47,0,0,0-2.48,1.14s-4.86-4.56-10.44-2.26S202,156.3,202,156.3s-8.46-5.86-11.2.22,18,13,13.79,11.77-5.12.37-6,2,5.15,1.81,2.7,6.24,12.17,4.69,9.86,6.65,1.6,4.89,4.58,7.3,5,3.68,3.12,4.53c-1.69.77.46,2.15-.7,2.1C217.43,197.11,217.07,197.77,217,198.67Z" transform="translate(-8.35 -91.4)"/>
      <path class="cls-7" d="M223,199.24s5.21,2.35,5.59,3.49c.7,2.1,3.32,3.11,7,5.59,4.5,3.05,4.52-.59,7.32.73,6.06,2.85,15.16,3,16.35,1.7S256,208.9,256,208.9a30,30,0,0,1,5.92,1.37c2.79,1,3.12-2.18,2.87-3.45s-3.17-2.91-3.17-2.91a25.3,25.3,0,0,0,14,.57c4.58-1.36-2.95-5.89.2-4.67s-1.09-.62,4.23.13,3-2,3.83-3.48-2.08-2.29-2.81-3.55,3.49-1.13,3.49-1.13c2.87-2.61-2.7-4.62-.9-5.29s-2-2.51-2-2.51c4.56-2.21-.89-4.44-.53-5.09s-2.19-2.08-2.19-2.08,6.16.94,3.58-3.89-9.58-5.12-8.86-6.41-1.71-2.08-1.71-2.08,3.84-2.63.43-6-8.22-1.53-8.22-1.53a8.44,8.44,0,0,0-5.19-.11,6.78,6.78,0,0,0-3.67-5.45c-3.64-2-4.34.93-5.45-2.23s-4.38-4.16-7.64-4.31-.23,1.28-2.53,1.11-1.43,1.73-3.38.07-3-1.43-6.28-.73-.46,2.56-.44,4.26-1.19,1.3-3.61,1.34-1.17,3.85-1.17,3.85a6,6,0,0,0-6-2c-1.69.46,2.44,3.35,1.11,3.17a1.91,1.91,0,0,0-1.92.88s-3.77-3.53-8.1-1.75,3.45,7.58,3.45,7.58-6.56-4.54-8.69.17,14,10.13,10.71,9.13-4,.29-4.7,1.58,4,1.41,2.1,4.84,9.45,3.64,7.65,5.16-.4,3.4,1.91,5.26,0,2.06-.7,3.5,4.89,2.09,4.19,3.49C225.21,197,222.24,197.42,223,199.24Z" transform="translate(-8.35 -91.4)"/>
      <path class="cls-5" d="M362.62,238.3c2.63-3,8.07-4.16,19,.55,0,0,10.53-9.24,27.78,4.29,0,0,14-10.8,26,12.68,0,0,22.5,11.19,18.9,23.41,0,0,20.81,5.88,20.71,16.54s-12.3,13.06-20.94,7.82l-75.51-38.38a19.43,19.43,0,0,1-4.41-3.09l-6.42-5.92C361.44,250.41,359,242.33,362.62,238.3Z" transform="translate(-8.35 -91.4)"/>
      <path class="cls-6" d="M358.81,240.48c2.63-3,8.07-4.17,19,.54,0,0,10.52-9.24,27.77,4.29,0,0,14-10.79,26,12.69,0,0,22.5,11.19,18.9,23.41,0,0,20.81,5.88,20.71,16.54s-12.3,13.06-20.94,7.81l-75.51-38.37a20,20,0,0,1-4.41-3.09l-6.41-5.92C357.63,252.59,355.23,244.5,358.81,240.48Z" transform="translate(-8.35 -91.4)"/>
      <path class="cls-5" d="M12.84,144.35c2.16-2.43,6.62-3.41,15.61.45,0,0,8.63-7.58,22.78,3.52,0,0,11.5-8.85,21.29,10.4,0,0,18.45,9.18,15.5,19.2,0,0,17.06,4.82,17,13.56s-10.08,10.71-17.17,6.41L25.91,166.42a16,16,0,0,1-3.62-2.53L17,159C11.88,154.28,9.91,147.65,12.84,144.35Z" transform="translate(-8.35 -91.4)"/>
      <path class="cls-6" d="M9.72,146.14c2.15-2.43,6.62-3.42,15.61.44,0,0,8.63-7.57,22.78,3.52,0,0,11.49-8.85,21.29,10.4,0,0,18.44,9.18,15.5,19.2,0,0,17.06,4.83,17,13.56S91.79,204,84.7,199.68L22.78,168.21a16.48,16.48,0,0,1-3.62-2.54l-5.25-4.85C8.76,156.07,6.78,149.44,9.72,146.14Z" transform="translate(-8.35 -91.4)"/>
      <path class="cls-5" d="M365.2,169.11c1.57-1.76,4.8-2.47,11.32.33,0,0,6.25-5.49,16.51,2.55,0,0,8.33-6.42,15.43,7.54,0,0,13.37,6.65,11.23,13.91,0,0,12.37,3.5,12.31,9.83s-7.31,7.77-12.45,4.65l-44.88-22.81a11.74,11.74,0,0,1-2.62-1.84l-3.81-3.51C364.5,176.31,363.08,171.51,365.2,169.11Z" transform="translate(-8.35 -91.4)"/>
      <path class="cls-6" d="M362.94,170.41c1.56-1.76,4.8-2.48,11.31.32,0,0,6.26-5.49,16.51,2.55,0,0,8.33-6.41,15.43,7.54,0,0,13.38,6.66,11.24,13.92,0,0,12.37,3.49,12.31,9.83s-7.31,7.76-12.45,4.64l-44.88-22.8a11.84,11.84,0,0,1-2.62-1.84L366,181.05C362.24,177.61,360.81,172.8,362.94,170.41Z" transform="translate(-8.35 -91.4)"/>
      <polygon class="cls-8" points="140.15 189.31 134.45 196.92 128.02 199.43 111.65 213.07 118.3 234.93 143.95 231.12 151.56 240.63 166.76 240.63 179.11 258.68 200.02 275.78 247.53 261.53 261.78 253.93 291.24 267.23 319.75 258.68 334.95 261.53 363.45 251.08 334.95 230.17 140.15 189.31"/>
      <polygon id="Volcano" class="cls-9" points="116.4 213.07 129.7 203.57 137.3 200.72 140.15 189.31 152.51 182.66 167.71 172.21 178.16 153.21 197.17 146.55 201.92 131.35 216.17 128.5 220.92 114.25 230.42 112.35 233.28 110.44 238.03 111.4 242.57 110.66 244.68 112.35 252.28 118.05 257.98 131.35 267.48 134.2 277.94 144.65 288.39 153.21 291.24 172.21 301.69 172.21 308.34 187.41 314.99 199.77 338.75 220.67 344.45 240.63 353.95 246.33 334 251.08 318.8 248.23 291.24 258.68 262.73 246.33 246.58 253.93 230.42 258.68 203.82 267.23 184.81 253.93 172.46 235.88 156.31 234.93 146.81 223.52 122.1 226.37 116.4 213.07"/>
      <polygon class="cls-10" points="230.42 119.95 235.18 119.95 222.82 135.15 218.07 146.55 208.57 157.96 208.57 178.86 193.37 198.82 182.91 224.47 172.46 235.88 156.31 235.88 174.36 218.77 175.31 207.37 188.61 192.16 188.61 180.76 197.17 173.16 203.74 154.48 213.32 144.65 212.37 135.15 221.87 127.55 226.62 113.3 230.42 119.95"/>
      <polygon class="cls-10" points="209.36 148.72 200.02 150.35 194.32 156.06 185.76 157.96 179.11 173.16 170.56 174.11 162.96 181.71 140.15 189.31 137.3 200.72 161.06 186.46 167.71 182.66 173.41 183.61 177.21 177.91 189.56 173.16 189.56 169.36 200.02 160.81 209.36 148.72"/>
      <polygon class="cls-10" points="181.96 175.06 180.06 180.76 175.31 185.51 173.41 191.21 167.71 193.12 164.86 200.72 159.16 202.62 156.31 207.37 146.81 212.12 145.85 224.47 156.31 235.88 156.31 221.62 168.66 216.87 173.41 203.57 188.61 192.16 186.71 181.71 185.76 178.86 198.12 173.16 189.56 173.16 181.96 175.06"/>
      <polygon class="cls-10" points="173.41 183.61 171.51 188.36 165.81 191.21 162.01 199.77 156.31 200.72 153.46 205.47 145.85 224.47 121.15 228.27 116.4 213.07 126.85 210.22 129.7 203.57 137.3 204.52 145.85 196.92 152.51 194.06 156.31 191.21 165.81 188.36 173.41 183.61"/>
      <polygon class="cls-10" points="180.06 156.06 167.71 172.21 171.51 171.26 175.31 169.36 177.99 170.48 178.16 167.46 181.96 162.71 184.81 155.11 197.17 151.31 181.96 153.21 180.06 156.06"/>
      <polygon class="cls-10" points="217.12 130.4 203.82 133.25 200.02 146.55 205.72 136.1 217.12 130.4"/>
      <polygon class="cls-10" points="230.42 113.3 221.87 115.2 219.02 123.75 220.92 123.75 217.12 128.5 223.77 122.8 221.87 121.85 222.82 117.1 230.42 113.3"/>
      <polygon class="cls-10" points="193.37 198.82 200.02 210.22 195.27 221.62 198.12 235.88 195.27 250.13 203.82 267.23 184.81 253.93 177.12 242.68 185.76 230.17 187.66 220.67 193.37 198.82"/>
      <polygon class="cls-11" points="238.91 256.18 242.78 238.72 237.08 224.47 239.93 200.72 237.08 189.31 230.42 161.76 238.03 148.45 235.18 135.15 235.18 119.95 240.88 122.8 244.68 119 244.68 135.15 251.33 139.9 253.23 154.16 257.03 161.76 264.63 181.71 264.63 194.06 274.13 209.27 270.33 222.57 291.24 258.68 262.73 246.33 246.58 253.93 238.91 256.18"/>
      <polygon class="cls-12" points="246.58 119 251.33 123.75 258.93 138 265.58 140.85 267.48 144.65 267.48 150.35 271.28 154.16 274.13 168.41 286.49 180.76 293.14 198.82 308.34 220.67 319.75 248.23 303.59 232.07 305.49 227.32 299.62 223.45 293.14 209.27 285.54 200.72 275.08 191.21 272.61 177.12 264.63 164.61 264.63 157.96 258.93 150.35 258.93 142.75 254.18 139.9 246.58 119"/>
      <polygon class="cls-13" points="319.75 248.23 311.19 234.93 306.44 233.02 307.39 227.32 300.74 221.62 295.04 208.32 277.94 191.21 275.08 176.01 266.53 163.66 266.53 157.96 260.83 150.35 260.83 142.75 255.13 138.95 246.58 119 254.18 139.9 258.93 142.75 258.93 150.35 264.63 159.86 264.63 164.61 272.63 177.26 275.08 191.21 293.14 209.27 299.79 223.52 305.49 227.32 303.59 232.07 319.75 248.23"/>
      <polygon class="cls-14" points="238.03 111.4 242.52 110.69 252.28 118.05 251.33 119 246.58 119 245.63 119.95 244.68 119 240.88 122.8 235.18 119.95 230.42 119.95 226.52 113.13 230.42 112.35 233.28 110.44 238.03 111.4"/>
      <path class="cls-15" d="M236.14,206.75s13.23-4.09,24.09,3.1l-.55.55h-4.75l-1,.95-.95-.95-3.8,3.8-5.7-2.85h-4.76Z" transform="translate(-8.35 -91.4)"/>
      <g>
        <image class="cls-16" width="117" height="314" transform="translate(131.65 97.6)" xlink:href="01.png"/>
        <path class="cls-17" d="M243.53,195.2s3.8,9.5,2.85,13.3-8.56,8.55-7.61,10.45,2.86,3.8,2.86,5.7-2.86,4.75-2.86,6.65,1.91,3.81,1,4.76-3.81,1.9-4.76,3.8-4.75.95-5.7,2.85,0,5.7.95,7.6-3.8,1.9-4.75,4.75,3.8,7.6,3.8,10.45-12.35,7.6-14.25,12.36,2.85,15.2,4.75,17.1-2.85,8.55-6.65,9.5-4.75,9.5,1.9,14.26-8.55,21.85-8.55,28.5-8.55,7.6-7.6,12.35-48.47,27.56-48.47,27.56-3.8.95-3.8,1.9V492.62l6.65,3.8,1.91-103.58,10.45-4.75,40.86-22.8s-.95-5.71.95-7.61,3.8-3.8,3.8-5.7-1.9-6.65.95-8.55a12.88,12.88,0,0,0,5.7-10.45c0-4.75,4.75-13.3.95-17.11s-3.8-6.65,0-10.45,5.7-9.5,3.8-12.35-5.7-9.5-3.8-14.25,15.2-9.51,14.25-12.36-7.6-9.5-3.8-12.35,3.8-5.7,2.85-7.6,5.7-4.75,5.7-5.7,4.76-2.85,4.76-4.75-1.9-5.71-1-6.66,2.85-4.75,1.9-6.65-2.85-3.8-1.9-4.75,7.6-6.65,7.6-8.55,1-7.6,1-7.6a2.94,2.94,0,0,0-1-1.9C248.28,199,243.53,195.2,243.53,195.2Z" transform="translate(-8.35 -91.4)"/>
      </g>
      <g>
        <image class="cls-16" width="179" height="139" transform="translate(65.65 97.6)" xlink:href="02.png"/>
        <path class="cls-18" d="M243.53,195.2h-.95l-2.85,8.55s-5.71,3.8-6.66,5.7,0,3.8-1.9,5.7a10,10,0,0,0-2.85,3.8c-.95,1.9-6.65,2.85-7.6,5.7s-2.85,6.65-2.85,9.51-8.55,4.75-9.5,5.7-5.7,8.55-4.75,15.2-7.61,4.75-8.56,8.55-7.6,2.85-9.5,5.7-6.65.95-9.5,4.75-6.65,6.66-10.45,6.66-9.5,4.75-9.5,5.7-5.71.95-12.36,5.7-2.85,7.6-8.55,9.5-13.3,9.5-13.3,9.5l-31,4.12-10,6,42.92-6.32s5.7-8.55,10.45-8.55,6.65-3.8,7.6-5.7,1.9-5.7,5.7-6.65,9.51-3.8,10.46-5.7,6.65-5.7,9.5-4.75,8.55-5.7,9.5-7.6,6.65-2.86,9.5-3.81,11.41-4.75,11.41-7.6,10.45-2.85,9.5-6.65,0-15.2,2.85-16.15,7.6-2.85,8.55-4.75,4.75-5.71,4.75-7.61-.95-4.75,1.9-6.65,8.55-7.6,8.55-8.55,1.9-6.65,3.8-6.65,4.76-1.9,5.71-3.8a7.09,7.09,0,0,1,2.85-2.85Z" transform="translate(-8.35 -91.4)"/>
      </g>
      <g>
        <image class="cls-16" width="156" height="268" transform="translate(234.65 102.6)" xlink:href="03.png"/>
        <path class="cls-19" d="M249.23,200.9l.86.44a47.17,47.17,0,0,1,4.84,3.36c.95,1,.95,1.9,1.9,2.85s2.85.95,2.85,2.85,0,1.9.95,2.85a7.2,7.2,0,0,1,1.9,3.8c0,.95,1.9,1.9,1.9,2.85s-.95,2.85.95,3.8,2.85,2.85,3.8,3.8,6.65-.95,7.6.95,0,6.66,1,6.66,4.76,1.9,4.76,2.85,0,3.8,1.9,4.75.95,3.8,1.9,4.75a2.89,2.89,0,0,1,0,3.8c-1,1,.95,2.85,2.85,2.85s3.8,1.9,2.85,3.8,5.7,4.75,6.65,6.65-.95,4.75.95,5.7,5.7,2.85,5.7,3.8-1,2.86,0,3.81,0,.95,2.85,2.85,1.9,4.75,2.85,6.65,4.75,2.85,5.7,5.7,7.61,1.9,8.56,5.7,5.7,1,6.65,4.75-.95,3.8-.95,5.7,4.75,2.85,5.7,5.7-.95,7.61,1,9.51,14.25,13.3,18,14.25a.93.93,0,0,1,1,.95v8.55l36.11,12.36v92.17L388,455.56V363.39l-36.11-13.31v-9.5a.93.93,0,0,0-1-.95c-.95,0-17.1-14.25-16.15-18.05s1.9-7.61,0-7.61-6.65-2.85-5.7-5.7,1.9-5.7,0-5.7a7.26,7.26,0,0,1-4.75-1.9c-1-.95,0-3.8-1.91-3.8s-6.65,0-6.65-1.9-3.8-3.8-5.7-4.75,0-5.7-1-6.65-3.8-1.9-4.75-3.8,0-.95-.95-3.8-5.7-2.86-5.7-5.71.95-4.75,0-5.7-8.55-4.75-7.6-6.65-4.75-1.9-4.75-4.75,1-2.85,0-4.75,0-2.85-.95-3.8-3.81-2.85-3.81-4.75,0-2.85-2.85-3.8-1-4.76-1.9-5.71-6.65,0-7.6-1.9-4.75-4.75-4.75-5.7.95-1.9,0-2.85-1.9-1.9-1.9-2.85-.95-1.9-1.9-2.85,0-2.85-.95-3.8-2.85-1.9-2.85-2.85-1.9-2.85-1.9-2.85l-2.85-1.9-1.9-1Z" transform="translate(-8.35 -91.4)"/>
      </g>
      <g>
        <image class="cls-16" width="21" height="78" transform="translate(67.65 280.6)" xlink:href="04.png"/>
        <polygon class="cls-20" points="74.53 286.84 81.53 290.84 82.19 347.05 74.59 351.8 74.53 286.84"/>
      </g>
      <g id="Tephra">
        <image class="cls-21" width="195" height="157" transform="translate(131.05)" xlink:href="05.png"/>
        <g>
          <image class="cls-22" width="126" height="87" transform="translate(165.46 35.4)" xlink:href="06.png"/>
          <g>
            <path class="cls-23" d="M283.11,176.75c-1.1-.18-1.54.71-2,.47s-2.88-1.46-3.17-.86c-.14.28-.41.25-.64.14a1.28,1.28,0,0,0,1.12.1c.77-.35,1.58.43,1.58.43s1,.48.82.78-1-.48-1.11-.19.82.78.67,1.08-.77.35-.92.65.19.83.19.83-.33-.53.29-.59a5,5,0,0,0,1.4-.41l.29-.59c.15-.3.63-.05,1.25-.11s.63,0,.77-.35,1.44.73,1.59.43.63-.06.77-.35-.81-.78.1-1.43a1.18,1.18,0,0,0-.91.65C284.89,178,284.22,176.94,283.11,176.75Z" transform="translate(-8.35 -91.4)"/>
            <path class="cls-24" d="M277.28,176.5a2.4,2.4,0,0,1-.47-.33A2.12,2.12,0,0,0,277.28,176.5Z" transform="translate(-8.35 -91.4)"/>
            <path class="cls-25" d="M247.55,155.13a15.91,15.91,0,0,0,2,1.89l1.51.61c.75.3.63.8,1.27,1.59s.64.8,1.39,1.1-.35,1.5.41,1.8.64.8,1.39,1.1,1-.7,3.13.7a5.58,5.58,0,0,0-2.14-1.4c-1.51-.6.23-1-.29-2.29s-2.79-2.2-2.67-2.7.7-3-.81-3.6c-.73-.29-.87-.6-.83-.84-.09.31,0,.77.71,1.34,1.4,1.1.41,1.8.41,1.8s-.23,1-1,.7.24-1-.52-1.3-1,.7-1.74.4-1.39-1.1-2.14-1.4a3.17,3.17,0,0,0-1.62-.11A1.59,1.59,0,0,1,247.55,155.13Z" transform="translate(-8.35 -91.4)"/>
            <path class="cls-24" d="M246.05,154.52h0Z" transform="translate(-8.35 -91.4)"/>
            <path class="cls-24" d="M252.25,152.64a.81.81,0,0,0-.31.45A.88.88,0,0,1,252.25,152.64Z" transform="translate(-8.35 -91.4)"/>
            <path class="cls-24" d="M288.87,186.1c.07-.08-.06-.07-.28,0C288.73,186.14,288.83,186.15,288.87,186.1Z" transform="translate(-8.35 -91.4)"/>
            <path class="cls-24" d="M212.74,160.79a2.59,2.59,0,0,0-.87,0C211.39,160.81,211.85,160.79,212.74,160.79Z" transform="translate(-8.35 -91.4)"/>
            <path class="cls-26" d="M292.19,196.06c-.45-.28-.2,1.05-1.1.49s-1.12-.32-1.12-.32-.44.51-1.34-.06a3.5,3.5,0,0,0-1.58-.59,8.85,8.85,0,0,1-1.57-.6,1.56,1.56,0,0,0-1.56.19c-.22.26-.67,0-1.57-.59s-1.12-.32-1.56.19-1.8-1.13-2.71-1.7-2.23.16-2.91-.66-.7-1.62.62-2.36.84-2.62,1.06-2.88,1.57.6,2,.09,2,.88,2.46.37,2.24.63,2.68.12,2.69.91,2.9-.15c.14-.74,1.16-1.31,1.69-1.49-.59-.14-1.83-.8-2.18-.38s-1.57-.6-2.69-.92a2.15,2.15,0,0,0-2,.71s-.65.77-1.32.74-1.35-.85-2-.88-.44.51-1.11.48-1.35-.85-2-.88-.89.23-.66.77-.89.23-1.56.2-.67,0-1.1.48-1.79-.34-2-.88-.46-1.09,0-1.6,2.46.37,2.9-.14,0-1.59.4-2.1.91.56,2,.88a2.13,2.13,0,0,0,2-.71s-2-.09-2.24-.63-1.79-.34-2.24-.63-1.56.2-2.92-.65-4.64,2.19-4.43,1.13,2.21-1,2.63-2.27-1.16-1.91-.95-3-.91-1.37-.94-2.15c4.73,1.26,7.79-.14,8.37-1.32s3.47.26,5.78-.79,1.65-2.14,2.09-3,2.35.08,3.42-.86a2.88,2.88,0,0,0,1-2.08c6.11-.25,3.19-2.84,3.19-2.84s.23,2-2.46,1.35-4.19,1.22-3.86,1.76-2.17.76-3.9.63-2.27,2.19-2.27,2.19a2.36,2.36,0,0,1-2.94,1.1c-2.07-.67-2.84-.32-3.61,0a2.57,2.57,0,0,1-2.51.22c-1.58-.43-3.38,1.69-3.38,1.69h0a2.22,2.22,0,0,0-1.87.47c-.87,1-4.7-1-4.93-1.54s3.11-.4,3.55-.91-.47-1.08-.27-2.13,2-2.31,2-2.31-4.67.6-4,1.42-.41,2.11-1.29,2.34-2.47-.38-2.9.14-2.9.14-3.55.9,1.37,1.66.71,2.42-1.33-.05-2.46-.37a2.55,2.55,0,0,0-2.22.17c-.22.26-.88,1-2.67.68s-2.61,3.08-3.08,2,.19-1.85-.28-2.94-2-1.68-2.51-2.76,2.43-1.22,2.18-2.56-2.27-2.22-2.74-3.3c-.31-.72,1.54-1.46,2.82-1.88l.55,0c5.48-.2,2.73-6.78,1.29-7.5s-1.34-2.16-.61-3.64-3-3.72-4.88-4.69-.71-2.21-.32-4.23-4.69-3.85-6.65-5.95.45-4.59.45-4.59a17,17,0,0,0-3.08,1.41c-.92.64-.17,4,1.6,5.25s4.7,3.85,3.78,4.5,2.05,4.37,2.86,5.15,2.73,1.75,3.26,3.12-1.88.17-1.17,2.38,5.36,4.93,2.09,5.5c-2.79.48-3.67,3.27-3.87,4.09a1.28,1.28,0,0,0-.14.21c-.86,1.82-6,.54-6.45,1s.28,2.94,1.18,3.5-.42,1.31-1.74,2.05-.83,3.42-1.51,2.59-.5-2.67-1.84-2.73-2.51-2.76-3-3-2.93-1.45-3.86-3.62c-.65-1.49-4.77-1.61-6.75-1.61a9,9,0,0,1,4.08,2.3c1.14,1.11,1.17,2.7,3.65,3.87s2.09,4.07,2.09,4.07-2.46-.37-2.95-2.25-7-2.42-8.35-4.87-7.19-3-10.77-3.65-.88,1-9.86-2.28-14,1-14,1c5.07-2.71,10.71.46,13.84.86s5.69,5.55,11,3.39,11.65,2.63,13.69,4.31.06,3.18.53,4.27,3.16,2,4.51,2.84,1,4.56,1.44,4.84,2.24.63,2.71,1.71-.17,2.65,2.76,4.1,2.27,2.23,2.52,3.56.47,1.09,1.37,1.66,1.6,2.19,1.17,2.7-1.09,1.28.5,2.68a4.41,4.41,0,0,1,.72.81,23,23,0,0,0,5.43,5.91l5.89,4.31s6.69,2.59,9.78,1.4c.81-.31-2.16-1.94,1.4-2.79,1.19-.29-3.2-1.78-2.31-2.52s5,1.21,6,.4c1.26-1,1.05-3,2.94-3,.28.21.53.43.73.55.47.27,1.31,0,2.24.53a8.75,8.75,0,0,0,3.16,1.06,6.31,6.31,0,0,1,2.51,1.08,5.3,5.3,0,0,0,3.36.79,4.23,4.23,0,0,1,2,0s-1.2-1.08-1.85-1.08-.85.28-1.31,0-.66,0-1.12-.26.19-.28-.74-.81-1.31,0-1.31,0A2.53,2.53,0,0,1,269,202a2.55,2.55,0,0,0-1.11-.27,3.16,3.16,0,0,0-1.21-1.08c-.92-.53-1,.55-1.3,0a1.32,1.32,0,0,0-.52-.46c1.33-.57,1.25-2,3.45-2.82.7-.25,2.27,1.4,3.63,1.34,2.65-.11,5.39-1.74,5.53-1.7,1.12.32,3.79-.37,4.91-.05s2-.71,2.66-.68,2.48,1.16,2.69.91,1.56-.2,2.68.11a1.49,1.49,0,0,0,1.78-.45C292.43,196.6,292.19,196.06,292.19,196.06Z" transform="translate(-8.35 -91.4)"/>
            <path class="cls-24" d="M220,157.77a1.83,1.83,0,0,0-.36-.63A2,2,0,0,1,220,157.77Z" transform="translate(-8.35 -91.4)"/>
            <path class="cls-24" d="M220.34,152.16h0Z" transform="translate(-8.35 -91.4)"/>
            <path class="cls-27" d="M208.07,150.69c1.2-.33,1,1.12,2.5,2.07s3.34.47,3.81,1,2.86,3.35,4.05,3a1.11,1.11,0,0,1,1.19.33,2.54,2.54,0,0,0-1.67-.89,2.32,2.32,0,0,1-2-1.51s-1-1.12-.35-1.28.95,1.12,1.54.95-.35-1.28.24-1.44,1.67.23,2.27.07a1.14,1.14,0,0,0,.71-.88c0,.08-.18.69-1.19.32a16,16,0,0,0-2.74-.63l-1.19.33c-.6.16-1.07-.4-2.14-.79s-1.07-.4-1.67-.24-1.43-1.67-2-1.51-1.08-.4-1.67-.23.35,1.28-1.91,1.21A4.14,4.14,0,0,0,208.07,150.69Z" transform="translate(-8.35 -91.4)"/>
          </g>
        </g>
      </g>
    </g>
  </g>
</svg>
