<svg xmlns="http://www.w3.org/2000/svg" xmlns:xlink="http://www.w3.org/1999/xlink" viewBox="0 0 475.15 459.44">
  <defs>
    <style>
      .cls-1 {
        isolation: isolate;
      }

      .cls-2 {
        fill: #8c6239;
      }

      .cls-3 {
        fill: #754c24;
      }

      .cls-4 {
        fill: #344913;
      }

      .cls-5 {
        fill: #5b5b5b;
      }

      .cls-6 {
        fill: #939393;
      }

      .cls-7 {
        fill: #636363;
      }

      .cls-8 {
        fill: #211102;
      }

      .cls-9 {
        fill: #35170b;
      }

      .cls-10 {
        fill: #421f0d;
      }

      .cls-11 {
        fill: #2b120a;
      }

      .cls-12 {
        fill: #261006;
      }

      .cls-13 {
        fill: #2d1309;
      }

      .cls-14 {
        fill: url(#linear-gradient);
      }

      .cls-15 {
        fill: url(#linear-gradient-2);
      }

      .cls-16 {
        opacity: 0.75;
        mix-blend-mode: screen;
      }

      .cls-17 {
        fill: url(#linear-gradient-3);
      }

      .cls-18 {
        fill: url(#linear-gradient-4);
      }

      .cls-19 {
        fill: url(#linear-gradient-5);
      }

      .cls-20 {
        fill: url(#linear-gradient-6);
      }

      .cls-21 {
        opacity: 0.35;
        mix-blend-mode: multiply;
      }

      .cls-22 {
        fill: url(#linear-gradient-7);
      }

      .cls-23 {
        fill: #ff2400;
      }

      .cls-24 {
        fill: url(#linear-gradient-8);
      }

      .cls-25 {
        fill: url(#linear-gradient-9);
      }

      .cls-26 {
        fill: url(#linear-gradient-10);
      }
    </style>
    <linearGradient id="linear-gradient" x1="237.38" y1="65.99" x2="237.32" y2="98" gradientUnits="userSpaceOnUse">
      <stop offset="0" stop-color="#d43500"/>
      <stop offset="1" stop-color="#2a1c00"/>
    </linearGradient>
    <linearGradient id="linear-gradient-2" x1="484.09" y1="716.16" x2="484.65" y2="669.57" gradientUnits="userSpaceOnUse">
      <stop offset="0" stop-color="#ffb815"/>
      <stop offset="1" stop-color="#d40000"/>
    </linearGradient>
    <linearGradient id="linear-gradient-3" x1="418.34" y1="795.35" x2="431.08" y2="1117.55" xlink:href="#linear-gradient-2"/>
    <linearGradient id="linear-gradient-4" x1="378.75" y1="773.33" x2="383.88" y2="902.88" xlink:href="#linear-gradient-2"/>
    <linearGradient id="linear-gradient-5" x1="570.68" y1="712.71" x2="586.71" y2="1118.37" xlink:href="#linear-gradient-2"/>
    <linearGradient id="linear-gradient-6" x1="33.48" y1="240.67" x2="36.3" y2="312.1" xlink:href="#linear-gradient-2"/>
    <linearGradient id="linear-gradient-7" x1="661.52" y1="700.36" x2="668.89" y2="700.36" gradientTransform="matrix(1.11, 0.56, -0.35, 0.72, 23.02, -194.1)" gradientUnits="userSpaceOnUse">
      <stop offset="0" stop-color="#d40005"/>
      <stop offset="0.28" stop-color="#e6560c"/>
      <stop offset="0.52" stop-color="#f39911"/>
      <stop offset="0.69" stop-color="#fcc214"/>
      <stop offset="0.78" stop-color="#ffd215"/>
    </linearGradient>
    <linearGradient id="linear-gradient-8" x1="629.1" y1="693.79" x2="642.4" y2="693.79" gradientTransform="matrix(1.11, 0.56, -0.35, 0.72, 23.02, -194.1)" gradientUnits="userSpaceOnUse">
      <stop offset="0" stop-color="#d40005"/>
      <stop offset="0.36" stop-color="#e6560c"/>
      <stop offset="0.67" stop-color="#f39911"/>
      <stop offset="0.89" stop-color="#fcc214"/>
      <stop offset="1" stop-color="#ffd215"/>
    </linearGradient>
    <linearGradient id="linear-gradient-9" x1="622.47" y1="739.31" x2="669.24" y2="645.43" gradientTransform="matrix(1.1, 0.48, -0.35, 0.75, 25.46, -162.68)" xlink:href="#linear-gradient-2"/>
    <linearGradient id="linear-gradient-10" x1="596.56" y1="710.35" x2="609.69" y2="710.35" xlink:href="#linear-gradient-8"/>
  </defs>
  <title>0</title>
  <g class="cls-1">
    <g id="_0" data-name="0">
      <polygon class="cls-2" points="0.6 245.85 0.6 280.82 235.4 414.58 236.81 380.91 0.6 245.85"/>
      <polygon class="cls-3" points="471.61 274.04 475.15 243.33 236.32 381.51 235.4 414.58 471.61 274.04"/>
      <polygon class="cls-4" points="0 246.46 236.58 102.79 475.15 243.33 236.35 381.51 0 246.46"/>
      <path class="cls-5" d="M445,705c.27.49-.17.79-.62,1.11-1.07.74-.19,1.82.4,2.32,2.53,2.14,7,3.4,11.25,5.9,6.65,3.95,13.24,9.55,17.18,11.41,8.36,3.94,20.92,4.14,22.57,2.35s-4.52-2.55-4.52-2.55a41.77,41.77,0,0,1,8.17,1.89c3.85,1.39,4.31-3,4-4.76s-4.37-4-4.37-4c4.35,1.67,13,2.67,19.32.79s-4.07-8.12.28-6.45-1.51-.85,5.83.18,4.13-2.72,5.28-4.79-2.86-3.17-3.88-4.91,4.82-1.56,4.82-1.56c4-3.59-3.72-6.37-1.23-7.3s-2.7-3.46-2.7-3.46c6.3-3-1.22-6.13-.73-7s-3-2.87-3-2.87,8.5,1.3,4.94-5.37-13.22-7.06-12.23-8.84-2.36-2.88-2.36-2.88,5.29-3.62.59-8.22-11.34-2.12-11.34-2.12c-3.18-1.4-7.16-.15-7.16-.15a9.38,9.38,0,0,0-5.07-7.52c-5-2.83-6,1.29-7.52-3.07s-6-5.74-10.54-6-.32,1.77-3.48,1.54-2,2.38-4.67.09-4.18-2-8.66-1-.64,3.53-.62,5.87-1.64,1.79-5,1.86-1.62,5.3-1.62,5.3a8.3,8.3,0,0,0-8.35-2.76c-2.33.63,3.37,4.62,1.54,4.36a2.62,2.62,0,0,0-2.65,1.22s-5.21-4.87-11.18-2.41,4.76,10.45,4.76,10.45-9.05-6.27-12,.24,19.28,14,14.77,12.6-5.49.4-6.48,2.17,5.52,2,2.9,6.69,13,5,10.55,7.11,1.71,5.24,4.9,7.82,5.51,1.73,3.5,2.64c-1.8.82-2.69.86-3.93.06a7.88,7.88,0,0,0-3.77-1.24C441.26,699.69,443.63,702.6,445,705Z" transform="translate(-246.18 -631.51)"/>
      <path class="cls-6" d="M445.08,708.5a4.49,4.49,0,0,0,3.7,4.8,44.71,44.71,0,0,1,7.26,1.79c3.71,2,2.66,3.72,8.23,7.48,5.72,3.87,2.05,3,5.61,4.64,8.36,3.94,20.92,4.14,22.56,2.35s-4.51-2.55-4.51-2.55a41.77,41.77,0,0,1,8.17,1.89c3.84,1.39,4.3-3,3.95-4.76s-4.36-4-4.36-4c4.34,1.68,13,2.68,19.32.79s-4.07-8.12.27-6.45-1.5-.85,5.83.18,4.14-2.72,5.29-4.79-2.86-3.17-3.88-4.9,4.82-1.56,4.82-1.56c4-3.6-3.73-6.38-1.24-7.3s-2.69-3.47-2.69-3.47c6.3-3-1.22-6.12-.73-7s-3-2.87-3-2.87,8.51,1.29,5-5.37-13.22-7.07-12.24-8.84-2.35-2.89-2.35-2.89,5.29-3.62.59-8.21-11.34-2.12-11.34-2.12c-3.18-1.41-7.17-.16-7.17-.16a9.35,9.35,0,0,0-5.06-7.51c-5-2.83-6,1.29-7.52-3.08s-6.05-5.74-10.55-5.94-.31,1.76-3.48,1.53-2,2.38-4.66.09-4.18-2-8.67-1-.63,3.53-.61,5.87-1.65,1.79-5,1.86-1.61,5.3-1.61,5.3a8.32,8.32,0,0,0-8.35-2.76c-2.33.63,3.37,4.62,1.54,4.36a2.66,2.66,0,0,0-2.66,1.23s-5.2-4.88-11.18-2.42,4.76,10.45,4.76,10.45-9.05-6.26-12,.24,19.27,14,14.76,12.6-5.49.4-6.47,2.18,5.51,1.94,2.89,6.68,13,5,10.56,7.11,1.71,5.24,4.9,7.82,5.35,3.94,3.34,4.85c-1.8.82.5,2.31-.75,2.25C445.57,706.82,445.18,707.54,445.08,708.5Z" transform="translate(-246.18 -631.51)"/>
      <path class="cls-7" d="M451.55,709.1s5.58,2.53,6,3.74c.75,2.25,3.56,3.34,7.48,6,4.83,3.26,4.84-.64,7.84.77,6.49,3.06,16.23,3.22,17.51,1.83s-3.51-2-3.51-2a32.63,32.63,0,0,1,6.35,1.47c3,1.07,3.33-2.34,3.06-3.7s-3.39-3.12-3.39-3.12a27,27,0,0,0,15,.62c4.89-1.46-3.16-6.3.21-5s-1.17-.66,4.52.14,3.21-2.11,4.1-3.72-2.22-2.45-3-3.8,3.74-1.21,3.74-1.21c3.07-2.79-2.89-4.94-1-5.66s-2.09-2.69-2.09-2.69c4.89-2.37-1-4.76-.57-5.44s-2.34-2.23-2.34-2.23,6.6,1,3.84-4.17-10.26-5.48-9.5-6.86-1.83-2.23-1.83-2.23,4.11-2.81.46-6.38-8.8-1.64-8.8-1.64a9,9,0,0,0-5.55-.12,7.27,7.27,0,0,0-3.93-5.83c-3.9-2.2-4.64,1-5.84-2.39s-4.69-4.45-8.18-4.61-.24,1.37-2.7,1.19-1.53,1.85-3.62.07-3.24-1.53-6.72-.78-.49,2.74-.47,4.56-1.28,1.39-3.87,1.44-1.25,4.11-1.25,4.11a6.47,6.47,0,0,0-6.48-2.14c-1.8.49,2.62,3.58,1.19,3.38a2,2,0,0,0-2.05.95s-4-3.78-8.68-1.87,3.7,8.11,3.7,8.11-7-4.86-9.3.18,14.95,10.84,11.45,9.78-4.26.31-5,1.69,4.28,1.5,2.24,5.18,10.12,3.89,8.19,5.52-.42,3.64,2.05,5.64,0,2.21-.75,3.74,5.24,2.25,4.49,3.74C453.89,706.66,450.71,707.16,451.55,709.1Z" transform="translate(-246.18 -631.51)"/>
      <path class="cls-5" d="M571.57,729.19c1.49-1.69,4.58-2.37,10.81.31,0,0,6-5.25,15.77,2.43,0,0,8-6.13,14.73,7.2,0,0,12.77,6.36,10.73,13.29,0,0,11.81,3.34,11.75,9.39s-7,7.41-11.88,4.44l-42.87-21.79a11,11,0,0,1-2.5-1.75l-3.64-3.36C570.9,736.06,569.54,731.47,571.57,729.19Z" transform="translate(-246.18 -631.51)"/>
      <path class="cls-6" d="M569.41,730.42c1.49-1.68,4.58-2.36,10.8.31,0,0,6-5.24,15.77,2.44,0,0,8-6.13,14.74,7.2,0,0,12.77,6.35,10.73,13.28,0,0,11.81,3.34,11.75,9.39s-7,7.42-11.89,4.44L578.45,745.7a11.34,11.34,0,0,1-2.5-1.76l-3.64-3.36C568.74,737.3,567.38,732.71,569.41,730.42Z" transform="translate(-246.18 -631.51)"/>
      <path class="cls-5" d="M347.21,677.91c1.3-1.47,4-2.07,9.43.27,0,0,5.21-4.58,13.76,2.12,0,0,7-5.34,12.87,6.29,0,0,11.14,5.54,9.36,11.6,0,0,10.31,2.91,10.26,8.19s-6.09,6.47-10.38,3.88l-37.41-19a9.67,9.67,0,0,1-2.18-1.53l-3.18-2.93C346.63,683.91,345.44,679.9,347.21,677.91Z" transform="translate(-246.18 -631.51)"/>
      <path class="cls-6" d="M345.32,679c1.3-1.47,4-2.07,9.43.27,0,0,5.22-4.58,13.77,2.12,0,0,6.94-5.35,12.86,6.29,0,0,11.15,5.54,9.36,11.59,0,0,10.31,2.92,10.26,8.2s-6.09,6.47-10.37,3.87l-37.41-19a9.72,9.72,0,0,1-2.19-1.53l-3.18-2.93C344.74,685,343.55,681,345.32,679Z" transform="translate(-246.18 -631.51)"/>
      <path class="cls-5" d="M559.14,688.54c1.11-1.26,3.43-1.77,8.08.23,0,0,4.47-3.92,11.8,1.82,0,0,6-4.58,11,5.39,0,0,9.55,4.75,8,9.94,0,0,8.83,2.49,8.79,7s-5.22,5.55-8.89,3.32L565.9,700a8.71,8.71,0,0,1-1.87-1.32l-2.72-2.51C558.64,693.68,557.62,690.25,559.14,688.54Z" transform="translate(-246.18 -631.51)"/>
      <path class="cls-6" d="M557.52,689.46c1.12-1.26,3.43-1.77,8.08.23,0,0,4.47-3.92,11.8,1.82,0,0,6-4.58,11,5.39,0,0,9.56,4.75,8,9.94,0,0,8.84,2.5,8.79,7s-5.22,5.55-8.89,3.32l-32.06-16.29a8.72,8.72,0,0,1-1.88-1.31l-2.72-2.52C557,694.6,556,691.17,557.52,689.46Z" transform="translate(-246.18 -631.51)"/>
      <polygon class="cls-8" points="117.84 181.51 110.96 190.69 103.18 193.73 83.4 210.21 91.44 236.62 122.44 232.03 131.62 243.51 149.99 243.51 164.92 265.32 190.18 285.99 247.59 268.77 264.81 259.58 300.4 275.65 334.85 265.32 353.22 268.77 387.66 256.14 353.22 230.88 117.84 181.51"/>
      <polygon id="Volcano" class="cls-9" points="89.14 210.21 105.22 198.73 114.4 195.28 117.84 181.51 132.77 173.47 151.14 160.84 163.77 137.88 186.73 129.84 192.47 111.47 209.7 108.02 215.44 90.8 226.92 88.5 230.36 86.21 236.1 87.36 241.6 86.47 244.14 88.5 253.33 95.39 260.22 111.47 271.7 114.91 284.33 127.54 296.96 137.88 300.4 160.84 313.03 160.84 321.07 179.21 329.11 194.14 357.81 219.4 364.7 243.51 376.18 250.4 352.07 256.14 333.7 252.69 300.4 265.32 265.96 250.4 246.44 259.58 226.92 265.32 194.77 275.65 171.81 259.58 156.88 237.77 137.36 236.62 125.88 222.84 96.03 226.28 89.14 210.21"/>
      <polygon class="cls-10" points="226.92 97.69 232.66 97.69 217.73 116.06 211.99 129.84 200.51 143.62 200.51 168.88 182.14 192.99 169.51 223.99 156.88 237.77 137.36 237.77 159.18 217.1 160.33 203.32 176.4 184.95 176.4 171.17 186.73 161.99 194.68 139.42 206.25 127.54 205.1 116.06 216.59 106.88 222.33 89.65 226.92 97.69"/>
      <polygon class="cls-10" points="201.46 132.46 190.18 134.43 183.29 141.32 172.96 143.62 164.92 161.99 154.59 163.14 145.4 172.32 117.84 181.51 114.4 195.28 143.1 178.06 151.14 173.47 158.03 174.62 162.62 167.73 177.55 161.99 177.55 157.4 190.18 147.06 201.46 132.46"/>
      <polygon class="cls-10" points="168.36 164.28 166.07 171.17 160.33 176.91 158.03 183.8 151.14 186.1 147.7 195.28 140.81 197.58 137.36 203.32 125.88 209.06 124.73 223.99 137.36 237.77 137.36 220.54 152.29 214.8 158.03 198.73 176.4 184.95 174.1 172.32 172.96 168.88 187.88 161.99 177.55 161.99 168.36 164.28"/>
      <polygon class="cls-10" points="158.03 174.62 155.73 180.36 148.84 183.8 144.25 194.14 137.36 195.28 133.92 201.03 124.73 223.99 94.88 228.58 89.14 210.21 101.77 206.76 105.22 198.73 114.4 199.88 124.73 190.69 132.77 187.25 137.36 183.8 148.84 180.36 158.03 174.62"/>
      <polygon class="cls-10" points="166.07 141.32 151.14 160.84 155.73 159.69 160.33 157.4 163.56 158.75 163.77 155.1 168.36 149.36 171.81 140.17 186.73 135.58 168.36 137.88 166.07 141.32"/>
      <polygon class="cls-10" points="210.84 110.32 194.77 113.77 190.18 129.84 197.07 117.21 210.84 110.32"/>
      <polygon class="cls-10" points="226.92 89.65 216.59 91.95 213.14 102.28 215.44 102.28 210.84 108.02 218.88 101.14 216.59 99.99 217.73 94.25 226.92 89.65"/>
      <polygon class="cls-10" points="182.14 192.99 190.18 206.76 184.44 220.54 187.88 237.77 184.44 254.99 194.77 275.65 171.81 259.58 162.51 245.99 172.96 230.88 175.25 219.4 182.14 192.99"/>
      <polygon class="cls-11" points="237.17 262.31 241.85 241.21 234.96 223.99 238.4 195.28 234.96 181.51 226.92 148.21 236.1 132.13 232.66 116.06 232.66 97.69 239.55 101.14 244.14 96.54 244.14 116.06 252.18 121.8 254.47 139.02 259.07 148.21 268.25 172.32 268.25 187.25 279.74 205.62 275.14 221.69 300.4 265.32 265.96 250.4 246.44 259.58 237.17 262.31"/>
      <polygon class="cls-12" points="246.44 96.54 252.18 102.28 261.36 119.51 269.4 122.95 271.7 127.54 271.7 134.43 276.29 139.02 279.74 156.25 294.66 171.17 302.7 192.99 321.07 219.4 334.85 252.69 315.33 233.17 317.62 227.43 310.53 222.76 302.7 205.62 293.51 195.28 280.88 183.8 277.89 166.77 268.25 151.65 268.25 143.62 261.36 134.43 261.36 125.25 255.62 121.8 246.44 96.54"/>
      <polygon class="cls-13" points="334.85 252.69 324.51 236.62 318.77 234.32 319.92 227.43 311.88 220.54 304.99 204.47 284.33 183.8 280.88 165.43 270.55 150.51 270.55 143.62 263.66 134.43 263.66 125.25 256.77 120.65 246.44 96.54 255.62 121.8 261.36 125.25 261.36 134.43 268.25 145.91 268.25 151.65 277.92 166.95 280.88 183.8 302.7 205.62 310.74 222.84 317.62 227.43 315.33 233.17 334.85 252.69"/>
      <polygon class="cls-14" points="235.63 80.97 241.21 80.09 253.35 89.23 252.17 90.41 246.26 90.41 245.08 91.59 243.9 90.41 239.18 95.14 232.09 91.59 226.18 91.59 221.33 83.12 226.18 82.15 229.73 79.78 235.63 80.97"/>
      <path class="cls-15" d="M469.09,717.39s16.44-5.09,29.93,3.86l-.68.67h-5.9l-1.18,1.19-1.18-1.19-4.73,4.73-7.09-3.54h-5.9Z" transform="translate(-246.18 -631.51)"/>
      <g>
        <image class="cls-16" width="155" height="400" transform="translate(98.77 59.44)" xlink:href="01.png"/>
        <path class="cls-17" d="M478.26,703s4.73,11.81,3.55,16.53-10.63,10.63-9.45,13,3.54,4.73,3.54,7.09-3.54,5.91-3.54,8.27,2.36,4.72,1.18,5.9-4.72,2.36-5.9,4.73-5.91,1.18-7.09,3.54,0,7.09,1.18,9.45-4.72,2.36-5.91,5.9,4.73,9.45,4.73,13-15.35,9.44-17.72,15.35,3.55,18.9,5.91,21.26-3.54,10.63-8.27,11.81-5.9,11.81,2.36,17.71S432.2,883.73,432.2,892s-10.63,9.44-9.44,15.35-60.24,34.25-60.24,34.25-4.72,1.18-4.72,2.36V1072.7l8.27,4.72,2.36-128.73,13-5.91,50.78-28.34s-1.18-7.09,1.18-9.45,4.73-4.73,4.73-7.09-2.36-8.27,1.18-10.63a16,16,0,0,0,7.09-13c0-5.91,5.9-16.53,1.18-21.26s-4.73-8.27,0-13,7.08-11.81,4.72-15.35-7.08-11.81-4.72-17.72,18.89-11.81,17.71-15.35-9.45-11.81-4.72-15.36,4.72-7.08,3.54-9.45,7.09-5.9,7.09-7.08,5.9-3.55,5.9-5.91-2.36-7.08-1.18-8.26,3.55-5.91,2.36-8.27-3.54-4.73-2.36-5.91,9.45-8.26,9.45-10.63,1.18-9.44,1.18-9.44a3.67,3.67,0,0,0-1.18-2.37C484.17,707.75,478.26,703,478.26,703Z" transform="translate(-246.18 -631.51)"/>
      </g>
      <g>
        <image class="cls-16" width="231" height="182" transform="translate(17.77 59.44)" xlink:href="02.png"/>
        <path class="cls-18" d="M478.26,703h-1.18l-3.54,10.63s-7.09,4.72-8.27,7.08,0,4.73-2.36,7.09-2.36,2.36-3.54,4.72-8.27,3.55-9.45,7.09-3.54,8.27-3.54,11.81-10.63,5.91-11.81,7.09-7.09,10.63-5.91,18.89-9.45,5.91-10.63,10.63-9.45,3.55-11.81,7.09-8.27,1.18-11.81,5.9-8.27,8.27-13,8.27-11.81,5.91-11.81,7.09-7.09,1.18-15.36,7.08-3.54,9.45-10.62,11.82-16.54,11.81-16.54,11.81l-35.74,3.21-14.73,9.38,52.83-7.87s7.09-10.63,13-10.63,8.27-4.72,9.45-7.09,2.36-7.08,7.09-8.26,11.81-4.73,13-7.09,8.27-7.09,11.81-5.9,10.63-7.09,11.81-9.45,8.27-3.55,11.81-4.73,14.17-5.9,14.17-9.45,13-3.54,11.81-8.26,0-18.9,3.55-20.08,9.45-3.54,10.63-5.91,5.9-7.08,5.9-9.44-1.18-5.91,2.36-8.27,10.63-9.45,10.63-10.63,2.37-8.27,4.73-8.27,5.9-2.36,7.08-4.72a8.93,8.93,0,0,1,3.55-3.55Z" transform="translate(-246.18 -631.51)"/>
      </g>
      <g>
        <image class="cls-16" width="204" height="342" transform="translate(226.77 66.44)" xlink:href="03.png"/>
        <path class="cls-19" d="M485.35,710.11l1.07.55a58.79,58.79,0,0,1,6,4.18c1.18,1.18,1.18,2.36,2.36,3.54s3.54,1.18,3.54,3.54,0,2.37,1.18,3.55a9,9,0,0,1,2.37,4.72c0,1.18,2.36,2.36,2.36,3.54s-1.18,3.55,1.18,4.73,3.54,3.54,4.72,4.72,8.27-1.18,9.45,1.18,0,8.27,1.18,8.27,5.91,2.36,5.91,3.54,0,4.73,2.36,5.91,1.18,4.72,2.36,5.91a3.59,3.59,0,0,1,0,4.72c-1.18,1.18,1.18,3.54,3.54,3.54s4.73,2.36,3.55,4.73,7.08,5.9,8.27,8.26-1.19,5.91,1.18,7.09,7.08,3.54,7.08,4.72-1.18,3.55,0,4.73,0,1.18,3.55,3.54,2.36,5.91,3.54,8.27,5.9,3.54,7.09,7.09,9.44,2.36,10.62,7.08,7.09,1.18,8.27,5.91-1.18,4.72-1.18,7.08,5.91,3.55,7.09,7.09-1.18,9.45,1.18,11.81,17.71,16.53,22.44,17.72a1.16,1.16,0,0,1,1.18,1.18v10.63l44.88,15.35v114.56l-5.91,3.54V912.07L612.9,895.54V883.73a1.16,1.16,0,0,0-1.18-1.18c-1.18,0-21.26-17.72-20.07-22.44s2.36-9.45,0-9.45-8.27-3.54-7.09-7.09,2.36-7.08,0-7.08a9,9,0,0,1-5.91-2.37c-1.18-1.18,0-4.72-2.36-4.72S568,829.4,568,827s-4.72-4.73-7.08-5.91,0-7.08-1.18-8.26-4.73-2.37-5.91-4.73,0-1.18-1.18-4.72-7.09-3.55-7.09-7.09,1.19-5.9,0-7.09-10.63-5.9-9.44-8.26-5.91-2.37-5.91-5.91,1.18-3.54,0-5.9,0-3.55-1.18-4.73-4.72-3.54-4.72-5.9,0-3.55-3.55-4.73-1.18-5.9-2.36-7.08-8.27,0-9.45-2.37-5.9-5.9-5.9-7.08,1.18-2.36,0-3.55-2.37-2.36-2.37-3.54-1.18-2.36-2.36-3.54,0-3.54-1.18-4.73-3.54-2.36-3.54-3.54-2.36-3.54-2.36-3.54l-3.55-2.36-2.36-1.18Z" transform="translate(-246.18 -631.51)"/>
      </g>
      <g>
        <image class="cls-16" width="38" height="108" transform="translate(17.77 285.44)" xlink:href="04.png"/>
        <polygon class="cls-20" points="30.44 297.84 42.49 304.54 41.94 373.87 32.49 379.77 30.44 297.84"/>
      </g>
      <g id="Tephra">
        <image class="cls-21" width="133" height="93" transform="translate(153.33)" xlink:href="05.png"/>
        <g>
          <path class="cls-22" d="M515.88,685c-1.18-.21-1.65.75-2.16.49s-3.09-1.56-3.4-.92c-.15.31-.43.27-.68.15a1.36,1.36,0,0,0,1.19.11c.83-.38,1.7.46,1.7.46s1,.52.87.83-1-.51-1.18-.2.87.84.71,1.16-.82.37-1,.69.2.9.2.9-.35-.58.32-.64a5.65,5.65,0,0,0,1.49-.43l.31-.64c.16-.32.67-.06,1.34-.12s.67-.06.83-.37,1.54.77,1.7.46.67-.06.82-.38-.87-.84.12-1.53a1.32,1.32,0,0,0-1,.69C517.78,686.39,517.07,685.24,515.88,685Z" transform="translate(-246.18 -631.51)"/>
          <path class="cls-23" d="M509.64,684.76a2.52,2.52,0,0,1-.5-.35A2.24,2.24,0,0,0,509.64,684.76Z" transform="translate(-246.18 -631.51)"/>
          <path class="cls-24" d="M477.81,661.88a16.69,16.69,0,0,0,2.17,2l1.62.65c.8.32.68.85,1.36,1.71s.68.85,1.49,1.18-.37,1.6.43,1.92.69.86,1.49,1.18,1.06-.75,3.36.75a5.84,5.84,0,0,0-2.3-1.5c-1.61-.64.25-1.07-.31-2.46s-3-2.35-2.85-2.89.74-3.2-.87-3.85c-.78-.31-.94-.64-.89-.9-.09.33,0,.83.76,1.44,1.49,1.18.44,1.92.44,1.92s-.25,1.07-1.06.75.25-1.07-.56-1.39-1,.75-1.86.42-1.49-1.17-2.29-1.49a3.28,3.28,0,0,0-1.73-.12A1.7,1.7,0,0,1,477.81,661.88Z" transform="translate(-246.18 -631.51)"/>
          <path class="cls-23" d="M476.21,661.23h0Z" transform="translate(-246.18 -631.51)"/>
          <path class="cls-23" d="M482.84,659.21a.88.88,0,0,0-.33.49A1,1,0,0,1,482.84,659.21Z" transform="translate(-246.18 -631.51)"/>
          <path class="cls-23" d="M522.05,695c.07-.08-.07-.07-.31,0C521.89,695.09,522,695.09,522.05,695Z" transform="translate(-246.18 -631.51)"/>
          <path class="cls-23" d="M440.54,667.94a3,3,0,0,0-.93,0C439.1,668,439.59,667.94,440.54,667.94Z" transform="translate(-246.18 -631.51)"/>
          <path class="cls-25" d="M525.6,705.7c-.48-.3-.21,1.13-1.18.52s-1.2-.33-1.2-.33-.47.54-1.43-.07a3.82,3.82,0,0,0-1.69-.64,8.6,8.6,0,0,1-1.68-.64,1.66,1.66,0,0,0-1.67.22c-.23.27-.72,0-1.68-.65s-1.21-.33-1.67.22-1.94-1.22-2.9-1.83-2.39.18-3.12-.71-.75-1.73.67-2.52.9-2.81,1.13-3.08,1.68.64,2.15.09,2.17,1,2.63.4,2.4.67,2.87.12,2.89,1,3.1-.15c.16-.79,1.25-1.4,1.81-1.6-.62-.15-2-.85-2.32-.41s-1.69-.64-2.89-1a2.28,2.28,0,0,0-2.13.76s-.7.83-1.42.79-1.45-.91-2.17-.94-.46.55-1.18.52-1.45-.92-2.17-.95-.95.24-.7.82-.95.25-1.67.22-.71,0-1.18.51-1.92-.36-2.17-.94-.5-1.16,0-1.71,2.63.4,3.1-.15,0-1.71.43-2.26,1,.61,2.17.95a2.26,2.26,0,0,0,2.13-.76s-2.15-.09-2.4-.67-1.91-.37-2.4-.67-1.67.21-3.12-.71-5,2.35-4.75,1.22,2.37-1,2.82-2.44-1.23-2-1-3.17-1-1.46-1-2.3c5.06,1.35,8.34-.14,9-1.41s3.71.28,6.19-.85,1.76-2.28,2.23-3.23,2.53.08,3.66-.93a3.09,3.09,0,0,0,1.1-2.23c6.54-.26,3.41-3,3.41-3s.25,2.11-2.63,1.45-4.49,1.3-4.13,1.88-2.32.81-4.18.67-2.43,2.34-2.43,2.34a2.54,2.54,0,0,1-3.15,1.19c-2.21-.72-3-.35-3.86,0a2.7,2.7,0,0,1-2.68.23c-1.7-.46-3.63,1.82-3.63,1.82h0a2.36,2.36,0,0,0-2,.5c-.94,1.1-5-1.07-5.29-1.65s3.34-.42,3.8-1-.5-1.16-.28-2.29,2.1-2.46,2.1-2.46-5,.63-4.27,1.52-.43,2.25-1.38,2.5-2.64-.4-3.1.15-3.11.15-3.81,1,1.47,1.77.77,2.59-1.43-.06-2.63-.4a2.77,2.77,0,0,0-2.39.18c-.23.28-.93,1.1-2.85.73s-2.8,3.29-3.3,2.14.2-2-.3-3.14-2.18-1.8-2.68-3,2.6-1.31,2.33-2.74-2.44-2.38-2.94-3.54c-.33-.77,1.66-1.56,3-2l.58,0c5.87-.21,2.92-7.25,1.38-8s-1.43-2.31-.65-3.9-3.17-4-5.23-5-.76-2.36-.33-4.53-5-4.12-7.13-6.37.49-4.91.49-4.91a18.4,18.4,0,0,0-3.31,1.51c-1,.69-.17,4.27,1.73,5.62s5,4.13,4,4.82,2.19,4.68,3.06,5.51,2.93,1.87,3.49,3.35-2,.17-1.25,2.54,5.74,5.28,2.23,5.89c-3,.52-3.92,3.5-4.14,4.38a.91.91,0,0,0-.15.23c-.92,2-6.44.57-6.91,1.12s.31,3.14,1.27,3.75-.45,1.4-1.86,2.19-.89,3.66-1.62,2.77-.54-2.86-2-2.92-2.68-3-3.17-3.27-3.13-1.55-4.13-3.87c-.69-1.6-5.11-1.73-7.23-1.73a9.74,9.74,0,0,1,4.38,2.46c1.21,1.19,1.25,2.9,3.9,4.15s2.23,4.36,2.23,4.36-2.63-.4-3.15-2.41-7.45-2.6-8.94-5.22-7.7-3.17-11.54-3.9-.93,1.09-10.55-2.45-15,1.06-15,1.06c5.43-2.89,11.47.49,14.82.92s6.09,6,11.77,3.64,12.47,2.81,14.66,4.6.07,3.42.57,4.58,3.38,2.13,4.83,3,1.05,4.87,1.54,5.18,2.4.67,2.9,1.83-.18,2.83,2.95,4.39,2.44,2.38,2.7,3.81.5,1.16,1.47,1.77,1.72,2.34,1.25,2.89-1.17,1.37.54,2.87a4.72,4.72,0,0,1,.77.87,24.32,24.32,0,0,0,5.81,6.32l6.31,4.62s7.16,2.78,10.47,1.5c.86-.33-2.32-2.08,1.5-3,1.27-.31-3.43-1.9-2.47-2.7s5.32,1.3,6.44.44c1.34-1.05,1.12-3.18,3.15-3.23a7.7,7.7,0,0,0,.78.58c.5.29,1.4,0,2.39.57a9.43,9.43,0,0,0,3.39,1.15,6.73,6.73,0,0,1,2.69,1.14c1,.58,2.69,1.15,3.59.85a4.67,4.67,0,0,1,2.1,0s-1.28-1.16-2-1.15-.91.3-1.4,0-.7,0-1.2-.29.2-.29-.79-.86-1.4,0-1.4,0a2.7,2.7,0,0,1-1.2-.28,2.7,2.7,0,0,0-1.2-.28,3.3,3.3,0,0,0-1.28-1.16c-1-.57-1.11.59-1.4,0a1.32,1.32,0,0,0-.56-.5c1.43-.61,1.34-2.16,3.7-3,.75-.27,2.43,1.49,3.89,1.43,2.83-.12,5.77-1.86,5.91-1.82,1.2.34,4.06-.39,5.26-.06s2.13-.76,2.85-.73,2.65,1.26,2.88,1,1.67-.21,2.87.12a1.59,1.59,0,0,0,1.9-.48C525.85,706.28,525.6,705.7,525.6,705.7Z" transform="translate(-246.18 -631.51)"/>
          <path class="cls-23" d="M448.29,664.71a1.78,1.78,0,0,0-.38-.67A2,2,0,0,1,448.29,664.71Z" transform="translate(-246.18 -631.51)"/>
          <path class="cls-23" d="M448.68,658.71h0Z" transform="translate(-246.18 -631.51)"/>
          <path class="cls-26" d="M435.55,657.13c1.27-.35,1,1.2,2.67,2.22s3.57.5,4.08,1.09,3.06,3.6,4.33,3.25a1.18,1.18,0,0,1,1.28.35,2.67,2.67,0,0,0-1.79-.95,2.5,2.5,0,0,1-2.16-1.62s-1-1.2-.38-1.38,1,1.2,1.65,1-.38-1.37.26-1.55,1.79.25,2.43.07a1.22,1.22,0,0,0,.76-.93c0,.08-.2.73-1.27.34a17.27,17.27,0,0,0-2.93-.68l-1.28.35c-.64.18-1.15-.42-2.3-.84s-1.14-.43-1.78-.25-1.53-1.8-2.17-1.62-1.14-.43-1.78-.25.38,1.37-2.05,1.29A4.36,4.36,0,0,0,435.55,657.13Z" transform="translate(-246.18 -631.51)"/>
        </g>
      </g>
    </g>
  </g>
</svg>
