<svg xmlns="http://www.w3.org/2000/svg" xmlns:xlink="http://www.w3.org/1999/xlink" viewBox="0 0 401.57 449.77">
  <defs>
    <style>
      .cls-1 {
        isolation: isolate;
      }

      .cls-2 {
        fill: #8c6239;
      }

      .cls-3 {
        fill: #754c24;
      }

      .cls-4 {
        fill: #344913;
      }

      .cls-5 {
        fill: #5b5b5b;
      }

      .cls-6 {
        fill: #939393;
      }

      .cls-7 {
        fill: #636363;
      }

      .cls-8 {
        fill: #211102;
      }

      .cls-9 {
        fill: #35170b;
      }

      .cls-10 {
        fill: #421f0d;
      }

      .cls-11 {
        fill: #2b120a;
      }

      .cls-12 {
        fill: #261006;
      }

      .cls-13 {
        fill: #2d1309;
      }

      .cls-14 {
        fill: url(#linear-gradient);
      }

      .cls-15 {
        fill: url(#linear-gradient-2);
      }

      .cls-16 {
        opacity: 0.75;
        mix-blend-mode: screen;
      }

      .cls-17 {
        fill: url(#linear-gradient-3);
      }

      .cls-18 {
        fill: url(#linear-gradient-4);
      }

      .cls-19 {
        fill: url(#linear-gradient-5);
      }

      .cls-20 {
        fill: url(#linear-gradient-6);
      }

      .cls-21 {
        opacity: 0.35;
        mix-blend-mode: multiply;
      }

      .cls-22 {
        fill: url(#linear-gradient-7);
      }

      .cls-23 {
        fill: #ff2400;
      }

      .cls-24 {
        fill: url(#linear-gradient-8);
      }

      .cls-25 {
        fill: url(#linear-gradient-9);
      }

      .cls-26 {
        fill: url(#linear-gradient-10);
      }
    </style>
    <linearGradient id="linear-gradient" x1="200.62" y1="116.9" x2="200.57" y2="143.95" gradientUnits="userSpaceOnUse">
      <stop offset="0" stop-color="#d43500"/>
      <stop offset="1" stop-color="#2a1c00"/>
    </linearGradient>
    <linearGradient id="linear-gradient-2" x1="254.01" y1="190.71" x2="254.48" y2="151.33" gradientUnits="userSpaceOnUse">
      <stop offset="0" stop-color="#ffb815"/>
      <stop offset="1" stop-color="#d40000"/>
    </linearGradient>
    <linearGradient id="linear-gradient-3" x1="198.44" y1="257.64" x2="209.21" y2="529.94" xlink:href="#linear-gradient-2"/>
    <linearGradient id="linear-gradient-4" x1="163.85" y1="239.53" x2="168.21" y2="349.93" xlink:href="#linear-gradient-2"/>
    <linearGradient id="linear-gradient-5" x1="327.19" y1="187.8" x2="340.74" y2="530.63" xlink:href="#linear-gradient-2"/>
    <linearGradient id="linear-gradient-6" x1="28.09" y1="265.82" x2="30.48" y2="326.11" xlink:href="#linear-gradient-2"/>
    <linearGradient id="linear-gradient-7" x1="338.8" y1="82.73" x2="350.22" y2="82.73" gradientTransform="matrix(1.11, 0.56, -0.35, 0.72, -47.48, -111.42)" gradientUnits="userSpaceOnUse">
      <stop offset="0" stop-color="#d40005"/>
      <stop offset="0.28" stop-color="#e6560c"/>
      <stop offset="0.52" stop-color="#f39911"/>
      <stop offset="0.69" stop-color="#fcc214"/>
      <stop offset="0.78" stop-color="#ffd215"/>
    </linearGradient>
    <linearGradient id="linear-gradient-8" x1="288.55" y1="72.54" x2="309.17" y2="72.54" gradientTransform="matrix(1.11, 0.56, -0.35, 0.72, -47.48, -111.42)" gradientUnits="userSpaceOnUse">
      <stop offset="0" stop-color="#d40005"/>
      <stop offset="0.36" stop-color="#e6560c"/>
      <stop offset="0.67" stop-color="#f39911"/>
      <stop offset="0.89" stop-color="#fcc214"/>
      <stop offset="1" stop-color="#ffd215"/>
    </linearGradient>
    <linearGradient id="linear-gradient-9" x1="281.03" y1="150.27" x2="353.53" y2="4.77" gradientTransform="matrix(1.1, 0.48, -0.35, 0.75, -46.23, -95.34)" xlink:href="#linear-gradient-2"/>
    <linearGradient id="linear-gradient-10" x1="238.12" y1="98.21" x2="258.47" y2="98.21" xlink:href="#linear-gradient-8"/>
  </defs>
  <title>2</title>
  <g class="cls-1">
    <g id="Layer_1" data-name="Layer 1">
      <polygon class="cls-2" points="0.51 268.91 0.51 298.46 198.94 411.51 200.14 383.05 0.51 268.91"/>
      <polygon class="cls-3" points="398.57 292.73 401.57 266.77 199.72 383.56 198.94 411.51 398.57 292.73"/>
      <polygon class="cls-4" points="0 269.42 199.94 148 401.57 266.77 199.75 383.56 0 269.42"/>
      <path class="cls-5" d="M198.75,171.89c.43.75-.25,1.22-1,1.71-1.65,1.15-.28,2.83.62,3.59,3.93,3.32,10.91,5.28,17.44,9.15,10.32,6.13,20.52,14.81,26.63,17.69,13,6.1,32.42,6.41,35,3.64s-7-3.95-7-3.95a65.31,65.31,0,0,1,12.68,2.93c5.95,2.15,6.66-4.67,6.12-7.39s-6.76-6.22-6.76-6.22c6.73,2.59,20.16,4.14,29.94,1.23s-6.31-12.59.43-10-2.34-1.32,9,.27,6.42-4.21,8.19-7.42-4.43-4.91-6-7.6,7.46-2.42,7.46-2.42c6.14-5.57-5.77-9.88-1.91-11.32s-4.18-5.36-4.18-5.36c9.76-4.73-1.89-9.5-1.13-10.88s-4.69-4.45-4.69-4.45,13.18,2,7.67-8.32-20.49-11-19-13.7-3.65-4.47-3.65-4.47,8.21-5.61.91-12.74S288,92.58,288,92.58c-4.93-2.18-11.1-.24-11.1-.24s-.07-7.26-7.85-11.65-9.28,2-11.66-4.77S248,67,241.07,66.71s-.49,2.73-5.4,2.38-3.06,3.69-7.23.14-6.47-3-13.43-1.55-1,5.47-.95,9.1-2.55,2.77-7.71,2.87-2.51,8.23-2.51,8.23a12.88,12.88,0,0,0-12.94-4.29c-3.61,1,5.23,7.16,2.38,6.76a4.11,4.11,0,0,0-4.11,1.9s-8.07-7.56-17.32-3.74,7.37,16.2,7.37,16.2-14-9.72-18.58.36,29.88,21.67,22.89,19.53-8.51.62-10,3.38,8.54,3,4.48,10.35,20.2,7.78,16.36,11,2.66,8.13,7.6,12.12,8.54,2.68,5.41,4.1c-2.79,1.27-4.17,1.32-6.09.08a12.18,12.18,0,0,0-5.83-1.92C192.94,163.63,196.63,168.15,198.75,171.89Z" transform="translate(-52.94 -58.04)"/>
      <path class="cls-6" d="M198.86,177.29a7,7,0,0,0,5.73,7.44c4,.76,9.81,2,11.26,2.77,5.75,3.16,4.13,5.77,12.75,11.6,8.88,6,3.19,4.6,8.7,7.2,13,6.1,32.42,6.41,35,3.64s-7-3.95-7-3.95A64.47,64.47,0,0,1,278,208.92c5.95,2.15,6.66-4.68,6.12-7.39s-6.77-6.22-6.77-6.22c6.74,2.59,20.17,4.14,29.95,1.22s-6.31-12.59.43-10-2.34-1.31,9,.28,6.41-4.21,8.19-7.43-4.43-4.9-6-7.6,7.46-2.41,7.46-2.41c6.14-5.57-5.77-9.88-1.91-11.32s-4.18-5.37-4.18-5.37c9.76-4.73-1.89-9.49-1.13-10.87s-4.69-4.45-4.69-4.45,13.18,2,7.67-8.32-20.49-10.95-19-13.71-3.65-4.47-3.65-4.47,8.2-5.61.91-12.73-17.58-3.29-17.58-3.29c-4.92-2.17-11.1-.23-11.1-.23s-.06-7.27-7.84-11.65-9.28,2-11.66-4.77-9.37-8.9-16.34-9.21-.5,2.73-5.4,2.37-3.06,3.7-7.23.15-6.48-3.06-13.43-1.56-1,5.47-1,9.1-2.55,2.78-7.71,2.88-2.51,8.22-2.51,8.22a12.88,12.88,0,0,0-12.94-4.28c-3.61,1,5.22,7.16,2.38,6.76a4.09,4.09,0,0,0-4.11,1.9s-8.07-7.56-17.32-3.75S174,107,174,107s-14-9.71-18.58.37,29.88,21.66,22.89,19.53-8.51.62-10,3.38,8.54,3,4.48,10.35,20.2,7.78,16.36,11,2.66,8.12,7.6,12.11,8.3,6.11,5.17,7.53c-2.79,1.27.78,3.57-1.16,3.48C199.62,174.69,199,175.8,198.86,177.29Z" transform="translate(-52.94 -58.04)"/>
      <path class="cls-7" d="M208.89,178.23s8.65,3.91,9.28,5.79c1.16,3.48,5.51,5.17,11.59,9.28,7.48,5.06,7.5-1,12.15,1.2,10.05,4.74,25.15,5,27.13,2.83s-5.43-3.07-5.43-3.07a50.29,50.29,0,0,1,9.83,2.27c4.62,1.68,5.17-3.62,4.75-5.73s-5.25-4.82-5.25-4.82c5.23,2,15.65,3.21,23.24,1s-4.9-9.77.33-7.76-1.81-1,7,.22,5-3.27,6.35-5.77-3.44-3.8-4.66-5.89,5.79-1.88,5.79-1.88c4.77-4.32-4.47-7.66-1.48-8.78s-3.24-4.16-3.24-4.16c7.57-3.67-1.47-7.37-.88-8.44s-3.64-3.45-3.64-3.45,10.23,1.56,5.95-6.46-15.89-8.49-14.71-10.63-2.84-3.47-2.84-3.47,6.37-4.35.71-9.87S277.23,108,277.23,108c-3.82-1.69-8.61-.19-8.61-.19a11.26,11.26,0,0,0-6.09-9c-6-3.4-7.19,1.55-9-3.69s-7.27-6.91-12.68-7.15-.38,2.12-4.19,1.84-2.37,2.87-5.6.11-5-2.37-10.42-1.2-.77,4.24-.74,7.06-2,2.15-6,2.23-1.94,6.38-1.94,6.38a10,10,0,0,0-10-3.33c-2.8.76,4.05,5.56,1.85,5.25a3.17,3.17,0,0,0-3.19,1.47s-6.26-5.86-13.44-2.9,5.72,12.57,5.72,12.57-10.88-7.54-14.41.28,23.18,16.81,17.75,15.15-6.6.48-7.78,2.62,6.63,2.34,3.48,8,15.67,6,12.69,8.56-.66,5.65,3.17,8.74,0,3.42-1.16,5.8,8.12,3.48,7,5.8C212.53,174.43,207.6,175.21,208.89,178.23Z" transform="translate(-52.94 -58.04)"/>
      <path class="cls-5" d="M347.83,206.71c1.55-1.73,4.74-2.44,11.16.32,0,0,6.17-5.41,16.28,2.52,0,0,8.21-6.33,15.21,7.43,0,0,13.19,6.56,11.08,13.72,0,0,12.2,3.45,12.14,9.69s-7.21,7.66-12.28,4.58l-44.25-22.48a11.52,11.52,0,0,1-2.58-1.82l-3.76-3.46C347.15,213.81,345.74,209.07,347.83,206.71Z" transform="translate(-52.94 -58.04)"/>
      <path class="cls-6" d="M345.6,208c1.54-1.74,4.73-2.44,11.16.32,0,0,6.17-5.42,16.28,2.51,0,0,8.21-6.32,15.21,7.44,0,0,13.19,6.56,11.08,13.71,0,0,12.19,3.45,12.13,9.7s-7.2,7.65-12.27,4.58l-44.25-22.49a11.76,11.76,0,0,1-2.59-1.81l-3.75-3.47C344.91,215.09,343.51,210.35,345.6,208Z" transform="translate(-52.94 -58.04)"/>
      <path class="cls-5" d="M116.19,153.77c1.35-1.52,4.14-2.13,9.74.28,0,0,5.39-4.73,14.21,2.19,0,0,7.17-5.52,13.28,6.49,0,0,11.51,5.73,9.67,12,0,0,10.64,3,10.59,8.46s-6.29,6.68-10.71,4l-38.62-19.63a9.85,9.85,0,0,1-2.26-1.59l-3.28-3C115.59,160,114.36,155.83,116.19,153.77Z" transform="translate(-52.94 -58.04)"/>
      <path class="cls-6" d="M114.25,154.88c1.34-1.51,4.13-2.13,9.73.28,0,0,5.39-4.72,14.21,2.2,0,0,7.17-5.52,13.28,6.49,0,0,11.51,5.72,9.67,12,0,0,10.65,3,10.59,8.46s-6.29,6.68-10.71,4L122.4,168.65a9.81,9.81,0,0,1-2.26-1.58l-3.28-3C113.65,161.08,112.42,156.94,114.25,154.88Z" transform="translate(-52.94 -58.04)"/>
      <path class="cls-5" d="M335,164.74c1.15-1.3,3.54-1.82,8.34.24,0,0,4.62-4,12.18,1.88,0,0,6.15-4.73,11.38,5.56,0,0,9.87,4.91,8.29,10.27,0,0,9.12,2.58,9.08,7.25s-5.39,5.73-9.18,3.43L342,176.54a8.31,8.31,0,0,1-1.93-1.35l-2.81-2.6C334.48,170.05,333.43,166.51,335,164.74Z" transform="translate(-52.94 -58.04)"/>
      <path class="cls-6" d="M333.33,165.7c1.15-1.3,3.54-1.83,8.34.24,0,0,4.62-4.05,12.18,1.88,0,0,6.15-4.73,11.38,5.56,0,0,9.87,4.91,8.29,10.26,0,0,9.12,2.58,9.08,7.25s-5.39,5.73-9.18,3.43L340.31,177.5a8.67,8.67,0,0,1-1.93-1.36l-2.81-2.59C332.81,171,331.76,167.46,333.33,165.7Z" transform="translate(-52.94 -58.04)"/>
      <polygon class="cls-8" points="99.11 209.74 93.06 217.81 86.23 220.47 68.87 234.94 75.92 258.12 103.14 254.09 111.2 264.17 127.33 264.17 140.43 283.32 162.61 301.47 213 286.35 228.12 278.28 259.37 292.39 289.61 283.32 305.73 286.35 335.97 275.26 305.73 253.09 99.11 209.74"/>
      <polygon id="Volcano" class="cls-9" points="73.91 234.94 88.02 224.86 96.08 221.84 99.11 209.74 112.21 202.69 128.34 191.6 139.42 171.44 159.58 164.39 164.62 148.26 179.74 145.24 184.78 130.12 194.86 128.1 197.88 126.08 202.92 127.09 207.75 126.31 209.98 128.1 218.04 134.15 224.09 148.26 234.17 151.28 245.26 162.37 256.35 171.44 259.37 191.6 270.46 191.6 277.51 207.73 284.57 220.83 309.76 243 315.81 264.17 325.89 270.22 304.73 275.26 288.6 272.24 259.37 283.32 229.13 270.22 212 278.28 194.86 283.32 166.64 292.39 146.48 278.28 133.38 259.13 116.24 258.12 106.16 246.03 79.96 249.05 73.91 234.94"/>
      <polygon class="cls-10" points="194.86 136.16 199.9 136.16 186.8 152.29 181.76 164.39 171.68 176.48 171.68 198.66 155.55 219.82 144.46 247.04 133.38 259.13 116.24 259.13 135.39 240.99 136.4 228.89 150.51 212.77 150.51 200.67 159.58 192.61 166.55 172.8 176.72 162.37 175.71 152.29 185.79 144.23 190.83 129.11 194.86 136.16"/>
      <polygon class="cls-10" points="172.51 166.68 162.61 168.42 156.56 174.47 147.49 176.48 140.43 192.61 131.36 193.62 123.3 201.68 99.11 209.74 96.08 221.84 121.28 206.72 128.34 202.69 134.38 203.7 138.42 197.65 151.52 192.61 151.52 188.58 162.61 179.5 172.51 166.68"/>
      <polygon class="cls-10" points="143.46 194.62 141.44 200.67 136.4 205.71 134.38 211.76 128.34 213.78 125.31 221.84 119.27 223.85 116.24 228.89 106.16 233.93 105.15 247.04 116.24 259.13 116.24 244.01 129.34 238.97 134.38 224.86 150.51 212.77 148.5 201.68 147.49 198.66 160.59 192.61 151.52 192.61 143.46 194.62"/>
      <polygon class="cls-10" points="134.38 203.7 132.37 208.74 126.32 211.76 122.29 220.83 116.24 221.84 113.22 226.88 105.15 247.04 78.95 251.07 73.91 234.94 85 231.92 88.02 224.86 96.08 225.87 105.15 217.81 112.21 214.78 116.24 211.76 126.32 208.74 134.38 203.7"/>
      <polygon class="cls-10" points="141.44 174.47 128.34 191.6 132.37 190.59 136.4 188.58 139.24 189.76 139.42 186.56 143.46 181.52 146.48 173.46 159.58 169.43 143.46 171.44 141.44 174.47"/>
      <polygon class="cls-10" points="180.75 147.25 166.64 150.28 162.61 164.39 168.65 153.3 180.75 147.25"/>
      <polygon class="cls-10" points="194.86 129.11 185.79 131.12 182.76 140.2 184.78 140.2 180.75 145.24 187.81 139.19 185.79 138.18 186.8 133.14 194.86 129.11"/>
      <polygon class="cls-10" points="155.55 219.82 162.61 231.92 157.57 244.01 160.59 259.13 157.57 274.25 166.64 292.39 146.48 278.28 138.31 266.35 147.49 253.09 149.5 243 155.55 219.82"/>
      <polygon class="cls-11" points="203.86 280.68 207.96 262.16 201.92 247.04 204.94 221.84 201.92 209.74 194.86 180.51 202.92 166.4 199.9 152.29 199.9 136.16 205.95 139.19 209.98 135.16 209.98 152.29 217.03 157.33 219.05 172.45 223.08 180.51 231.15 201.68 231.15 214.78 241.23 230.91 237.19 245.02 259.37 283.32 229.13 270.22 212 278.28 203.86 280.68"/>
      <polygon class="cls-12" points="212 135.16 217.03 140.2 225.1 155.31 232.15 158.34 234.17 162.37 234.17 168.42 238.2 172.45 241.23 187.57 254.33 200.67 261.38 219.82 277.51 243 289.61 272.24 272.47 255.1 274.49 250.06 268.26 245.96 261.38 230.91 253.32 221.84 242.23 211.76 239.61 196.81 231.15 183.54 231.15 176.48 225.1 168.42 225.1 160.35 220.06 157.33 212 135.16"/>
      <polygon class="cls-13" points="289.61 272.24 280.54 258.12 275.5 256.11 276.5 250.06 269.45 244.01 263.4 229.9 245.26 211.76 242.23 195.63 233.16 182.53 233.16 176.48 227.11 168.42 227.11 160.35 221.07 156.32 212 135.16 220.06 157.33 225.1 160.35 225.1 168.42 231.15 178.5 231.15 183.54 239.63 196.96 242.23 211.76 261.38 230.91 268.44 246.03 274.49 250.06 272.47 255.1 289.61 272.24"/>
      <polygon class="cls-14" points="199.14 129.55 203.86 128.81 214.11 136.54 213.12 137.54 208.12 137.54 207.13 138.54 206.13 137.54 202.13 141.53 196.15 138.54 191.16 138.54 187.06 131.37 191.16 130.55 194.15 128.56 199.14 129.55"/>
      <path class="cls-15" d="M241.33,191.75s13.89-4.3,25.3,3.26l-.58.57h-5l-1,1-1-1-4,4-6-3h-5Z" transform="translate(-52.94 -58.04)"/>
      <g>
        <image class="cls-16" width="131" height="339" transform="translate(83.88 110.77)" xlink:href="21.png"/>
        <path class="cls-17" d="M249.08,179.61s4,10,3,14-9,9-8,11,3,4,3,6-3,5-3,7,2,4,1,5-4,2-5,4-5,1-6,3,0,6,1,8-4,2-5,5,4,8,4,11-13,8-15,13,3,16,5,18-3,9-7,10-5,10,2,15-9,23-9,29.94-9,8-8,13-50.9,28.95-50.9,28.95-4,1-4,2V492l7,4,2-108.79,11-5,42.92-24s-1-6,1-8,4-4,4-6-2-7,1-9a13.53,13.53,0,0,0,6-11c0-5,5-14,1-18s-4-7,0-11,6-10,4-13-6-10-4-15,16-10,15-13-8-10-4-13,4-6,3-8,6-5,6-6,5-3,5-5-2-6-1-7,3-5,2-7-3-4-2-5,8-7,8-9,1-8,1-8a3.1,3.1,0,0,0-1-2C254.08,183.6,249.08,179.61,249.08,179.61Z" transform="translate(-52.94 -58.04)"/>
      </g>
      <g>
        <image class="cls-16" width="198" height="156" transform="translate(12.88 110.77)" xlink:href="22.png"/>
        <path class="cls-18" d="M249.08,179.61h-1l-3,9s-6,4-7,6,0,4-2,6-2,2-3,4-7,3-8,6-3,7-3,10-9,5-10,6-6,9-5,16-8,5-9,9-8,3-10,6-7,1-10,5-7,7-11,7-10,5-10,6-6,1-13,6-3,8-9,10-14,10-14,10l-33.6,5L76.4,313.16l46.92-7.78s6-9,11-9,7-4,8-6,2-6,6-7,10-4,11-6,7-6,10-5,9-6,10-8,7-3,10-4,12-5,12-8,11-3,10-7,0-16,3-17,8-3,9-5,5-6,5-8-1-5,2-7,9-8,9-9,2-7,4-7,5-2,6-4a7.48,7.48,0,0,1,3-3Z" transform="translate(-52.94 -58.04)"/>
      </g>
      <g>
        <image class="cls-16" width="172" height="290" transform="translate(191.88 116.77)" xlink:href="23.png"/>
        <path class="cls-19" d="M255.07,185.6l.9.47a48.94,48.94,0,0,1,5.09,3.52c1,1,1,2,2,3s3,1,3,3,0,2,1,3a7.52,7.52,0,0,1,2,4c0,1,2,2,2,3s-1,3,1,4,3,3,4,4,7-1,8,1,0,7,1,7,5,2,5,3,0,4,2,5,1,4,2,5a3,3,0,0,1,0,4c-1,1,1,3,3,3s4,2,3,4,6,5,7,7-1,5,1,6,6,3,6,4-1,3,0,4,0,1,3,3,2,5,3,7,5,3,6,6,8,2,9,6,6,1,7,5-1,4-1,6,5,3,6,6-1,8,1,10,15,14,19,15a1,1,0,0,1,1,1v9l37.93,13v96.82l-5,3V356.28l-37.93-14v-10a1,1,0,0,0-1-1c-1,0-18-15-17-19s2-8,0-8-7-3-6-6,2-6,0-6a7.66,7.66,0,0,1-5-2c-1-1,0-4-2-4s-7,0-7-2-4-4-6-5,0-6-1-7-4-2-5-4,0-1-1-4-6-3-6-6,1-5,0-6-9-5-8-7-5-2-5-5,1-3,0-5,0-3-1-4-4-3-4-5,0-3-3-4-1-5-2-6-7,0-8-2-5-5-5-6,1-2,0-3-2-2-2-3-1-2-2-3,0-3-1-4-3-2-3-3-2-3-2-3l-3-2-2-1Z" transform="translate(-52.94 -58.04)"/>
      </g>
      <g>
        <image class="cls-16" width="30" height="91" transform="translate(16.88 303.77)" xlink:href="24.png"/>
        <polygon class="cls-20" points="27.99 313.98 35.45 318.34 35.45 378.23 27.46 383.22 27.99 313.98"/>
      </g>
      <g id="Tephra">
        <image class="cls-21" width="207" height="143" transform="translate(75.11)" xlink:href="25.png"/>
        <g>
          <path class="cls-22" d="M308.6,140.92c-1.83-.31-2.56,1.17-3.35.77s-4.78-2.41-5.26-1.43c-.24.48-.67.42-1.06.23a2.05,2.05,0,0,0,1.85.17c1.28-.58,2.63.72,2.63.72s1.59.8,1.35,1.29-1.59-.8-1.83-.31,1.35,1.3,1.11,1.79-1.28.58-1.53,1.08.32,1.38.32,1.38-.56-.89.48-1a8.55,8.55,0,0,0,2.32-.68l.48-1c.24-.49,1-.09,2.08-.18s1-.09,1.28-.59,2.39,1.21,2.63.72,1-.09,1.28-.59S312,142,313.55,141A2,2,0,0,0,312,142C311.55,143,310.44,141.23,308.6,140.92Z" transform="translate(-52.94 -58.04)"/>
          <path class="cls-23" d="M298.93,140.49a3.56,3.56,0,0,1-.78-.54A3.18,3.18,0,0,0,298.93,140.49Z" transform="translate(-52.94 -58.04)"/>
          <path class="cls-24" d="M249.6,105a26,26,0,0,0,3.36,3.15l2.5,1c1.25.5,1.06,1.33,2.12,2.65s1.06,1.33,2.31,1.83-.58,2.48.67,3,1.06,1.33,2.31,1.83,1.63-1.16,5.19,1.16a9,9,0,0,0-3.56-2.32c-2.5-1,.39-1.66-.47-3.81s-4.62-3.65-4.43-4.48,1.16-5-1.34-6c-1.21-.49-1.45-1-1.38-1.41-.15.52,0,1.28,1.18,2.23,2.31,1.83.68,3,.68,3s-.39,1.65-1.64,1.15.39-1.65-.86-2.15-1.64,1.16-2.89.66-2.31-1.83-3.56-2.33a5.13,5.13,0,0,0-2.68-.17A2.63,2.63,0,0,1,249.6,105Z" transform="translate(-52.94 -58.04)"/>
          <path class="cls-23" d="M247.11,104h0Z" transform="translate(-52.94 -58.04)"/>
          <path class="cls-23" d="M257.39,100.9a1.38,1.38,0,0,0-.51.75A1.54,1.54,0,0,1,257.39,100.9Z" transform="translate(-52.94 -58.04)"/>
          <path class="cls-23" d="M318.16,156.42c.11-.12-.11-.1-.47,0C317.92,156.5,318.09,156.51,318.16,156.42Z" transform="translate(-52.94 -58.04)"/>
          <path class="cls-23" d="M191.83,114.42a5.44,5.44,0,0,0-1.44-.06C189.59,114.47,190.35,114.42,191.83,114.42Z" transform="translate(-52.94 -58.04)"/>
          <path class="cls-25" d="M323.67,173c-.75-.47-.33,1.75-1.83.8s-1.86-.52-1.86-.52-.73.85-2.23-.1a6,6,0,0,0-2.61-1,14.2,14.2,0,0,1-2.61-1,2.56,2.56,0,0,0-2.58.33c-.36.42-1.11-.05-2.61-1s-1.86-.52-2.59.33-3-1.89-4.49-2.83-3.7.28-4.84-1.09-1.16-2.7,1-3.92,1.39-4.35,1.75-4.77,2.61,1,3.34.14,3.36,1.47,4.08.62,3.72,1,4.45.19,4.47,1.51,4.8-.23c.24-1.23,1.94-2.18,2.81-2.48-1-.23-3-1.33-3.61-.64-.72.85-2.61-1-4.47-1.52a3.53,3.53,0,0,0-3.31,1.18s-1.08,1.28-2.19,1.23-2.25-1.42-3.36-1.47-.73.85-1.84.81-2.25-1.42-3.36-1.47-1.47.38-1.08,1.27-1.48.38-2.59.33-1.11,0-1.83.81-3-.57-3.36-1.47-.78-1.8-.05-2.65,4.08.62,4.8-.23-.05-2.64.67-3.49,1.5.94,3.36,1.46a3.53,3.53,0,0,0,3.31-1.18s-3.33-.14-3.72-1-3-.57-3.72-1-2.59.33-4.83-1.09-7.71,3.63-7.37,1.89,3.67-1.61,4.37-3.78-1.92-3.16-1.58-4.91-1.5-2.27-1.55-3.57c7.84,2.09,12.93-.23,13.89-2.19s5.75.44,9.59-1.31,2.73-3.54,3.46-5,3.91.13,5.67-1.43a4.75,4.75,0,0,0,1.7-3.45c10.14-.42,5.29-4.71,5.29-4.71s.38,3.27-4.08,2.24-7,2-6.4,2.92-3.6,1.26-6.48,1-3.77,3.63-3.77,3.63a3.94,3.94,0,0,1-4.88,1.84c-3.42-1.12-4.7-.53-6,.05s-1.53,1.08-4.16.36-5.62,2.82-5.62,2.82h0a3.64,3.64,0,0,0-3.09.78c-1.45,1.7-7.8-1.66-8.19-2.56s5.17-.66,5.89-1.51-.78-1.79-.44-3.54S276,122,276,122s-7.75,1-6.61,2.35-.67,3.5-2.14,3.88-4.09-.62-4.81.23-4.81.23-5.89,1.51,2.27,2.74,1.19,4-2.23-.09-4.09-.61-3.33-.15-3.69.28-1.45,1.7-4.42,1.13-4.34,5.1-5.12,3.3.31-3.07-.46-4.86-3.39-2.79-4.16-4.59,4-2,3.61-4.25-3.77-3.68-4.55-5.48c-.51-1.19,2.57-2.42,4.69-3.11l.9,0c9.1-.33,4.53-11.24,2.14-12.44s-2.22-3.58-1-6-4.91-6.17-8.1-7.78-1.18-3.67-.52-7-7.79-6.39-11.05-9.87.76-7.61.76-7.61a28.89,28.89,0,0,0-5.12,2.33c-1.52,1.08-.27,6.63,2.67,8.73s7.79,6.39,6.27,7.46,3.39,7.25,4.74,8.54,4.54,2.91,5.4,5.19-3.11.27-1.93,3.94,8.89,8.18,3.46,9.12c-4.62.81-6.09,5.43-6.42,6.79a1.74,1.74,0,0,0-.24.36c-1.42,3-10,.89-10.69,1.74s.46,4.86,2,5.81-.7,2.17-2.89,3.4-1.37,5.67-2.51,4.3-.83-4.45-3.05-4.54-4.16-4.58-4.91-5.06-4.86-2.41-6.41-6c-1.07-2.48-7.91-2.69-11.2-2.69a15,15,0,0,1,6.78,3.82c1.89,1.84,1.94,4.49,6,6.43s3.46,6.75,3.46,6.75-4.08-.61-4.88-3.73-11.55-4-13.85-8.08-11.94-4.92-17.89-6.06-1.45,1.7-16.36-3.79-23.28,1.64-23.28,1.64c8.42-4.48,17.78.77,23,1.43s9.44,9.22,18.25,5.63,19.33,4.36,22.72,7.15.1,5.29.88,7.08,5.24,3.31,7.49,4.73,1.63,7.56,2.38,8,3.72,1,4.5,2.84-.29,4.39,4.57,6.8,3.78,3.69,4.19,5.91.77,1.79,2.27,2.74,2.67,3.64,1.94,4.49-1.81,2.12.83,4.44A6.67,6.67,0,0,1,226,174a38,38,0,0,0,9,9.8l9.78,7.16s11.09,4.3,16.23,2.32c1.33-.51-3.6-3.22,2.32-4.64,2-.47-5.32-2.94-3.83-4.18s8.25,2,10,.68c2.09-1.62,1.74-4.92,4.88-5a14.79,14.79,0,0,0,1.21.9c.77.45,2.18,0,3.72.88a14.47,14.47,0,0,0,5.25,1.78c1.08,0,2.62.88,4.16,1.77s4.17,1.78,5.57,1.32a7.13,7.13,0,0,1,3.26,0s-2-1.79-3.08-1.78-1.4.46-2.17,0-1.09,0-1.86-.44.32-.45-1.22-1.34-2.18,0-2.18,0a4.18,4.18,0,0,1-1.85-.44,4.21,4.21,0,0,0-1.86-.44,5.06,5.06,0,0,0-2-1.79c-1.54-.89-1.72.91-2.17,0a2.18,2.18,0,0,0-.86-.77c2.21-.95,2.07-3.35,5.73-4.67,1.16-.42,3.77,2.32,6,2.22,4.4-.19,8.95-2.88,9.18-2.82,1.86.52,6.28-.61,8.14-.09s3.3-1.18,4.42-1.13,4.1,1.94,4.47,1.51,2.58-.33,4.44.2a2.46,2.46,0,0,0,2.95-.76C324.06,173.86,323.67,173,323.67,173Z" transform="translate(-52.94 -58.04)"/>
          <path class="cls-23" d="M203.84,109.42a3,3,0,0,0-.59-1A3.33,3.33,0,0,1,203.84,109.42Z" transform="translate(-52.94 -58.04)"/>
          <path class="cls-23" d="M204.45,100.11h0Z" transform="translate(-52.94 -58.04)"/>
          <path class="cls-26" d="M184.09,97.67c2-.54,1.58,1.85,4.15,3.44s5.53.77,6.32,1.7,4.73,5.56,6.71,5a1.83,1.83,0,0,1,2,.54,4.22,4.22,0,0,0-2.77-1.47,3.86,3.86,0,0,1-3.35-2.51s-1.58-1.85-.59-2.12,1.58,1.85,2.57,1.58-.59-2.13.4-2.4,2.76.39,3.75.12a1.87,1.87,0,0,0,1.19-1.46c0,.13-.31,1.15-2,.53a26.55,26.55,0,0,0-4.54-1l-2,.54c-1,.27-1.78-.66-3.56-1.31s-1.78-.66-2.76-.39-2.37-2.78-3.36-2.51-1.78-.66-2.77-.39.59,2.13-3.17,2A6.78,6.78,0,0,0,184.09,97.67Z" transform="translate(-52.94 -58.04)"/>
        </g>
      </g>
    </g>
  </g>
</svg>
