<svg xmlns="http://www.w3.org/2000/svg" xmlns:xlink="http://www.w3.org/1999/xlink" viewBox="0 0 488.53 480.49">
  <defs>
    <style>
      .cls-1 {
        isolation: isolate;
      }

      .cls-2 {
        fill: #8c6239;
      }

      .cls-3 {
        fill: #754c24;
      }

      .cls-4 {
        fill: #344913;
      }

      .cls-5 {
        fill: #5b5b5b;
      }

      .cls-6 {
        fill: #939393;
      }

      .cls-7 {
        fill: #636363;
      }

      .cls-8 {
        fill: #211102;
      }

      .cls-9 {
        fill: #35170b;
      }

      .cls-10 {
        fill: #421f0d;
      }

      .cls-11 {
        fill: #2b120a;
      }

      .cls-12 {
        fill: #261006;
      }

      .cls-13 {
        fill: #2d1309;
      }

      .cls-14 {
        fill: url(#linear-gradient);
      }

      .cls-15 {
        fill: url(#linear-gradient-2);
      }

      .cls-16 {
        opacity: 0.75;
        mix-blend-mode: screen;
      }

      .cls-17 {
        fill: url(#linear-gradient-3);
      }

      .cls-18 {
        fill: url(#linear-gradient-4);
      }

      .cls-19 {
        fill: url(#linear-gradient-5);
      }

      .cls-20 {
        fill: url(#linear-gradient-6);
      }

      .cls-21 {
        opacity: 0.35;
        mix-blend-mode: multiply;
      }

      .cls-22 {
        fill: url(#linear-gradient-7);
      }

      .cls-23 {
        fill: #ff2400;
      }

      .cls-24 {
        fill: url(#linear-gradient-8);
      }

      .cls-25 {
        fill: url(#linear-gradient-9);
      }

      .cls-26 {
        fill: url(#linear-gradient-10);
      }
    </style>
    <linearGradient id="linear-gradient" x1="239.43" y1="164.84" x2="239.38" y2="190.59" gradientUnits="userSpaceOnUse">
      <stop offset="0" stop-color="#d43500"/>
      <stop offset="1" stop-color="#2a1c00"/>
    </linearGradient>
    <linearGradient id="linear-gradient-2" x1="245.53" y1="209.36" x2="245.98" y2="171.87" gradientUnits="userSpaceOnUse">
      <stop offset="0" stop-color="#ffb815"/>
      <stop offset="1" stop-color="#d40000"/>
    </linearGradient>
    <linearGradient id="linear-gradient-3" x1="192.63" y1="273.08" x2="202.88" y2="532.3" xlink:href="#linear-gradient-2"/>
    <linearGradient id="linear-gradient-4" x1="160.58" y1="255.35" x2="164.7" y2="359.55" xlink:href="#linear-gradient-2"/>
    <linearGradient id="linear-gradient-5" x1="315.19" y1="206.59" x2="328.1" y2="532.96" xlink:href="#linear-gradient-2"/>
    <linearGradient id="linear-gradient-6" x1="74.91" y1="307.12" x2="77.15" y2="363.7" xlink:href="#linear-gradient-2"/>
    <linearGradient id="linear-gradient-7" x1="343.53" y1="80.5" x2="359.11" y2="80.5" gradientTransform="matrix(1.11, 0.56, -0.35, 0.72, -47.48, -111.42)" gradientUnits="userSpaceOnUse">
      <stop offset="0" stop-color="#d40005"/>
      <stop offset="0.28" stop-color="#e6560c"/>
      <stop offset="0.52" stop-color="#f39911"/>
      <stop offset="0.69" stop-color="#fcc214"/>
      <stop offset="0.78" stop-color="#ffd215"/>
    </linearGradient>
    <linearGradient id="linear-gradient-8" x1="275" y1="66.6" x2="303.12" y2="66.6" gradientTransform="matrix(1.11, 0.56, -0.35, 0.72, -47.48, -111.42)" gradientUnits="userSpaceOnUse">
      <stop offset="0" stop-color="#d40005"/>
      <stop offset="0.36" stop-color="#e6560c"/>
      <stop offset="0.67" stop-color="#f39911"/>
      <stop offset="0.89" stop-color="#fcc214"/>
      <stop offset="1" stop-color="#ffd215"/>
    </linearGradient>
    <linearGradient id="linear-gradient-9" x1="263.41" y1="169.12" x2="362.27" y2="-29.31" gradientTransform="matrix(1.1, 0.48, -0.35, 0.75, -46.23, -95.34)" xlink:href="#linear-gradient-2"/>
    <linearGradient id="linear-gradient-10" x1="206.21" y1="101.61" x2="233.97" y2="101.61" xlink:href="#linear-gradient-8"/>
  </defs>
  <title>5</title>
  <g class="cls-1">
    <g id="Layer_1" data-name="Layer 1">
      <polygon class="cls-2" points="48.93 309.55 48.93 337.68 237.84 445.3 238.98 418.21 48.93 309.55"/>
      <polygon class="cls-3" points="427.88 332.22 430.73 307.52 238.58 418.69 237.84 445.3 427.88 332.22"/>
      <polygon class="cls-4" points="48.45 310.03 238.79 194.44 430.73 307.52 238.6 418.69 48.45 310.03"/>
      <path class="cls-5" d="M168.14,184.78c.58,1-.34,1.67-1.31,2.33-2.26,1.57-.39,3.85.85,4.9,5.36,4.52,14.88,7.2,23.78,12.48,14.07,8.35,28,20.2,36.32,24.12,17.68,8.32,44.22,8.75,47.71,5s-9.56-5.39-9.56-5.39a88.6,88.6,0,0,1,17.29,4c8.12,2.93,9.09-6.38,8.35-10.08s-9.23-8.49-9.23-8.49c9.18,3.54,27.51,5.66,40.84,1.68s-8.6-17.17.58-13.64-3.18-1.79,12.33.38,8.74-5.75,11.17-10.13-6.05-6.69-8.2-10.37,10.18-3.29,10.18-3.29c8.38-7.6-7.87-13.47-2.6-15.44s-5.7-7.31-5.7-7.31c13.31-6.46-2.59-13-1.55-14.84S333,134.6,333,134.6s18,2.74,10.46-11.36-27.94-14.93-25.87-18.69-5-6.09-5-6.09,11.19-7.65,1.25-17.37-24-4.48-24-4.48c-6.71-3-15.13-.32-15.13-.32s-.1-9.91-10.71-15.89-12.64,2.72-15.9-6.5-12.78-12.14-22.29-12.57-.67,3.73-7.36,3.24-4.17,5-9.85.2-8.84-4.16-18.32-2.12S189,50.11,189,55.06,185.54,58.85,178.5,59s-3.42,11.22-3.42,11.22a17.57,17.57,0,0,0-17.65-5.85c-4.91,1.34,7.13,9.77,3.25,9.23a5.58,5.58,0,0,0-5.6,2.59s-11-10.31-23.63-5.11,10.06,22.09,10.06,22.09-19.13-13.24-25.34.5,40.75,29.55,31.22,26.64-11.61.85-13.69,4.6S145.36,129,139.82,139s27.55,10.6,22.31,15,3.62,11.08,10.36,16.52,11.65,3.66,7.38,5.59c-3.8,1.73-5.68,1.81-8.3.12a16.59,16.59,0,0,0-7.95-2.62C160.22,173.51,165.24,179.68,168.14,184.78Z" transform="translate(-5.67 -29.51)"/>
      <path class="cls-6" d="M168.29,192.14a9.51,9.51,0,0,0,7.82,10.15c5.42,1,13.38,2.7,15.35,3.78,7.84,4.31,5.63,7.87,17.39,15.82,12.11,8.17,4.35,6.27,11.87,9.81,17.67,8.33,44.21,8.75,47.7,5s-9.55-5.39-9.55-5.39a88.42,88.42,0,0,1,17.28,4c8.12,2.93,9.09-6.38,8.35-10.08s-9.22-8.48-9.22-8.48c9.18,3.53,27.5,5.65,40.84,1.67s-8.61-17.17.58-13.64-3.19-1.79,12.32.38,8.75-5.75,11.17-10.13-6.05-6.69-8.19-10.37,10.18-3.29,10.18-3.29c8.37-7.6-7.87-13.47-2.61-15.43s-5.7-7.32-5.7-7.32c13.32-6.46-2.58-13-1.54-14.84s-6.39-6.06-6.39-6.06,18,2.74,10.45-11.36-27.94-14.93-25.86-18.69-5-6.09-5-6.09,11.2-7.65,1.25-17.36-24-4.49-24-4.49c-6.72-3-15.14-.32-15.14-.32s-.09-9.91-10.71-15.89-12.64,2.73-15.89-6.5-12.79-12.13-22.29-12.57-.67,3.73-7.36,3.25-4.18,5-9.86.19-8.83-4.16-18.32-2.12S181.91,53.2,182,58.15s-3.49,3.79-10.53,3.93S168,73.29,168,73.29a17.58,17.58,0,0,0-17.65-5.84c-4.92,1.33,7.13,9.76,3.25,9.22A5.59,5.59,0,0,0,148,79.26S137,69,124.38,74.15s10.06,22.1,10.06,22.1S115.31,83,109.1,96.74s40.75,29.55,31.22,26.64-11.61.85-13.68,4.6,11.65,4.11,6.11,14.13,27.55,10.6,22.31,15,3.62,11.08,10.36,16.52,11.32,8.33,7.06,10.26c-3.81,1.73,1.06,4.87-1.58,4.75C169.33,188.6,168.5,190.11,168.29,192.14Z" transform="translate(-5.67 -29.51)"/>
      <path class="cls-7" d="M182,193.42s11.79,5.34,12.65,7.91c1.58,4.74,7.52,7,15.82,12.65,10.19,6.9,10.22-1.35,16.56,1.64,13.71,6.46,34.31,6.79,37,3.85s-7.41-4.18-7.41-4.18a68.55,68.55,0,0,1,13.41,3.1c6.3,2.28,7.05-4.94,6.48-7.81s-7.16-6.59-7.16-6.59c7.12,2.74,21.34,4.39,31.69,1.3s-6.68-13.32.44-10.58S299,193.32,311,195s6.79-4.46,8.67-7.86-4.69-5.19-6.35-8,7.89-2.56,7.89-2.56c6.5-5.89-6.1-10.45-2-12s-4.42-5.68-4.42-5.68c10.33-5-2-10-1.2-11.5s-5-4.71-5-4.71,13.95,2.13,8.11-8.81-21.67-11.58-20.06-14.5-3.87-4.73-3.87-4.73,8.68-5.93,1-13.47-18.6-3.48-18.6-3.48c-5.21-2.3-11.74-.25-11.74-.25s-.07-7.68-8.31-12.33-9.81,2.12-12.33-5-9.92-9.41-17.3-9.75-.52,2.9-5.71,2.52-3.24,3.9-7.64.15-6.86-3.23-14.22-1.64-1,5.78-1,9.62-2.7,2.94-8.16,3-2.65,8.7-2.65,8.7a13.66,13.66,0,0,0-13.7-4.54c-3.81,1,5.53,7.58,2.52,7.16a4.34,4.34,0,0,0-4.35,2s-8.53-8-18.33-4,7.81,17.15,7.81,17.15-14.84-10.28-19.66.38,31.61,22.93,24.22,20.67-9,.66-10.62,3.57,9,3.19,4.74,11,21.38,8.23,17.31,11.67-.9,7.7,4.33,11.92,0,4.66-1.58,7.91,11.07,4.74,9.49,7.9C186.93,188.25,180.21,189.3,182,193.42Z" transform="translate(-5.67 -29.51)"/>
      <path class="cls-5" d="M361,228.88c3.12-3.52,9.57-4.94,22.57.64,0,0,12.48-11,32.94,5.09,0,0,16.61-12.8,30.78,15,0,0,26.67,13.27,22.41,27.75,0,0,24.67,7,24.55,19.62s-14.58,15.48-24.83,9.27l-89.53-45.5a23.8,23.8,0,0,1-5.23-3.67l-7.6-7C359.56,243.24,356.71,233.65,361,228.88Z" transform="translate(-5.67 -29.51)"/>
      <path class="cls-6" d="M356.43,231.46c3.12-3.52,9.58-4.94,22.58.64,0,0,12.47-10.95,32.93,5.09,0,0,16.62-12.8,30.78,15,0,0,26.67,13.27,22.41,27.76,0,0,24.67,7,24.55,19.61s-14.58,15.48-24.83,9.27l-89.53-45.5a23.8,23.8,0,0,1-5.23-3.67l-7.6-7C355,245.82,352.19,236.23,356.43,231.46Z" transform="translate(-5.67 -29.51)"/>
      <path class="cls-5" d="M11.34,132.83c2.72-3.07,8.36-4.31,19.71.57,0,0,10.9-9.57,28.77,4.44,0,0,14.52-11.18,26.89,13.13,0,0,23.3,11.6,19.57,24.25,0,0,21.55,6.09,21.45,17.13S115,205.87,106,200.45L27.84,160.7a20.29,20.29,0,0,1-4.57-3.2l-6.64-6.13C10.12,145.37,7.63,137,11.34,132.83Z" transform="translate(-5.67 -29.51)"/>
      <path class="cls-6" d="M7.39,135.08c2.73-3.06,8.37-4.31,19.72.57,0,0,10.9-9.57,28.77,4.44,0,0,14.51-11.18,26.88,13.14,0,0,23.3,11.59,19.58,24.24,0,0,21.55,6.09,21.44,17.13s-12.73,13.53-21.69,8.1L23.89,163a20.8,20.8,0,0,1-4.57-3.21l-6.64-6.12C6.18,147.63,3.69,139.25,7.39,135.08Z" transform="translate(-5.67 -29.51)"/>
      <path class="cls-5" d="M383.25,151.46c2.4-2.7,7.37-3.8,17.36.5,0,0,9.6-8.43,25.33,3.91,0,0,12.78-9.84,23.67,11.56,0,0,20.5,10.21,17.23,21.34,0,0,19,5.37,18.87,15.08S474.5,215.76,466.62,211l-68.84-35a18,18,0,0,1-4-2.83l-5.85-5.39C382.19,162.5,380,155.13,383.25,151.46Z" transform="translate(-5.67 -29.51)"/>
      <path class="cls-6" d="M379.78,153.44c2.4-2.7,7.36-3.79,17.36.5,0,0,9.59-8.42,25.33,3.91,0,0,12.77-9.84,23.66,11.57,0,0,20.51,10.2,17.23,21.34,0,0,19,5.36,18.88,15.08S471,217.74,463.15,213l-68.84-35a17.83,17.83,0,0,1-4-2.82l-5.85-5.39C378.71,164.48,376.52,157.11,379.78,153.44Z" transform="translate(-5.67 -29.51)"/>
      <polygon class="cls-8" points="140.15 254.8 134.45 262.4 128.02 264.92 111.65 278.56 118.3 300.41 143.95 296.61 151.56 306.12 166.76 306.12 179.11 324.17 200.02 341.27 247.53 327.02 261.78 319.42 291.24 332.72 319.75 324.17 334.95 327.02 363.45 316.57 334.95 295.66 140.15 254.8"/>
      <polygon id="Volcano" class="cls-9" points="116.4 278.56 129.7 269.06 137.3 266.21 140.15 254.8 152.51 248.15 167.71 237.7 178.16 218.69 197.17 212.04 201.92 196.84 216.17 193.99 220.92 179.74 230.42 177.84 233.28 175.94 238.03 176.88 242.57 176.15 244.68 177.84 252.28 183.54 257.98 196.84 267.48 199.69 277.94 210.14 288.39 218.69 291.24 237.7 301.69 237.7 308.34 252.9 314.99 265.26 338.75 286.16 344.45 306.12 353.95 311.82 334 316.57 318.8 313.72 291.24 324.17 262.73 311.82 246.58 319.42 230.42 324.17 203.82 332.72 184.81 319.42 172.46 301.36 156.31 300.41 146.81 289.01 122.1 291.86 116.4 278.56"/>
      <polygon class="cls-10" points="230.42 185.44 235.18 185.44 222.82 200.64 218.07 212.04 208.57 223.45 208.57 244.35 193.37 264.31 182.91 289.96 172.46 301.36 156.31 301.36 174.36 284.26 175.31 272.86 188.61 257.65 188.61 246.25 197.17 238.65 203.74 219.97 213.32 210.14 212.37 200.64 221.87 193.04 226.62 178.78 230.42 185.44"/>
      <polygon class="cls-10" points="209.36 214.21 200.02 215.84 194.32 221.54 185.76 223.45 179.11 238.65 170.56 239.6 162.96 247.2 140.15 254.8 137.3 266.21 161.06 251.95 167.71 248.15 173.41 249.1 177.21 243.4 189.56 238.65 189.56 234.85 200.02 226.3 209.36 214.21"/>
      <polygon class="cls-10" points="181.96 240.55 180.06 246.25 175.31 251 173.41 256.7 167.71 258.6 164.86 266.21 159.16 268.11 156.31 272.86 146.81 277.61 145.85 289.96 156.31 301.36 156.31 287.11 168.66 282.36 173.41 269.06 188.61 257.65 186.71 247.2 185.76 244.35 198.12 238.65 189.56 238.65 181.96 240.55"/>
      <polygon class="cls-10" points="173.41 249.1 171.51 253.85 165.81 256.7 162.01 265.26 156.31 266.21 153.46 270.96 145.85 289.96 121.15 293.76 116.4 278.56 126.85 275.71 129.7 269.06 137.3 270.01 145.85 262.4 152.51 259.55 156.31 256.7 165.81 253.85 173.41 249.1"/>
      <polygon class="cls-10" points="180.06 221.54 167.71 237.7 171.51 236.75 175.31 234.85 177.99 235.97 178.16 232.95 181.96 228.2 184.81 220.59 197.17 216.79 181.96 218.69 180.06 221.54"/>
      <polygon class="cls-10" points="217.12 195.89 203.82 198.74 200.02 212.04 205.72 201.59 217.12 195.89"/>
      <polygon class="cls-10" points="230.42 178.78 221.87 180.69 219.02 189.24 220.92 189.24 217.12 193.99 223.77 188.29 221.87 187.34 222.82 182.59 230.42 178.78"/>
      <polygon class="cls-10" points="193.37 264.31 200.02 275.71 195.27 287.11 198.12 301.36 195.27 315.62 203.82 332.72 184.81 319.42 177.12 308.17 185.76 295.66 187.66 286.16 193.37 264.31"/>
      <polygon class="cls-11" points="238.91 321.67 242.78 304.21 237.08 289.96 239.93 266.21 237.08 254.8 230.42 227.25 238.03 213.94 235.18 200.64 235.18 185.44 240.88 188.29 244.68 184.49 244.68 200.64 251.33 205.39 253.23 219.65 257.03 227.25 264.63 247.2 264.63 259.55 274.13 274.76 270.33 288.06 291.24 324.17 262.73 311.82 246.58 319.42 238.91 321.67"/>
      <polygon class="cls-12" points="246.58 184.49 251.33 189.24 258.93 203.49 265.58 206.34 267.48 210.14 267.48 215.84 271.28 219.65 274.13 233.9 286.49 246.25 293.14 264.31 308.34 286.16 319.75 313.72 303.59 297.56 305.49 292.81 299.62 288.94 293.14 274.76 285.54 266.21 275.08 256.7 272.61 242.61 264.63 230.1 264.63 223.45 258.93 215.84 258.93 208.24 254.18 205.39 246.58 184.49"/>
      <polygon class="cls-13" points="319.75 313.72 311.19 300.41 306.44 298.51 307.39 292.81 300.74 287.11 295.04 273.81 277.94 256.7 275.08 241.5 266.53 229.15 266.53 223.45 260.83 215.84 260.83 208.24 255.13 204.44 246.58 184.49 254.18 205.39 258.93 208.24 258.93 215.84 264.63 225.35 264.63 230.1 272.63 242.75 275.08 256.7 293.14 274.76 299.79 289.01 305.49 292.81 303.59 297.56 319.75 313.72"/>
      <polygon class="cls-14" points="238.03 176.88 242.52 176.18 252.28 183.54 251.33 184.49 246.58 184.49 245.63 185.44 244.68 184.49 240.88 188.29 235.18 185.44 230.42 185.44 226.52 178.62 230.42 177.84 233.28 175.94 238.03 176.88"/>
      <path class="cls-15" d="M233.46,210.35s13.22-4.09,24.08,3.1L257,214h-4.75l-.95.95-1-.95-3.8,3.8-5.7-2.85h-4.75Z" transform="translate(-5.67 -29.51)"/>
      <g>
        <image class="cls-16" width="123" height="321" transform="translate(128.33 159.49)" xlink:href="51.png"/>
        <path class="cls-17" d="M240.84,198.79s3.8,9.51,2.85,13.31-8.55,8.55-7.6,10.45,2.85,3.8,2.85,5.7-2.85,4.75-2.85,6.65,1.9,3.8.95,4.75-3.8,1.9-4.75,3.81-4.75.95-5.7,2.85,0,5.7.95,7.6-3.8,1.9-4.75,4.75,3.8,7.6,3.8,10.45-12.35,7.6-14.25,12.35,2.85,15.21,4.75,17.11-2.85,8.55-6.65,9.5-4.76,9.5,1.9,14.25-8.56,21.86-8.56,28.51-8.55,7.6-7.6,12.35-48.46,27.56-48.46,27.56-3.8.95-3.8,1.9V496.21l6.65,3.81,1.9-103.58,10.45-4.75,40.86-22.81s-.95-5.7.95-7.6,3.81-3.8,3.81-5.7-1.91-6.65,1-8.55a12.88,12.88,0,0,0,5.7-10.45c0-4.75,4.75-13.31.95-17.11s-3.8-6.65,0-10.45,5.7-9.5,3.8-12.35-5.7-9.5-3.8-14.26,15.2-9.5,14.25-12.35-7.6-9.5-3.8-12.35,3.8-5.7,2.85-7.6,5.7-4.75,5.7-5.7,4.75-2.86,4.75-4.76-1.9-5.7-.95-6.65,2.85-4.75,1.9-6.65-2.85-3.8-1.9-4.75,7.6-6.65,7.6-8.55,1-7.6,1-7.6a2.94,2.94,0,0,0-1-1.9C245.59,202.6,240.84,198.79,240.84,198.79Z" transform="translate(-5.67 -29.51)"/>
      </g>
      <g>
        <image class="cls-16" width="184" height="145" transform="translate(63.33 159.49)" xlink:href="52.png"/>
        <path class="cls-18" d="M240.84,198.79h-1L237,207.35s-5.7,3.8-6.65,5.7,0,3.8-1.9,5.7a10,10,0,0,0-2.85,3.8c-.95,1.9-6.65,2.85-7.6,5.7s-2.85,6.65-2.85,9.5-8.56,4.75-9.51,5.71-5.7,8.55-4.75,15.2-7.6,4.75-8.55,8.55-7.6,2.85-9.5,5.7-6.65.95-9.5,4.75-6.65,6.65-10.46,6.65-9.5,4.76-9.5,5.71-5.7,1-12.35,5.7-2.85,7.6-8.55,9.5-13.31,9.5-13.31,9.5l-31,4.12-10,6,42.91-6.32s5.71-8.55,10.46-8.55,6.65-3.8,7.6-5.7,1.9-5.7,5.7-6.65,9.5-3.8,10.45-5.7,6.65-5.7,9.5-4.75,8.56-5.71,9.51-7.61,6.65-2.85,9.5-3.8,11.4-4.75,11.4-7.6,10.45-2.85,9.5-6.65,0-15.2,2.85-16.15,7.61-2.86,8.56-4.76,4.75-5.7,4.75-7.6-.95-4.75,1.9-6.65,8.55-7.6,8.55-8.55,1.9-6.65,3.8-6.65,4.75-1.9,5.7-3.8a7.09,7.09,0,0,1,2.85-2.85Z" transform="translate(-5.67 -29.51)"/>
      </g>
      <g>
        <image class="cls-16" width="163" height="274" transform="translate(231.33 165.49)" xlink:href="53.png"/>
        <path class="cls-19" d="M246.54,204.5l.86.44a47.05,47.05,0,0,1,4.85,3.36c.95.95.95,1.9,1.9,2.85S257,212.1,257,214s0,1.9.95,2.85a7.2,7.2,0,0,1,1.9,3.8c0,.95,1.9,1.9,1.9,2.85s-.95,2.85.95,3.8,2.85,2.85,3.8,3.8,6.65-.95,7.6,1,0,6.65.95,6.65,4.75,1.9,4.75,2.85,0,3.81,1.9,4.76.95,3.8,1.9,4.75a2.89,2.89,0,0,1,0,3.8c-1,.95.95,2.85,2.85,2.85s3.8,1.9,2.85,3.8,5.71,4.75,6.66,6.65-.95,4.75,1,5.7,5.7,2.85,5.7,3.8-.95,2.85,0,3.8,0,1,2.85,2.85,1.9,4.76,2.85,6.66,4.75,2.85,5.7,5.7,7.6,1.9,8.55,5.7,5.7.95,6.65,4.75-.95,3.8-.95,5.7,4.75,2.85,5.7,5.7-.95,7.6,1,9.51,14.26,13.3,18.06,14.25a.93.93,0,0,1,.95,1v8.55L390,364.13v92.18l-4.75,2.85V367l-36.11-13.3v-9.5a.93.93,0,0,0-.95-.95c-1,0-17.11-14.25-16.16-18.06s1.9-7.6,0-7.6-6.65-2.85-5.7-5.7,1.9-5.7,0-5.7a7.26,7.26,0,0,1-4.75-1.9c-.95-.95,0-3.8-1.9-3.8s-6.65,0-6.65-1.9-3.8-3.8-5.7-4.75,0-5.7-.95-6.65-3.8-1.9-4.75-3.81,0-.95-1-3.8-5.7-2.85-5.7-5.7.95-4.75,0-5.7-8.56-4.75-7.61-6.65-4.75-1.9-4.75-4.75,1-2.85,0-4.75,0-2.85-.95-3.8-3.8-2.85-3.8-4.75,0-2.86-2.85-3.81-.95-4.75-1.9-5.7-6.65,0-7.6-1.9-4.75-4.75-4.75-5.7.95-1.9,0-2.85-1.9-1.9-1.9-2.85-.95-1.9-1.9-2.85,0-2.85-.95-3.8-2.85-1.9-2.85-2.85-1.9-2.85-1.9-2.85l-2.86-1.9-1.9-1Z" transform="translate(-5.67 -29.51)"/>
      </g>
      <g>
        <image class="cls-16" width="26" height="84" transform="translate(65.33 342.49)" xlink:href="54.png"/>
        <polygon class="cls-20" points="74.53 352.32 81.53 356.32 82.19 412.54 74.59 417.29 74.53 352.32"/>
      </g>
      <g id="Tephra">
        <image class="cls-21" width="282" height="195" transform="translate(65.84)" xlink:href="55.png"/>
        <g>
          <path class="cls-22" d="M318,142.54c-2.5-.42-3.49,1.6-4.58,1.05s-6.51-3.29-7.17-2c-.32.65-.92.57-1.44.32a2.79,2.79,0,0,0,2.52.23c1.75-.79,3.59,1,3.59,1s2.17,1.1,1.84,1.77-2.17-1.09-2.5-.42,1.84,1.77,1.51,2.44-1.74.79-2.07,1.46.42,1.9.42,1.9-.75-1.22.66-1.35a11.58,11.58,0,0,0,3.16-.92l.66-1.34c.33-.67,1.42-.12,2.84-.25s1.41-.12,1.74-.79,3.26,1.64,3.59,1,1.42-.13,1.75-.8-1.84-1.77.23-3.23a2.72,2.72,0,0,0-2.07,1.46C322,145.41,320.46,143,318,142.54Z" transform="translate(-5.67 -29.51)"/>
          <path class="cls-23" d="M304.77,142a4.85,4.85,0,0,1-1.06-.74A4.64,4.64,0,0,0,304.77,142Z" transform="translate(-5.67 -29.51)"/>
          <path class="cls-24" d="M237.49,93.6a36.35,36.35,0,0,0,4.59,4.3l3.41,1.36c1.7.68,1.44,1.8,2.88,3.61s1.45,1.81,3.15,2.49-.79,3.39.92,4.07,1.44,1.81,3.15,2.49,2.23-1.58,7.08,1.59a12.26,12.26,0,0,0-4.85-3.17c-3.41-1.36.52-2.26-.65-5.2s-6.3-5-6-6.1,1.58-6.78-1.83-8.14c-1.65-.65-2-1.36-1.88-1.92-.2.71,0,1.76,1.62,3,3.14,2.49.91,4.07.91,4.07s-.52,2.26-2.23,1.58.53-2.26-1.18-2.94-2.23,1.58-3.94.9-3.14-2.49-4.85-3.17a7,7,0,0,0-3.65-.24A3.58,3.58,0,0,1,237.49,93.6Z" transform="translate(-5.67 -29.51)"/>
          <path class="cls-23" d="M234.1,92.23h0Z" transform="translate(-5.67 -29.51)"/>
          <path class="cls-23" d="M248.12,88a1.92,1.92,0,0,0-.7,1A2.1,2.1,0,0,1,248.12,88Z" transform="translate(-5.67 -29.51)"/>
          <path class="cls-23" d="M331,163.69c.15-.17-.15-.15-.65,0C330.67,163.79,330.9,163.8,331,163.69Z" transform="translate(-5.67 -29.51)"/>
          <path class="cls-23" d="M158.7,106.41a6.56,6.56,0,0,0-2-.09C155.65,106.46,156.69,106.41,158.7,106.41Z" transform="translate(-5.67 -29.51)"/>
          <path class="cls-25" d="M338.51,186.24c-1-.65-.46,2.38-2.5,1.09s-2.54-.71-2.54-.71-1,1.16-3-.13a8,8,0,0,0-3.56-1.35,18.87,18.87,0,0,1-3.56-1.36,3.51,3.51,0,0,0-3.52.45c-.5.58-1.52-.07-3.56-1.35s-2.54-.71-3.53.44-4.09-2.57-6.13-3.86-5,.38-6.59-1.49-1.59-3.67,1.41-5.35,1.9-5.92,2.39-6.5,3.56,1.35,4.55.2,4.58,2,5.57.84,5.07,1.42,6.06.26,6.1,2.06,6.55-.32c.33-1.68,2.65-3,3.83-3.38-1.32-.32-4.12-1.81-4.92-.87-1,1.16-3.56-1.36-6.1-2.07s-4.51,1.61-4.51,1.61-1.48,1.74-3,1.67-3.07-1.93-4.58-2-1,1.16-2.51,1.1-3.06-1.94-4.58-2-2,.51-1.48,1.74-2,.51-3.52.45-1.52-.07-2.51,1.09-4-.78-4.58-2S287,160,288,158.83s5.57.84,6.56-.32-.07-3.6.91-4.76,2,1.29,4.58,2,4.52-1.61,4.52-1.61-4.55-.2-5.08-1.42-4.05-.78-5.08-1.42-3.52.45-6.59-1.49-10.5,5-10,2.57,5-2.18,6-5.15-2.6-4.31-2.15-6.7-2.05-3.08-2.11-4.86c10.69,2.85,17.63-.31,18.95-3s7.83.6,13.07-1.78,3.73-4.83,4.72-6.85,5.33.18,7.74-2a6.46,6.46,0,0,0,2.31-4.7c13.83-.57,7.22-6.42,7.22-6.42s.52,4.46-5.57,3.06-9.49,2.76-8.73,4-4.91,1.71-8.83,1.41-5.14,5-5.14,5a5.37,5.37,0,0,1-6.66,2.51c-4.67-1.52-6.42-.72-8.16.08s-2.08,1.46-5.67.49-7.66,3.84-7.66,3.84h0c-1.62-.14-3.33,0-4.22,1.06-2,2.32-10.64-2.26-11.17-3.49s7.05-.89,8-2.05-1.05-2.45-.6-4.83,4.44-5.22,4.44-5.22-10.57,1.35-9,3.22-.91,4.76-2.92,5.28-5.57-.84-6.56.31-6.55.32-8,2.06,3.1,3.74,1.62,5.48-3-.13-5.57-.84-4.55-.2-5,.38-2,2.32-6,1.54-5.92,7-7,4.51.42-4.19-.64-6.64-4.62-3.8-5.68-6.25,5.5-2.76,4.94-5.79-5.15-5-6.21-7.48c-.7-1.63,3.5-3.3,6.4-4.25l1.22-.05c12.41-.44,6.18-15.33,2.92-17s-3-4.88-1.37-8.24-6.71-8.41-11-10.6-1.61-5-.71-9.58-10.63-8.72-15.07-13.47,1-10.38,1-10.38a39.63,39.63,0,0,0-7,3.18c-2.08,1.47-.37,9,3.64,11.9s10.63,8.71,8.55,10.18,4.63,9.88,6.47,11.65,6.19,4,7.37,7.07-4.25.37-2.64,5.37,12.13,11.16,4.72,12.45c-6.3,1.1-8.3,7.39-8.76,9.25a3.74,3.74,0,0,0-.32.49c-1.94,4.12-13.6,1.22-14.59,2.38s.64,6.63,2.68,7.92-.95,3-3.95,4.64-1.86,7.73-3.41,5.86-1.13-6.06-4.16-6.19-5.68-6.25-6.7-6.89-6.63-3.29-8.74-8.19c-1.46-3.38-10.79-3.66-15.28-3.66,3.27.57,7.12,3.13,9.25,5.2,2.57,2.52,2.64,6.12,8.25,8.77s4.72,9.21,4.72,9.21-5.57-.84-6.66-5.09-15.75-5.49-18.89-11-16.29-6.7-24.39-8.26-2,2.32-22.31-5.16-31.76,2.24-31.76,2.24c11.49-6.12,24.25,1,31.33,1.95s12.87,12.56,24.89,7.68,26.36,5.94,31,9.74.14,7.21,1.2,9.66,7.16,4.52,10.22,6.45,2.22,10.31,3.25,10.95,5.07,1.42,6.13,3.87-.39,6,6.24,9.28,5.15,5,5.71,8.06,1.06,2.44,3.1,3.73,3.63,5,2.65,6.12-2.47,2.9,1.13,6.06a9.42,9.42,0,0,1,1.62,1.85,52.22,52.22,0,0,0,12.3,13.36L231,210.82s15.13,5.86,22.14,3.16c1.82-.7-4.9-4.39,3.17-6.33,2.68-.64-7.26-4-5.23-5.7s11.26,2.75,13.61.93c2.85-2.21,2.38-6.71,6.67-6.82a17.34,17.34,0,0,0,1.65,1.23c1.05.61,3,0,5.06,1.2a19.69,19.69,0,0,0,7.16,2.42c1.48,0,3.58,1.21,5.68,2.42s5.68,2.43,7.6,1.8a9.68,9.68,0,0,1,4.44,0s-2.72-2.44-4.2-2.43-1.91.63-3,0-1.48,0-2.54-.6.44-.62-1.66-1.84-3,0-3,0a5.78,5.78,0,0,1-2.53-.6,5.78,5.78,0,0,0-2.53-.6,7,7,0,0,0-2.72-2.44c-2.1-1.22-2.34,1.24-3,0a2.84,2.84,0,0,0-1.17-1.06c3-1.29,2.82-4.56,7.82-6.36,1.58-.57,5.13,3.16,8.21,3,6-.26,12.2-3.93,12.51-3.84,2.54.71,8.57-.83,11.1-.12s4.51-1.61,6-1.55,5.6,2.65,6.1,2.07,3.52-.45,6.06.26,3.52-.45,4-1S338.51,186.24,338.51,186.24Z" transform="translate(-5.67 -29.51)"/>
          <path class="cls-23" d="M175.08,99.58a4,4,0,0,0-.8-1.42A4.42,4.42,0,0,1,175.08,99.58Z" transform="translate(-5.67 -29.51)"/>
          <path class="cls-23" d="M175.91,86.89v0Z" transform="translate(-5.67 -29.51)"/>
          <path class="cls-26" d="M148.15,83.56c2.7-.74,2.15,2.53,5.65,4.69s7.55,1,8.63,2.31,6.45,7.6,9.15,6.86a2.48,2.48,0,0,1,2.7.74,5.63,5.63,0,0,0-3.78-2,5.28,5.28,0,0,1-4.57-3.43s-2.16-2.53-.81-2.9,2.16,2.54,3.51,2.17-.81-2.9.54-3.27,3.78.52,5.13.15a2.54,2.54,0,0,0,1.61-2c0,.18-.42,1.56-2.69.72a36.66,36.66,0,0,0-6.2-1.42l-2.7.73c-1.35.37-2.42-.89-4.85-1.79s-2.42-.89-3.77-.52-3.23-3.8-4.58-3.43-2.43-.89-3.78-.52.81,2.9-4.32,2.74A9.35,9.35,0,0,0,148.15,83.56Z" transform="translate(-5.67 -29.51)"/>
        </g>
      </g>
    </g>
  </g>
</svg>
