<svg xmlns="http://www.w3.org/2000/svg" xmlns:xlink="http://www.w3.org/1999/xlink" viewBox="0 0 488.53 481.45">
  <defs>
    <style>
      .cls-1 {
        isolation: isolate;
      }

      .cls-2 {
        fill: #8c6239;
      }

      .cls-3 {
        fill: #754c24;
      }

      .cls-4 {
        fill: #344913;
      }

      .cls-5 {
        fill: #5b5b5b;
      }

      .cls-6 {
        fill: #939393;
      }

      .cls-7 {
        fill: #636363;
      }

      .cls-8 {
        fill: #211102;
      }

      .cls-9 {
        fill: #35170b;
      }

      .cls-10 {
        fill: #421f0d;
      }

      .cls-11 {
        fill: #2b120a;
      }

      .cls-12 {
        fill: #261006;
      }

      .cls-13 {
        fill: #2d1309;
      }

      .cls-14 {
        fill: url(#linear-gradient);
      }

      .cls-15 {
        fill: url(#linear-gradient-2);
      }

      .cls-16 {
        opacity: 0.75;
        mix-blend-mode: screen;
      }

      .cls-17 {
        fill: url(#linear-gradient-3);
      }

      .cls-18 {
        fill: url(#linear-gradient-4);
      }

      .cls-19 {
        fill: url(#linear-gradient-5);
      }

      .cls-20 {
        fill: url(#linear-gradient-6);
      }

      .cls-21 {
        opacity: 0.35;
        mix-blend-mode: multiply;
      }

      .cls-22 {
        fill: url(#linear-gradient-7);
      }

      .cls-23 {
        fill: #ff2400;
      }

      .cls-24 {
        fill: url(#linear-gradient-8);
      }

      .cls-25 {
        fill: url(#linear-gradient-9);
      }

      .cls-26 {
        fill: url(#linear-gradient-10);
      }
    </style>
    <linearGradient id="linear-gradient" x1="239.43" y1="166.75" x2="239.38" y2="192.51" gradientUnits="userSpaceOnUse">
      <stop offset="0" stop-color="#d43500"/>
      <stop offset="1" stop-color="#2a1c00"/>
    </linearGradient>
    <linearGradient id="linear-gradient-2" x1="246.94" y1="208.31" x2="247.39" y2="170.83" gradientUnits="userSpaceOnUse">
      <stop offset="0" stop-color="#ffb815"/>
      <stop offset="1" stop-color="#d40000"/>
    </linearGradient>
    <linearGradient id="linear-gradient-3" x1="194.04" y1="272.03" x2="204.29" y2="531.26" xlink:href="#linear-gradient-2"/>
    <linearGradient id="linear-gradient-4" x1="161.99" y1="254.3" x2="166.1" y2="358.51" xlink:href="#linear-gradient-2"/>
    <linearGradient id="linear-gradient-5" x1="316.6" y1="205.54" x2="329.5" y2="531.91" xlink:href="#linear-gradient-2"/>
    <linearGradient id="linear-gradient-6" x1="75.19" y1="308.33" x2="77.46" y2="365.78" xlink:href="#linear-gradient-2"/>
    <linearGradient id="linear-gradient-7" x1="341.5" y1="78.4" x2="357.02" y2="78.4" gradientTransform="matrix(1.11, 0.56, -0.35, 0.72, -47.48, -111.42)" gradientUnits="userSpaceOnUse">
      <stop offset="0" stop-color="#d40005"/>
      <stop offset="0.28" stop-color="#e6560c"/>
      <stop offset="0.52" stop-color="#f39911"/>
      <stop offset="0.69" stop-color="#fcc214"/>
      <stop offset="0.78" stop-color="#ffd215"/>
    </linearGradient>
    <linearGradient id="linear-gradient-8" x1="273.25" y1="64.56" x2="301.26" y2="64.56" gradientTransform="matrix(1.11, 0.56, -0.35, 0.72, -47.48, -111.42)" gradientUnits="userSpaceOnUse">
      <stop offset="0" stop-color="#d40005"/>
      <stop offset="0.36" stop-color="#e6560c"/>
      <stop offset="0.67" stop-color="#f39911"/>
      <stop offset="0.89" stop-color="#fcc214"/>
      <stop offset="1" stop-color="#ffd215"/>
    </linearGradient>
    <linearGradient id="linear-gradient-9" x1="261.68" y1="166.61" x2="360.15" y2="-31.04" gradientTransform="matrix(1.1, 0.48, -0.35, 0.75, -46.23, -95.34)" xlink:href="#linear-gradient-2"/>
    <linearGradient id="linear-gradient-10" x1="204.74" y1="99.43" x2="232.38" y2="99.43" xlink:href="#linear-gradient-8"/>
  </defs>
  <title>7</title>
  <g class="cls-1">
    <g id="Layer_1" data-name="Layer 1">
      <polygon class="cls-2" points="48.93 311.46 48.93 339.6 237.84 447.22 238.98 420.12 48.93 311.46"/>
      <polygon class="cls-3" points="427.88 334.14 430.73 309.43 238.58 420.61 237.84 447.22 427.88 334.14"/>
      <polygon class="cls-4" points="48.45 311.95 238.79 196.36 430.73 309.43 238.6 420.61 48.45 311.95"/>
      <path class="cls-5" d="M170.19,180c.57,1-.34,1.66-1.31,2.32-2.25,1.56-.39,3.84.85,4.88,5.33,4.51,14.82,7.17,23.68,12.43,14,8.32,27.88,20.12,36.18,24,17.6,8.29,44,8.71,47.51,4.94s-9.51-5.36-9.51-5.36a87.79,87.79,0,0,1,17.21,4c8.09,2.92,9.06-6.35,8.32-10s-9.19-8.45-9.19-8.45c9.15,3.52,27.39,5.63,40.68,1.66s-8.57-17.1.58-13.58-3.18-1.78,12.27.38,8.71-5.72,11.12-10.09-6-6.67-8.15-10.32,10.13-3.29,10.13-3.29c8.35-7.56-7.83-13.41-2.59-15.37s-5.68-7.29-5.68-7.29c13.26-6.43-2.57-12.9-1.54-14.77s-6.36-6-6.36-6,17.9,2.73,10.41-11.31S317,103.78,319,100s-5-6.07-5-6.07,11.14-7.62,1.24-17.29-23.88-4.47-23.88-4.47c-6.69-2.95-15.08-.32-15.08-.32S276.27,62,265.7,56.06s-12.59,2.72-15.83-6.47-12.73-12.08-22.2-12.52-.67,3.72-7.33,3.23-4.17,5-9.82.2-8.8-4.15-18.25-2.11-1.33,7.43-1.29,12.36-3.47,3.77-10.48,3.91-3.4,11.17-3.4,11.17A17.51,17.51,0,0,0,159.52,60c-4.9,1.33,7.1,9.73,3.24,9.19a5.57,5.57,0,0,0-5.59,2.58s-11-10.27-23.53-5.09,10,22,10,22-19-13.2-25.24.5,40.59,29.42,31.09,26.53-11.56.84-13.63,4.58,11.61,4.09,6.09,14.07,27.44,10.56,22.23,15,3.6,11,10.31,16.45,11.61,3.65,7.36,5.58c-3.79,1.72-5.66,1.79-8.27.11a16.65,16.65,0,0,0-7.92-2.61C162.29,168.73,167.3,174.87,170.19,180Z" transform="translate(-7.08 -26.55)"/>
      <path class="cls-6" d="M170.33,187.28a9.48,9.48,0,0,0,7.79,10.11c5.4,1,13.33,2.69,15.29,3.77,7.81,4.28,5.61,7.83,17.33,15.75,12,8.14,4.33,6.25,11.81,9.78,17.61,8.28,44,8.71,47.51,4.94s-9.51-5.36-9.51-5.36a88.2,88.2,0,0,1,17.21,4c8.09,2.93,9.06-6.34,8.32-10s-9.19-8.45-9.19-8.45c9.15,3.52,27.4,5.63,40.68,1.66s-8.57-17.1.58-13.58-3.17-1.79,12.27.38,8.71-5.72,11.13-10.09-6-6.67-8.16-10.33,10.13-3.28,10.13-3.28c8.35-7.57-7.83-13.42-2.59-15.37s-5.68-7.29-5.68-7.29c13.27-6.43-2.57-12.9-1.53-14.77s-6.37-6.05-6.37-6.05,17.9,2.74,10.41-11.3S309.93,106.86,312,103.12s-5-6.07-5-6.07,11.15-7.62,1.24-17.29-23.88-4.47-23.88-4.47c-6.69-3-15.07-.32-15.07-.32s-.1-9.87-10.67-15.83-12.59,2.72-15.83-6.47-12.73-12.09-22.2-12.52-.67,3.72-7.33,3.23-4.16,5-9.82.2-8.8-4.15-18.25-2.11S183.9,48.9,184,53.83s-3.47,3.77-10.48,3.91-3.41,11.17-3.41,11.17a17.51,17.51,0,0,0-17.58-5.83c-4.89,1.33,7.1,9.73,3.24,9.19a5.55,5.55,0,0,0-5.58,2.58s-11-10.27-23.54-5.09,10,22,10,22-19.05-13.2-25.24.5,40.59,29.42,31.1,26.52-11.56.85-13.63,4.59,11.6,4.09,6.08,14.07,27.45,10.56,22.23,15,3.6,11,10.31,16.45,11.28,8.3,7,10.23c-3.79,1.72,1.05,4.84-1.58,4.72C171.36,183.76,170.55,185.26,170.33,187.28Z" transform="translate(-7.08 -26.55)"/>
      <path class="cls-7" d="M184,188.56s11.75,5.31,12.6,7.87c1.58,4.73,7.49,7,15.75,12.6,10.15,6.87,10.18-1.34,16.5,1.64,13.66,6.43,34.17,6.76,36.86,3.83s-7.38-4.16-7.38-4.16a68.36,68.36,0,0,1,13.35,3.09c6.28,2.27,7-4.93,6.46-7.79s-7.13-6.56-7.13-6.56c7.09,2.73,21.25,4.37,31.56,1.3s-6.65-13.27.45-10.54-2.46-1.39,9.52.29,6.76-4.44,8.63-7.83-4.67-5.17-6.33-8,7.86-2.54,7.86-2.54c6.48-5.87-6.07-10.41-2-11.93s-4.4-5.65-4.4-5.65c10.29-5-2-10-1.2-11.47s-4.93-4.68-4.93-4.68,13.89,2.12,8.07-8.78-21.59-11.54-20-14.44-3.85-4.71-3.85-4.71,8.65-5.91,1-13.42-18.52-3.46-18.52-3.46c-5.19-2.29-11.7-.25-11.7-.25s-.07-7.65-8.27-12.28-9.77,2.11-12.29-5-9.87-9.38-17.22-9.71-.52,2.88-5.69,2.5-3.23,3.9-7.61.15-6.83-3.21-14.16-1.63-1,5.76-1,9.59-2.69,2.92-8.13,3-2.64,8.67-2.64,8.67a13.59,13.59,0,0,0-13.64-4.52c-3.8,1,5.51,7.55,2.51,7.13a4.31,4.31,0,0,0-4.33,2s-8.51-8-18.26-4S162.14,106,162.14,106s-14.78-10.23-19.58.39,31.49,22.83,24.13,20.58-9,.66-10.58,3.56,9,3.17,4.73,10.91,21.28,8.2,17.24,11.63-.9,7.67,4.3,11.87.05,4.64-1.57,7.88,11,4.72,9.45,7.87C188.9,183.4,182.2,184.46,184,188.56Z" transform="translate(-7.08 -26.55)"/>
      <path class="cls-5" d="M362.36,227.83c3.12-3.51,9.57-4.94,22.57.65,0,0,12.48-11,32.94,5.09,0,0,16.61-12.8,30.78,15,0,0,26.67,13.28,22.41,27.76,0,0,24.67,7,24.54,19.61s-14.58,15.49-24.82,9.27l-89.53-45.5a23.15,23.15,0,0,1-5.23-3.67l-7.61-7C361,242.19,358.12,232.6,362.36,227.83Z" transform="translate(-7.08 -26.55)"/>
      <path class="cls-6" d="M357.84,230.41c3.12-3.51,9.58-4.94,22.57.65,0,0,12.48-11,32.94,5.09,0,0,16.62-12.8,30.78,15,0,0,26.67,13.28,22.41,27.76,0,0,24.67,7,24.55,19.61s-14.58,15.49-24.83,9.27l-89.53-45.5a23.15,23.15,0,0,1-5.23-3.67l-7.6-7C356.45,244.77,353.6,235.18,357.84,230.41Z" transform="translate(-7.08 -26.55)"/>
      <path class="cls-5" d="M12.74,131.78c2.73-3.07,8.37-4.31,19.72.57,0,0,10.9-9.57,28.77,4.44,0,0,14.52-11.18,26.89,13.14,0,0,23.29,11.59,19.57,24.24,0,0,21.55,6.09,21.44,17.13s-12.73,13.53-21.68,8.1l-78.2-39.74a20.34,20.34,0,0,1-4.57-3.21L18,150.33C11.53,144.33,9,136,12.74,131.78Z" transform="translate(-7.08 -26.55)"/>
      <path class="cls-6" d="M8.8,134c2.72-3.07,8.36-4.32,19.72.56,0,0,10.89-9.57,28.77,4.45,0,0,14.51-11.18,26.88,13.13,0,0,23.3,11.59,19.58,24.24,0,0,21.55,6.1,21.44,17.13s-12.74,13.53-21.69,8.1L25.3,161.91a20.85,20.85,0,0,1-4.57-3.2l-6.64-6.13C7.59,146.58,5.1,138.21,8.8,134Z" transform="translate(-7.08 -26.55)"/>
      <path class="cls-5" d="M384.66,150.41c2.4-2.7,7.37-3.8,17.36.5,0,0,9.59-8.42,25.33,3.91,0,0,12.77-9.84,23.66,11.56,0,0,20.51,10.21,17.23,21.35,0,0,19,5.36,18.88,15.08s-11.21,11.9-19.09,7.12l-68.84-35a17.83,17.83,0,0,1-4-2.82l-5.85-5.39C383.6,161.45,381.4,154.08,384.66,150.41Z" transform="translate(-7.08 -26.55)"/>
      <path class="cls-6" d="M381.19,152.4c2.4-2.71,7.36-3.8,17.36.49,0,0,9.59-8.42,25.32,3.92,0,0,12.78-9.85,23.67,11.56,0,0,20.51,10.2,17.23,21.34,0,0,19,5.36,18.88,15.08s-11.21,11.91-19.09,7.13l-68.84-35a18.11,18.11,0,0,1-4-2.82l-5.84-5.39C380.12,163.44,377.93,156.07,381.19,152.4Z" transform="translate(-7.08 -26.55)"/>
      <polygon class="cls-8" points="140.15 256.72 134.45 264.32 128.02 266.83 111.65 280.47 118.3 302.33 143.95 298.53 151.56 308.03 166.76 308.03 179.11 326.08 200.02 343.19 247.53 328.94 261.78 321.33 291.24 334.64 319.75 326.08 334.95 328.94 363.45 318.48 334.95 297.58 140.15 256.72"/>
      <polygon id="Volcano" class="cls-9" points="116.4 280.47 129.7 270.97 137.3 268.12 140.15 256.72 152.51 250.07 167.71 239.61 178.16 220.61 197.17 213.96 201.92 198.75 216.17 195.9 220.92 181.65 230.42 179.75 233.28 177.85 238.03 178.8 242.57 178.06 244.68 179.75 252.28 185.45 257.98 198.75 267.48 201.61 277.94 212.06 288.39 220.61 291.24 239.61 301.69 239.61 308.34 254.82 314.99 267.17 338.75 288.08 344.45 308.03 353.95 313.73 334 318.48 318.8 315.63 291.24 326.08 262.73 313.73 246.58 321.33 230.42 326.08 203.82 334.64 184.81 321.33 172.46 303.28 156.31 302.33 146.81 290.93 122.1 293.78 116.4 280.47"/>
      <polygon class="cls-10" points="230.42 187.35 235.18 187.35 222.82 202.56 218.07 213.96 208.57 225.36 208.57 246.27 193.37 266.22 182.91 291.88 172.46 303.28 156.31 303.28 174.36 286.18 175.31 274.77 188.61 259.57 188.61 248.17 197.17 240.56 203.74 221.89 213.32 212.06 212.37 202.56 221.87 194.95 226.62 180.7 230.42 187.35"/>
      <polygon class="cls-10" points="209.36 216.12 200.02 217.76 194.32 223.46 185.76 225.36 179.11 240.56 170.56 241.51 162.96 249.12 140.15 256.72 137.3 268.12 161.06 253.87 167.71 250.07 173.41 251.02 177.21 245.32 189.56 240.56 189.56 236.76 200.02 228.21 209.36 216.12"/>
      <polygon class="cls-10" points="181.96 242.47 180.06 248.17 175.31 252.92 173.41 258.62 167.71 260.52 164.86 268.12 159.16 270.02 156.31 274.77 146.81 279.52 145.85 291.88 156.31 303.28 156.31 289.03 168.66 284.27 173.41 270.97 188.61 259.57 186.71 249.12 185.76 246.27 198.12 240.56 189.56 240.56 181.96 242.47"/>
      <polygon class="cls-10" points="173.41 251.02 171.51 255.77 165.81 258.62 162.01 267.17 156.31 268.12 153.46 272.87 145.85 291.88 121.15 295.68 116.4 280.47 126.85 277.62 129.7 270.97 137.3 271.92 145.85 264.32 152.51 261.47 156.31 258.62 165.81 255.77 173.41 251.02"/>
      <polygon class="cls-10" points="180.06 223.46 167.71 239.61 171.51 238.66 175.31 236.76 177.99 237.88 178.16 234.86 181.96 230.11 184.81 222.51 197.17 218.71 181.96 220.61 180.06 223.46"/>
      <polygon class="cls-10" points="217.12 197.81 203.82 200.66 200.02 213.96 205.72 203.51 217.12 197.81"/>
      <polygon class="cls-10" points="230.42 180.7 221.87 182.6 219.02 191.15 220.92 191.15 217.12 195.9 223.77 190.2 221.87 189.25 222.82 184.5 230.42 180.7"/>
      <polygon class="cls-10" points="193.37 266.22 200.02 277.62 195.27 289.03 198.12 303.28 195.27 317.53 203.82 334.64 184.81 321.33 177.12 310.08 185.76 297.58 187.66 288.08 193.37 266.22"/>
      <polygon class="cls-11" points="238.91 323.59 242.78 306.13 237.08 291.88 239.93 268.12 237.08 256.72 230.42 229.16 238.03 215.86 235.18 202.56 235.18 187.35 240.88 190.2 244.68 186.4 244.68 202.56 251.33 207.31 253.23 221.56 257.03 229.16 264.63 249.12 264.63 261.47 274.13 276.67 270.33 289.98 291.24 326.08 262.73 313.73 246.58 321.33 238.91 323.59"/>
      <polygon class="cls-12" points="246.58 186.4 251.33 191.15 258.93 205.41 265.58 208.26 267.48 212.06 267.48 217.76 271.28 221.56 274.13 235.81 286.49 248.17 293.14 266.22 308.34 288.08 319.75 315.63 303.59 299.48 305.49 294.73 299.62 290.86 293.14 276.67 285.54 268.12 275.08 258.62 272.61 244.53 264.63 232.01 264.63 225.36 258.93 217.76 258.93 210.16 254.18 207.31 246.58 186.4"/>
      <polygon class="cls-13" points="319.75 315.63 311.19 302.33 306.44 300.43 307.39 294.73 300.74 289.03 295.04 275.72 277.94 258.62 275.08 243.41 266.53 231.06 266.53 225.36 260.83 217.76 260.83 210.16 255.13 206.36 246.58 186.4 254.18 207.31 258.93 210.16 258.93 217.76 264.63 227.26 264.63 232.01 272.63 244.67 275.08 258.62 293.14 276.67 299.79 290.93 305.49 294.73 303.59 299.48 319.75 315.63"/>
      <polygon class="cls-14" points="238.03 178.8 242.52 178.09 252.28 185.45 251.33 186.4 246.58 186.4 245.63 187.35 244.68 186.4 240.88 190.2 235.18 187.35 230.42 187.35 226.52 180.53 230.42 179.75 233.28 177.85 238.03 178.8"/>
      <path class="cls-15" d="M234.87,209.3s13.22-4.09,24.08,3.11l-.55.54h-4.75l-1,1-.95-1-3.8,3.8-5.7-2.85H237.5Z" transform="translate(-7.08 -26.55)"/>
      <g>
        <image class="cls-16" width="122" height="320" transform="translate(128.92 161.45)" xlink:href="71.png"/>
        <path class="cls-17" d="M242.25,197.75s3.8,9.5,2.85,13.3-8.55,8.55-7.6,10.45,2.85,3.8,2.85,5.7-2.85,4.76-2.85,6.66,1.9,3.8.95,4.75-3.8,1.9-4.75,3.8-4.75,1-5.7,2.85,0,5.7.95,7.6-3.8,1.9-4.75,4.75,3.8,7.6,3.8,10.45-12.36,7.61-14.26,12.36,2.85,15.2,4.76,17.1-2.86,8.55-6.66,9.5-4.75,9.51,1.9,14.26-8.55,21.85-8.55,28.5-8.55,7.61-7.6,12.36-48.46,27.55-48.46,27.55-3.8.95-3.8,1.9V495.17L152,499l1.9-103.58,10.45-4.75,40.86-22.8s-.95-5.7.95-7.6,3.8-3.8,3.8-5.71-1.9-6.65.95-8.55a12.88,12.88,0,0,0,5.7-10.45c0-4.75,4.76-13.3,1-17.1s-3.81-6.66,0-10.46,5.7-9.5,3.8-12.35-5.71-9.5-3.8-14.25,15.2-9.5,14.25-12.36-7.6-9.5-3.8-12.35,3.8-5.7,2.85-7.6,5.7-4.75,5.7-5.7,4.75-2.85,4.75-4.75-1.9-5.7-1-6.65,2.85-4.76,1.9-6.66-2.85-3.8-1.9-4.75S248,213.9,248,212s1-7.6,1-7.6a2.94,2.94,0,0,0-1-1.9C247,201.55,242.25,197.75,242.25,197.75Z" transform="translate(-7.08 -26.55)"/>
      </g>
      <g>
        <image class="cls-16" width="185" height="145" transform="translate(62.92 161.45)" xlink:href="72.png"/>
        <path class="cls-18" d="M242.25,197.75h-.95l-2.85,8.55s-5.7,3.8-6.65,5.7,0,3.8-1.9,5.7a10,10,0,0,0-2.85,3.8c-1,1.9-6.65,2.85-7.6,5.7s-2.86,6.66-2.86,9.51-8.55,4.75-9.5,5.7-5.7,8.55-4.75,15.2-7.6,4.75-8.55,8.55-7.6,2.85-9.5,5.71-6.65.95-9.5,4.75-6.66,6.65-10.46,6.65-9.5,4.75-9.5,5.7-5.7.95-12.35,5.7-2.85,7.6-8.55,9.5-13.31,9.51-13.31,9.51l-31,4.11-10,6,42.91-6.31s5.7-8.56,10.46-8.56,6.65-3.8,7.6-5.7,1.9-5.7,5.7-6.65,9.5-3.8,10.45-5.7,6.65-5.7,9.5-4.75,8.56-5.7,9.51-7.6,6.65-2.85,9.5-3.8,11.4-4.76,11.4-7.61,10.45-2.85,9.5-6.65,0-15.2,2.85-16.15,7.6-2.85,8.56-4.75,4.75-5.7,4.75-7.6-1-4.76,1.9-6.66,8.55-7.6,8.55-8.55,1.9-6.65,3.8-6.65,4.75-1.9,5.7-3.8a7.09,7.09,0,0,1,2.85-2.85Z" transform="translate(-7.08 -26.55)"/>
      </g>
      <g>
        <image class="cls-16" width="163" height="274" transform="translate(230.92 167.45)" xlink:href="73.png"/>
        <path class="cls-19" d="M248,203.45l.86.44a47.17,47.17,0,0,1,4.84,3.36c.95.95.95,1.9,1.9,2.85s2.85,1,2.85,2.85,0,1.9,1,2.85a7.15,7.15,0,0,1,1.91,3.8c0,1,1.9,1.9,1.9,2.85s-1,2.85.95,3.8,2.85,2.86,3.8,3.81,6.65-.95,7.6.95,0,6.65.95,6.65,4.75,1.9,4.75,2.85,0,3.8,1.9,4.75.95,3.8,1.9,4.75a2.89,2.89,0,0,1,0,3.8c-.95.95.95,2.85,2.85,2.85s3.8,1.9,2.85,3.8,5.7,4.75,6.65,6.65-.95,4.76.95,5.71,5.71,2.85,5.71,3.8-.95,2.85,0,3.8,0,.95,2.85,2.85,1.9,4.75,2.85,6.65,4.75,2.85,5.7,5.7,7.6,1.9,8.55,5.7,5.7.95,6.65,4.75-.95,3.8-.95,5.7,4.75,2.86,5.7,5.71-.95,7.6.95,9.5,14.26,13.3,18.06,14.25a.93.93,0,0,1,.95.95v8.55l36.11,12.36v92.17l-4.76,2.85V365.94l-36.1-13.31v-9.5a.93.93,0,0,0-.95-.95c-.95,0-17.11-14.25-16.16-18.05s1.9-7.6,0-7.6-6.65-2.85-5.7-5.71,1.9-5.7,0-5.7a7.26,7.26,0,0,1-4.75-1.9c-.95-1,0-3.8-1.9-3.8s-6.65,0-6.65-1.9-3.8-3.8-5.7-4.75,0-5.7-.95-6.65-3.8-1.9-4.75-3.8,0-.95-.95-3.8-5.71-2.85-5.71-5.7.95-4.76,0-5.71-8.55-4.75-7.6-6.65-4.75-1.9-4.75-4.75.95-2.85,0-4.75,0-2.85-.95-3.8-3.8-2.85-3.8-4.75,0-2.85-2.85-3.8-.95-4.75-1.9-5.7-6.65,0-7.6-1.9-4.75-4.76-4.75-5.71,1-1.9,0-2.85-1.9-1.9-1.9-2.85-1-1.9-1.91-2.85,0-2.85-.95-3.8-2.85-1.9-2.85-2.85-1.9-2.85-1.9-2.85l-2.85-1.9-1.9-.95Z" transform="translate(-7.08 -26.55)"/>
      </g>
      <g>
        <image class="cls-16" width="27" height="85" transform="translate(64.92 344.45)" xlink:href="74.png"/>
        <polygon class="cls-20" points="74.53 354.24 82.19 358.44 82.19 415.45 74.59 420.21 74.53 354.24"/>
      </g>
      <g id="Tephra">
        <image class="cls-21" width="280" height="195" transform="translate(64.47)" xlink:href="75.png"/>
        <g>
          <path class="cls-22" d="M316.41,139.88c-2.49-.42-3.48,1.59-4.56,1s-6.49-3.27-7.15-1.93c-.32.64-.91.56-1.44.31a2.86,2.86,0,0,0,2.52.23c1.74-.79,3.58,1,3.58,1s2.16,1.09,1.83,1.76-2.16-1.09-2.49-.42,1.83,1.76,1.5,2.43-1.74.79-2.07,1.46.43,1.88.43,1.88-.75-1.21.66-1.34a11.74,11.74,0,0,0,3.15-.91L313,144c.33-.67,1.41-.12,2.82-.25s1.42-.12,1.74-.79,3.25,1.64,3.58,1,1.41-.12,1.74-.79-1.84-1.76.23-3.22a2.72,2.72,0,0,0-2.07,1.46C320.41,142.73,318.9,140.31,316.41,139.88Z" transform="translate(-7.08 -26.55)"/>
          <path class="cls-23" d="M303.26,139.3a4.93,4.93,0,0,1-1.05-.74A4.73,4.73,0,0,0,303.26,139.3Z" transform="translate(-7.08 -26.55)"/>
          <path class="cls-24" d="M236.25,91.13a36.59,36.59,0,0,0,4.58,4.28l3.39,1.36c1.7.67,1.44,1.8,2.88,3.6s1.43,1.8,3.13,2.48-.78,3.37.92,4.05,1.43,1.8,3.13,2.48,2.22-1.57,7.06,1.58a12.25,12.25,0,0,0-4.84-3.15c-3.39-1.36.53-2.25-.65-5.18s-6.27-5-6-6.08,1.58-6.75-1.82-8.1c-1.64-.66-2-1.36-1.87-1.92-.2.71,0,1.75,1.61,3,3.13,2.48.91,4.05.91,4.05s-.52,2.25-2.22,1.57.52-2.25-1.18-2.92-2.22,1.57-3.92.89-3.14-2.48-4.83-3.15a7,7,0,0,0-3.64-.24A3.54,3.54,0,0,1,236.25,91.13Z" transform="translate(-7.08 -26.55)"/>
          <path class="cls-23" d="M232.88,89.77h0Z" transform="translate(-7.08 -26.55)"/>
          <path class="cls-23" d="M246.84,85.52a1.83,1.83,0,0,0-.69,1A2.06,2.06,0,0,1,246.84,85.52Z" transform="translate(-7.08 -26.55)"/>
          <path class="cls-23" d="M329.39,160.94c.15-.17-.15-.15-.64,0C329.06,161,329.3,161.05,329.39,160.94Z" transform="translate(-7.08 -26.55)"/>
          <path class="cls-23" d="M157.78,103.89a6.48,6.48,0,0,0-1.95-.08C154.74,104,155.78,103.89,157.78,103.89Z" transform="translate(-7.08 -26.55)"/>
          <path class="cls-25" d="M336.87,183.4c-1-.64-.45,2.37-2.49,1.09s-2.52-.71-2.52-.71-1,1.16-3-.13a8.12,8.12,0,0,0-3.55-1.35,18.6,18.6,0,0,1-3.55-1.35,3.5,3.5,0,0,0-3.51.45c-.49.58-1.5-.06-3.54-1.35s-2.53-.7-3.51.45-4.07-2.57-6.11-3.85-5,.38-6.56-1.48-1.59-3.66,1.4-5.33,1.89-5.9,2.38-6.48,3.55,1.35,4.53.2,4.57,2,5.55.84,5.05,1.41,6,.26,6.07,2.05,6.53-.32c.32-1.67,2.63-3,3.81-3.37-1.32-.31-4.11-1.8-4.9-.87-1,1.16-3.55-1.35-6.08-2s-4.49,1.6-4.49,1.6-1.47,1.73-3,1.67-3.06-1.93-4.57-2-1,1.16-2.49,1.09-3.05-1.92-4.56-2-2,.51-1.48,1.73-2,.52-3.51.45-1.51-.06-2.49,1.09-4-.77-4.56-2-1.06-2.44-.07-3.59,5.54.83,6.53-.32S293,152.2,294,151s2,1.29,4.56,2,4.49-1.6,4.49-1.6-4.52-.19-5.05-1.41-4-.78-5.06-1.42-3.51.45-6.56-1.48-10.46,4.94-10,2.56,5-2.18,5.93-5.13-2.6-4.3-2.15-6.67-2-3.07-2.1-4.85c10.65,2.85,17.56-.3,18.87-3s7.8.6,13-1.78,3.71-4.81,4.7-6.81,5.31.17,7.71-2a6.43,6.43,0,0,0,2.3-4.68c13.78-.57,7.19-6.39,7.19-6.39s.52,4.43-5.54,3-9.45,2.75-8.7,4-4.89,1.71-8.79,1.41-5.12,4.93-5.12,4.93a5.34,5.34,0,0,1-6.63,2.5c-4.66-1.51-6.4-.72-8.14.08s-2.06,1.46-5.64.49-7.63,3.83-7.63,3.83h0c-1.62-.14-3.32,0-4.2,1-2,2.31-10.6-2.25-11.13-3.47s7-.9,8-2.05-1-2.44-.6-4.81,4.43-5.2,4.43-5.2-10.53,1.34-9,3.2-.91,4.75-2.91,5.26-5.55-.83-6.53.32-6.53.32-8,2,3.09,3.72,1.61,5.45-3-.13-5.55-.83-4.52-.2-5,.38-2,2.31-6,1.54-5.89,6.92-6.95,4.48.42-4.17-.63-6.61-4.6-3.78-5.65-6.22,5.47-2.76,4.91-5.77-5.13-5-6.18-7.45c-.7-1.62,3.48-3.29,6.37-4.23l1.22,0c12.36-.45,6.15-15.27,2.9-16.91s-3-4.86-1.36-8.2-6.68-8.38-11-10.56-1.6-5-.71-9.55-10.58-8.68-15-13.41,1-10.34,1-10.34a39.05,39.05,0,0,0-7,3.17c-2.07,1.46-.37,9,3.63,11.85S207,60.45,204.9,61.91s4.61,9.84,6.45,11.6,6.16,3.95,7.33,7-4.23.37-2.63,5.35S228.14,97,220.76,98.3c-6.28,1.1-8.27,7.37-8.72,9.22a2.58,2.58,0,0,0-.32.49c-1.93,4.1-13.55,1.21-14.54,2.36s.64,6.61,2.67,7.9-.94,3-3.93,4.61-1.86,7.7-3.4,5.84-1.13-6-4.14-6.16-5.66-6.23-6.68-6.87-6.6-3.28-8.7-8.15c-1.46-3.37-10.75-3.65-15.22-3.65,3.26.57,7.1,3.12,9.21,5.18,2.57,2.51,2.64,6.1,8.22,8.73s4.71,9.18,4.71,9.18-5.55-.84-6.64-5.07-15.69-5.46-18.82-11-16.22-6.68-24.29-8.23-2,2.31-22.22-5.14-31.63,2.22-31.63,2.22c11.44-6.08,24.15,1,31.21,2s12.81,12.52,24.78,7.65,26.26,5.91,30.86,9.7.14,7.19,1.2,9.63,7.12,4.49,10.18,6.42,2.21,10.26,3.23,10.91,5.05,1.41,6.11,3.85-.39,6,6.21,9.24,5.13,5,5.69,8,1.05,2.44,3.09,3.73,3.62,4.94,2.63,6.09-2.45,2.89,1.13,6a9.38,9.38,0,0,1,1.62,1.84,51.94,51.94,0,0,0,12.24,13.31l13.29,9.72s15.06,5.84,22.05,3.15c1.81-.7-4.89-4.37,3.15-6.3,2.68-.64-7.22-4-5.21-5.68s11.21,2.74,13.56.92c2.84-2.19,2.37-6.68,6.64-6.78.62.47,1.19,1,1.64,1.22,1.05.61,2.95,0,5,1.2a19.72,19.72,0,0,0,7.14,2.4c1.47,0,3.56,1.21,5.66,2.42s5.66,2.41,7.56,1.79a9.75,9.75,0,0,1,4.42,0s-2.71-2.43-4.18-2.42-1.9.62-2.95,0-1.47,0-2.52-.6.43-.62-1.66-1.83-2.95,0-2.95,0a5.72,5.72,0,0,1-2.52-.6,5.86,5.86,0,0,0-2.53-.59,6.84,6.84,0,0,0-2.7-2.44c-2.1-1.21-2.34,1.24-2.95,0a2.82,2.82,0,0,0-1.17-1.05c3-1.28,2.81-4.54,7.79-6.34,1.57-.57,5.11,3.15,8.18,3,6-.25,12.15-3.91,12.46-3.83,2.53.71,8.53-.83,11.06-.12s4.49-1.6,6-1.53,5.58,2.63,6.07,2.05,3.51-.45,6,.26,3.51-.45,4-1S336.87,183.4,336.87,183.4Z" transform="translate(-7.08 -26.55)"/>
          <path class="cls-23" d="M174.1,97.09a4.07,4.07,0,0,0-.8-1.42A4.42,4.42,0,0,1,174.1,97.09Z" transform="translate(-7.08 -26.55)"/>
          <path class="cls-23" d="M174.93,84.45v0Z" transform="translate(-7.08 -26.55)"/>
          <path class="cls-26" d="M147.27,81.13c2.69-.74,2.14,2.52,5.63,4.67s7.52,1,8.59,2.31,6.43,7.56,9.12,6.82a2.5,2.5,0,0,1,2.69.74,5.7,5.7,0,0,0-3.76-2A5.25,5.25,0,0,1,165,90.26s-2.14-2.52-.8-2.89,2.14,2.52,3.49,2.16-.8-2.89.54-3.26,3.76.52,5.1.16a2.59,2.59,0,0,0,1.62-2c0,.18-.42,1.55-2.69.71a36.77,36.77,0,0,0-6.17-1.41l-2.69.74c-1.34.36-2.42-.9-4.83-1.79s-2.42-.89-3.76-.52-3.22-3.78-4.56-3.42-2.42-.89-3.76-.52.8,2.89-4.3,2.73A9.13,9.13,0,0,0,147.27,81.13Z" transform="translate(-7.08 -26.55)"/>
        </g>
      </g>
    </g>
  </g>
</svg>
