<svg xmlns="http://www.w3.org/2000/svg" xmlns:xlink="http://www.w3.org/1999/xlink" viewBox="0 0 664.32 641.42">
  <defs>
    <style>
      .cls-1 {
        isolation: isolate;
      }

      .cls-2 {
        fill: #5b5b5b;
      }

      .cls-3 {
        fill: #939393;
      }

      .cls-4 {
        fill: #636363;
      }

      .cls-5 {
        fill: #8c6239;
      }

      .cls-6 {
        fill: #754c24;
      }

      .cls-7 {
        fill: #344913;
      }

      .cls-8 {
        fill: #211102;
      }

      .cls-9 {
        fill: #35170b;
      }

      .cls-10 {
        fill: #421f0d;
      }

      .cls-11 {
        fill: #2b120a;
      }

      .cls-12 {
        fill: #261006;
      }

      .cls-13 {
        fill: #2d1309;
      }

      .cls-14 {
        fill: url(#linear-gradient);
      }

      .cls-15 {
        fill: url(#linear-gradient-2);
      }

      .cls-16 {
        opacity: 0.75;
        mix-blend-mode: screen;
      }

      .cls-17 {
        fill: url(#linear-gradient-3);
      }

      .cls-18 {
        fill: url(#linear-gradient-4);
      }

      .cls-19 {
        fill: url(#linear-gradient-5);
      }

      .cls-20 {
        fill: url(#linear-gradient-6);
      }

      .cls-21 {
        opacity: 0.35;
        mix-blend-mode: multiply;
      }

      .cls-22 {
        fill: url(#linear-gradient-7);
      }

      .cls-23 {
        fill: #ff2400;
      }

      .cls-24 {
        fill: url(#linear-gradient-8);
      }

      .cls-25 {
        fill: url(#linear-gradient-9);
      }

      .cls-26 {
        fill: url(#linear-gradient-10);
      }
    </style>
    <linearGradient id="linear-gradient" x1="331.88" y1="92.77" x2="331.8" y2="137.53" gradientUnits="userSpaceOnUse">
      <stop offset="0" stop-color="#d43500"/>
      <stop offset="1" stop-color="#2a1c00"/>
    </linearGradient>
    <linearGradient id="linear-gradient-2" x1="545.14" y1="376.57" x2="545.91" y2="311.43" gradientUnits="userSpaceOnUse">
      <stop offset="0" stop-color="#ffb815"/>
      <stop offset="1" stop-color="#d40000"/>
    </linearGradient>
    <linearGradient id="linear-gradient-3" x1="453.22" y1="487.3" x2="471.02" y2="937.78" xlink:href="#linear-gradient-2"/>
    <linearGradient id="linear-gradient-4" x1="390.88" y1="463.44" x2="397.85" y2="639.95" xlink:href="#linear-gradient-2"/>
    <linearGradient id="linear-gradient-5" x1="661.2" y1="372.76" x2="683.62" y2="939.92" xlink:href="#linear-gradient-2"/>
    <linearGradient id="linear-gradient-6" x1="46.81" y1="337" x2="50.76" y2="436.86" xlink:href="#linear-gradient-2"/>
    <linearGradient id="linear-gradient-7" x1="588.4" y1="268.82" x2="598.71" y2="268.82" gradientTransform="matrix(1.11, 0.56, -0.35, 0.72, 23.02, -194.1)" gradientUnits="userSpaceOnUse">
      <stop offset="0" stop-color="#d40005"/>
      <stop offset="0.28" stop-color="#e6560c"/>
      <stop offset="0.52" stop-color="#f39911"/>
      <stop offset="0.69" stop-color="#fcc214"/>
      <stop offset="0.78" stop-color="#ffd215"/>
    </linearGradient>
    <linearGradient id="linear-gradient-8" x1="543.08" y1="259.63" x2="561.68" y2="259.63" gradientTransform="matrix(1.11, 0.56, -0.35, 0.72, 23.02, -194.1)" gradientUnits="userSpaceOnUse">
      <stop offset="0" stop-color="#d40005"/>
      <stop offset="0.36" stop-color="#e6560c"/>
      <stop offset="0.67" stop-color="#f39911"/>
      <stop offset="0.89" stop-color="#fcc214"/>
      <stop offset="1" stop-color="#ffd215"/>
    </linearGradient>
    <linearGradient id="linear-gradient-9" x1="536.69" y1="330.77" x2="602.08" y2="199.53" gradientTransform="matrix(1.1, 0.48, -0.35, 0.75, 25.46, -162.68)" xlink:href="#linear-gradient-2"/>
    <linearGradient id="linear-gradient-10" x1="497.58" y1="282.79" x2="515.94" y2="282.79" xlink:href="#linear-gradient-8"/>
  </defs>
  <title>volcano</title>
  <g class="cls-1">
    <g id="Smoke">
      <path class="cls-2" d="M490.49,361c.39.67-.22,1.1-.86,1.54-1.5,1-.26,2.55.56,3.24,3.54,3,9.84,4.76,15.72,8.26,9.31,5.52,18.52,13.35,24,15.95,11.69,5.5,29.24,5.79,31.55,3.28s-6.32-3.56-6.32-3.56a58.61,58.61,0,0,1,11.43,2.64c5.37,1.95,6-4.21,5.53-6.66s-6.11-5.61-6.11-5.61c6.08,2.33,18.2,3.73,27,1.1s-5.69-11.35.38-9-2.11-1.18,8.15.25,5.79-3.8,7.39-6.7-4-4.42-5.42-6.85,6.73-2.18,6.73-2.18c5.54-5-5.2-8.91-1.72-10.21s-3.77-4.84-3.77-4.84c8.81-4.27-1.71-8.57-1-9.81s-4.23-4-4.23-4,11.89,1.81,6.92-7.51-18.48-9.88-17.11-12.36-3.3-4-3.3-4,7.41-5.06.83-11.48-15.86-3-15.86-3c-4.44-2-10-.21-10-.21s-.06-6.55-7.08-10.51-8.36,1.8-10.52-4.3-8.45-8-14.74-8.31-.44,2.47-4.87,2.14-2.76,3.34-6.51.13-5.85-2.75-12.12-1.4-.89,4.94-.86,8.21-2.3,2.5-7,2.6-2.26,7.41-2.26,7.41a11.6,11.6,0,0,0-11.67-3.86c-3.25.88,4.71,6.46,2.15,6.1a3.68,3.68,0,0,0-3.71,1.71s-7.28-6.82-15.63-3.38,6.65,14.62,6.65,14.62-12.65-8.77-16.75.33,26.95,19.54,20.64,17.61-7.67.56-9.05,3.05,7.71,2.71,4.05,9.34,18.22,7,14.75,9.95,2.4,7.33,6.85,10.92,7.71,2.43,4.89,3.71c-2.52,1.14-3.76,1.19-5.49.07a11,11,0,0,0-5.26-1.73C485.25,353.55,488.57,357.62,490.49,361Z" transform="translate(-212.5 -257.72)"/>
      <path class="cls-3" d="M490.59,365.87a6.3,6.3,0,0,0,5.17,6.71c3.58.69,8.85,1.79,10.15,2.5,5.19,2.85,3.73,5.2,11.51,10.46,8,5.41,2.87,4.15,7.85,6.49,11.69,5.51,29.24,5.79,31.55,3.29s-6.32-3.56-6.32-3.56a58.61,58.61,0,0,1,11.43,2.64c5.37,1.94,6-4.22,5.52-6.66s-6.1-5.62-6.1-5.62c6.07,2.34,18.19,3.74,27,1.11s-5.69-11.36.39-9-2.11-1.19,8.15.25,5.78-3.8,7.39-6.7-4-4.43-5.42-6.86,6.73-2.18,6.73-2.18c5.54-5-5.2-8.91-1.72-10.2s-3.77-4.85-3.77-4.85c8.8-4.27-1.71-8.56-1-9.81s-4.23-4-4.23-4,11.89,1.81,6.91-7.51-18.48-9.87-17.1-12.36-3.3-4-3.3-4,7.4-5.06.83-11.49-15.86-3-15.86-3c-4.44-2-10-.21-10-.21s-.06-6.56-7.08-10.51-8.37,1.8-10.52-4.3-8.45-8-14.74-8.31-.44,2.46-4.87,2.14-2.76,3.33-6.52.13-5.84-2.76-12.12-1.4-.88,4.93-.85,8.21-2.31,2.5-7,2.59-2.26,7.42-2.26,7.42a11.65,11.65,0,0,0-11.68-3.87c-3.25.89,4.72,6.46,2.15,6.1a3.67,3.67,0,0,0-3.7,1.72s-7.28-6.83-15.63-3.38,6.65,14.61,6.65,14.61-12.65-8.76-16.76.33,26.95,19.54,20.65,17.62-7.68.56-9,3,7.71,2.72,4,9.34,18.22,7,14.76,10,2.39,7.33,6.85,10.93,7.49,5.51,4.67,6.79c-2.52,1.14.7,3.22-1,3.14C491.27,363.53,490.73,364.52,490.59,365.87Z" transform="translate(-212.5 -257.72)"/>
      <path class="cls-4" d="M499.64,366.71s7.8,3.53,8.36,5.23c1.05,3.14,5,4.66,10.46,8.37,6.75,4.56,6.77-.89,11,1.09,9.07,4.27,22.69,4.48,24.48,2.54s-4.9-2.76-4.9-2.76a45.21,45.21,0,0,1,8.87,2.05c4.16,1.51,4.66-3.27,4.28-5.17s-4.73-4.36-4.73-4.36c4.71,1.82,14.11,2.9,21,.86s-4.42-8.81.29-7-1.63-.92,6.33.19,4.48-2.95,5.73-5.2-3.1-3.43-4.21-5.32,5.23-1.69,5.23-1.69c4.3-3.9-4-6.91-1.34-7.92s-2.92-3.75-2.92-3.75c6.83-3.32-1.33-6.65-.8-7.61s-3.28-3.12-3.28-3.12,9.23,1.41,5.37-5.82-14.34-7.67-13.27-9.59-2.56-3.13-2.56-3.13,5.74-3.93.64-8.91-12.3-2.3-12.3-2.3c-3.45-1.52-7.77-.17-7.77-.17a10.16,10.16,0,0,0-5.49-8.15c-5.45-3.07-6.49,1.4-8.16-3.34s-6.56-6.22-11.44-6.45-.34,1.92-3.78,1.67-2.14,2.58-5,.1-4.54-2.14-9.4-1.09-.69,3.83-.67,6.37-1.79,1.94-5.4,2-1.75,5.76-1.75,5.76a9,9,0,0,0-9.06-3c-2.52.68,3.66,5,1.67,4.73a2.87,2.87,0,0,0-2.88,1.33s-5.64-5.29-12.12-2.62,5.16,11.34,5.16,11.34-9.82-6.8-13,.25,20.91,15.16,16,13.67-6,.44-7,2.36,6,2.11,3.14,7.25,14.14,5.44,11.45,7.72-.6,5.09,2.86,7.88,0,3.09-1,5.23,7.32,3.14,6.27,5.23C502.92,363.29,498.47,364,499.64,366.71Z" transform="translate(-212.5 -257.72)"/>
    </g>
    <g id="Volcano">
      <polygon class="cls-5" points="0.84 344.24 0.84 393.13 329.12 580.14 331.09 533.06 0.84 344.24"/>
      <polygon class="cls-6" points="659.37 383.65 664.32 340.71 330.41 533.9 329.12 580.14 659.37 383.65"/>
      <polygon class="cls-7" points="0 345.08 330.77 144.21 664.32 340.71 330.44 533.9 0 345.08"/>
      <polygon class="cls-8" points="164.76 254.27 155.13 267.12 144.26 271.36 116.6 294.41 127.84 331.33 171.18 324.91 184.02 340.96 209.71 340.96 230.58 371.46 265.89 400.35 346.16 376.27 370.24 363.43 420 385.91 468.16 371.46 493.84 376.27 542 358.62 493.84 323.3 164.76 254.27"/>
      <polygon id="Volcano-2" data-name="Volcano" class="cls-9" points="124.63 294.41 147.1 278.35 159.95 273.54 164.76 254.27 185.63 243.04 211.31 225.38 228.97 193.27 261.08 182.04 269.1 156.35 293.18 151.54 301.21 127.46 317.26 124.25 322.08 121.04 330.1 122.64 337.78 121.4 341.34 124.25 354.18 133.88 363.81 156.35 379.87 161.17 397.52 178.83 415.18 193.27 420 225.38 437.66 225.38 448.89 251.06 460.13 271.93 500.26 307.25 509.89 340.96 525.95 350.59 492.24 358.62 466.55 353.8 420 371.46 371.84 350.59 344.55 363.43 317.26 371.46 272.31 385.91 240.21 363.43 219.34 332.93 192.05 331.33 176 312.06 134.26 316.88 124.63 294.41"/>
      <polygon class="cls-10" points="317.26 137.09 325.29 137.09 304.42 162.77 296.39 182.04 280.34 201.3 280.34 236.62 254.66 270.33 237 313.67 219.34 332.93 192.05 332.93 222.55 304.04 224.16 284.77 246.63 259.09 246.63 239.83 261.08 226.99 272.18 195.43 288.37 178.83 286.76 162.77 302.81 149.93 310.84 125.85 317.26 137.09"/>
      <polygon class="cls-10" points="281.67 185.69 265.89 188.46 256.26 198.09 241.81 201.3 230.58 226.99 216.13 228.59 203.29 241.43 164.76 254.27 159.95 273.54 200.08 249.46 211.31 243.04 220.95 244.64 227.37 235.01 248.24 226.99 248.24 220.56 265.89 206.12 281.67 185.69"/>
      <polygon class="cls-10" points="235.39 230.19 232.18 239.83 224.16 247.85 220.95 257.49 211.31 260.69 206.5 273.54 196.87 276.75 192.05 284.77 176 292.8 174.39 313.67 192.05 332.93 192.05 308.85 212.92 300.83 220.95 278.35 246.63 259.09 243.42 241.43 241.81 236.62 262.68 226.99 248.24 226.99 235.39 230.19"/>
      <polygon class="cls-10" points="220.95 244.64 217.74 252.67 208.1 257.49 201.68 271.93 192.05 273.54 187.24 281.56 174.39 313.67 132.66 320.09 124.63 294.41 142.29 289.59 147.1 278.35 159.95 279.96 174.39 267.12 185.63 262.3 192.05 257.49 208.1 252.67 220.95 244.64"/>
      <polygon class="cls-10" points="232.18 198.09 211.31 225.38 217.74 223.77 224.16 220.56 228.68 222.45 228.97 217.35 235.39 209.33 240.21 196.49 261.08 190.06 235.39 193.27 232.18 198.09"/>
      <polygon class="cls-10" points="294.79 154.75 272.31 159.56 265.89 182.04 275.52 164.38 294.79 154.75"/>
      <polygon class="cls-10" points="317.26 125.85 302.81 129.06 298 143.51 301.21 143.51 294.79 151.54 306.02 141.91 302.81 140.3 304.42 132.27 317.26 125.85"/>
      <polygon class="cls-10" points="254.66 270.33 265.89 289.59 257.87 308.85 262.68 332.93 257.87 357.01 272.31 385.91 240.21 363.43 227.21 344.43 241.81 323.3 245.02 307.25 254.66 270.33"/>
      <polygon class="cls-11" points="331.6 367.24 338.13 337.75 328.5 313.67 333.31 273.54 328.5 254.27 317.26 207.72 330.1 185.25 325.29 162.77 325.29 137.09 334.92 141.91 341.34 135.49 341.34 162.77 352.58 170.8 355.79 194.88 362.21 207.72 375.05 241.43 375.05 262.3 391.1 287.99 384.68 310.46 420 371.46 371.84 350.59 344.55 363.43 331.6 367.24"/>
      <polygon class="cls-12" points="344.55 135.49 352.58 143.51 365.42 167.59 376.66 172.41 379.87 178.83 379.87 188.46 386.29 194.88 391.1 218.96 411.97 239.83 423.21 270.33 448.89 307.25 468.16 353.8 440.87 326.51 444.08 318.49 434.16 311.95 423.21 287.99 410.37 273.54 392.71 257.49 388.52 233.68 375.05 212.54 375.05 201.3 365.42 188.46 365.42 175.62 357.39 170.8 344.55 135.49"/>
      <polygon class="cls-13" points="468.16 353.8 453.71 331.33 445.68 328.12 447.29 318.49 436.05 308.85 426.42 286.38 397.52 257.49 392.71 231.8 378.26 210.93 378.26 201.3 368.63 188.46 368.63 175.62 359 169.19 344.55 135.49 357.39 170.8 365.42 175.62 365.42 188.46 375.05 204.51 375.05 212.54 388.57 233.92 392.71 257.49 423.21 287.99 434.45 312.06 444.08 318.49 440.87 326.51 468.16 353.8"/>
      <polygon class="cls-14" points="329.44 113.7 337.25 112.48 354.21 125.26 352.56 126.92 344.3 126.92 342.65 128.57 341 126.92 334.4 133.52 324.49 128.57 316.23 128.57 309.45 116.71 316.23 115.36 321.19 112.05 329.44 113.7"/>
      <path class="cls-15" d="M524.16,378.3s23-7.12,41.85,5.39l-1,.95h-8.25l-1.66,1.65-1.65-1.65-6.6,6.6L537,386.29h-8.26Z" transform="translate(-212.5 -257.72)"/>
      <g>
        <image class="cls-16" width="215" height="558" transform="translate(138.65 83.42)" xlink:href="volcano1.png"/>
        <path class="cls-17" d="M537,358.22s6.61,16.51,5,23.12-14.86,14.86-13.21,18.16,5,6.61,5,9.91-5,8.25-5,11.56,3.31,6.6,1.66,8.25-6.61,3.31-8.26,6.61-8.26,1.65-9.91,4.95,0,9.91,1.65,13.21-6.6,3.3-8.25,8.26,6.6,13.21,6.6,18.16-21.46,13.21-24.77,21.47,5,26.42,8.26,29.72-4.95,14.86-11.56,16.51-8.26,16.52,3.3,24.77-14.86,38-14.86,49.54-14.86,13.21-13.21,21.47-84.21,47.88-84.21,47.88-6.61,1.65-6.61,3.3v180l11.56,6.61,3.3-180,18.17-8.26,71-39.63s-1.65-9.9,1.65-13.21,6.61-6.6,6.61-9.9-3.3-11.56,1.65-14.87a22.39,22.39,0,0,0,9.91-18.16c0-8.26,8.25-23.12,1.65-29.72s-6.61-11.56,0-18.17,9.91-16.51,6.6-21.46-9.9-16.51-6.6-24.77,26.42-16.51,24.77-21.47-13.21-16.51-6.61-21.46,6.61-9.91,5-13.21,9.9-8.26,9.9-9.91,8.26-5,8.26-8.26-3.3-9.9-1.65-11.56,4.95-8.25,3.3-11.55-5-6.61-3.3-8.26S546.9,386.29,546.9,383s1.65-13.21,1.65-13.21a5.11,5.11,0,0,0-1.65-3.3C545.25,364.82,537,358.22,537,358.22Z" transform="translate(-212.5 -257.72)"/>
      </g>
      <g>
        <image class="cls-16" width="321" height="249" transform="translate(18.85 92.63)" xlink:href="volcano2.png"/>
        <path class="cls-18" d="M530,367.52h-1.65L523.44,382s-9.91,6.45-11.57,9.67,0,6.45-3.3,9.67-3.3,3.22-5,6.44-11.56,4.84-13.21,9.67-5,11.28-5,16.11-14.86,8.06-16.52,9.67S459,457.75,460.66,469s-13.21,8.06-14.86,14.5-13.22,4.84-16.52,9.67-11.57,1.61-16.52,8.06-11.57,11.28-18.17,11.28-16.52,8.05-16.52,9.66-9.91,1.62-21.48,9.67-4.95,12.89-14.86,16.12S318.6,564.1,318.6,564.1l-50,4.39L248,581.28l73.9-10.74s9.91-14.5,18.17-14.5,11.57-6.44,13.22-9.67,3.3-9.66,9.91-11.27,16.52-6.45,18.17-9.67,11.56-9.67,16.52-8.06,14.87-9.67,16.52-12.89S426,499.65,430.93,498s19.82-8.06,19.82-12.89,18.17-4.84,16.52-11.28,0-25.78,5-27.4,13.21-4.83,14.86-8.05,8.26-9.67,8.26-12.89-1.65-8.06,3.31-11.28,14.87-12.89,14.87-14.5,3.3-11.28,6.6-11.28,8.26-3.22,9.91-6.45a12.26,12.26,0,0,1,5-4.83Z" transform="translate(-212.5 -257.72)"/>
      </g>
      <g>
        <image class="cls-16" width="285" height="477" transform="translate(311.65 94.42)" xlink:href="volcano3.png"/>
        <path class="cls-19" d="M541.9,369.13l1.49.77s6.76,4.18,8.42,5.83,1.65,3.3,3.3,5,4.95,1.65,4.95,4.95,0,3.3,1.65,4.95,3.31,5,3.31,6.61,3.3,3.3,3.3,4.95-1.65,5,1.65,6.61,4.95,4.95,6.6,6.6,11.56-1.65,13.21,1.65,0,11.56,1.66,11.56,8.25,3.3,8.25,5,0,6.6,3.3,8.25,1.66,6.61,3.31,8.26a5,5,0,0,1,0,6.6c-1.65,1.65,1.65,5,5,5s6.61,3.3,5,6.6,9.91,8.26,11.56,11.56-1.65,8.26,1.65,9.91,9.91,4.95,9.91,6.6-1.65,5,0,6.61,0,1.65,5,4.95,3.3,8.26,5,11.56,8.26,5,9.91,9.91,13.21,3.3,14.86,9.91,9.91,1.65,11.56,8.25-1.65,6.61-1.65,9.91,8.25,5,9.9,9.91-1.65,13.21,1.65,16.51,24.77,23.12,31.38,24.77a1.62,1.62,0,0,1,1.65,1.65v14.86l62.75,21.47V806.71L783,811.66V651.49l-62.75-23.12V611.86a1.62,1.62,0,0,0-1.65-1.65c-1.65,0-29.72-24.77-28.07-31.37s3.3-13.21,0-13.21-11.56-5-9.91-9.91,3.31-9.91,0-9.91a12.6,12.6,0,0,1-8.25-3.3c-1.65-1.65,0-6.61-3.31-6.61s-11.55,0-11.55-3.3-6.61-6.6-9.91-8.26,0-9.9-1.65-11.55-6.61-3.31-8.26-6.61,0-1.65-1.65-6.6-9.91-5-9.91-9.91,1.65-8.26,0-9.91-14.86-8.26-13.21-11.56-8.25-3.3-8.25-8.25,1.65-5,0-8.26,0-4.95-1.66-6.61-6.6-4.95-6.6-8.25,0-5-4.95-6.61-1.66-8.25-3.31-9.9-11.56,0-13.21-3.31-8.25-8.25-8.25-9.9,1.65-3.31,0-5-3.31-3.3-3.31-4.95-1.65-3.3-3.3-5,0-4.95-1.65-6.6-4.95-3.3-4.95-4.95-3.31-5-3.31-5l-4.95-3.3-3.3-1.65Z" transform="translate(-212.5 -257.72)"/>
      </g>
      <g>
        <image class="cls-16" width="51" height="150" transform="translate(25.65 399.42)" xlink:href="volcano4.png"/>
        <polygon class="cls-20" points="42.56 416.92 59.41 426.29 58.64 523.22 45.43 531.47 42.56 416.92"/>
      </g>
    </g>
    <g id="Burst">
      <g id="Tephra">
        <image class="cls-21" width="187" height="130" transform="translate(214.22)" xlink:href="volcano5.png"/>
        <g>
          <path class="cls-22" d="M589.58,333.06c-1.65-.28-2.31,1.06-3,.69s-4.31-2.17-4.75-1.28c-.21.43-.6.38-.95.21a1.89,1.89,0,0,0,1.67.15c1.15-.53,2.37.64,2.37.64s1.44.73,1.22,1.17-1.44-.72-1.66-.28,1.22,1.17,1,1.62-1.15.52-1.37,1,.28,1.25.28,1.25-.5-.81.44-.89a7.65,7.65,0,0,0,2.09-.61l.44-.89c.22-.44.93-.08,1.87-.16s.94-.08,1.16-.53,2.15,1.09,2.37.64.94-.08,1.15-.52-1.21-1.17.16-2.14a1.79,1.79,0,0,0-1.37,1C592.24,335,591.24,333.34,589.58,333.06Z" transform="translate(-212.5 -257.72)"/>
          <path class="cls-23" d="M580.86,332.68a3.61,3.61,0,0,1-.71-.49A3.2,3.2,0,0,0,580.86,332.68Z" transform="translate(-212.5 -257.72)"/>
          <path class="cls-24" d="M536.36,300.69a23.6,23.6,0,0,0,3,2.84l2.26.9c1.13.45,1,1.2,1.91,2.39s1,1.2,2.08,1.65-.52,2.24.61,2.69,1,1.2,2.08,1.65,1.47-1.05,4.68,1.05a8.07,8.07,0,0,0-3.21-2.1c-2.25-.9.35-1.49-.43-3.43s-4.16-3.3-4-4,1-4.48-1.21-5.38c-1.09-.44-1.31-.91-1.24-1.27-.14.47,0,1.16,1.06,2,2.09,1.65.61,2.69.61,2.69s-.35,1.5-1.47,1.05.34-1.5-.79-1.95-1.47,1.05-2.6.6-2.08-1.65-3.21-2.1a4.6,4.6,0,0,0-2.41-.15A2.36,2.36,0,0,1,536.36,300.69Z" transform="translate(-212.5 -257.72)"/>
          <path class="cls-23" d="M534.12,299.79h0Z" transform="translate(-212.5 -257.72)"/>
          <path class="cls-23" d="M543.39,297a1.24,1.24,0,0,0-.46.68A1.39,1.39,0,0,1,543.39,297Z" transform="translate(-212.5 -257.72)"/>
          <path class="cls-23" d="M598.21,347.05c.09-.12-.1-.1-.43,0C598,347.12,598.14,347.12,598.21,347.05Z" transform="translate(-212.5 -257.72)"/>
          <path class="cls-23" d="M484.25,309.16a4.43,4.43,0,0,0-1.3-.05C482.23,309.2,482.92,309.16,484.25,309.16Z" transform="translate(-212.5 -257.72)"/>
          <path class="cls-25" d="M603.18,362c-.68-.42-.31,1.58-1.66.73s-1.68-.47-1.68-.47-.65.76-2-.09a5.42,5.42,0,0,0-2.36-.9,12.85,12.85,0,0,1-2.35-.89,2.31,2.31,0,0,0-2.33.29c-.33.39-1,0-2.36-.89s-1.68-.47-2.33.3-2.7-1.71-4.05-2.56-3.34.25-4.36-1-1.05-2.42.93-3.53,1.26-3.92,1.58-4.3,2.36.89,3,.13,3,1.32,3.68.55,3.36.94,4,.17,4,1.37,4.34-.21c.21-1.11,1.75-2,2.53-2.23-.87-.21-2.73-1.2-3.26-.58s-2.35-.89-4-1.36a3.17,3.17,0,0,0-3,1.06s-1,1.15-2,1.11-2-1.28-3-1.33-.66.77-1.66.73-2-1.28-3-1.33-1.33.34-1,1.15-1.33.34-2.33.3-1,0-1.65.72-2.69-.51-3-1.32-.69-1.62,0-2.38,3.68.55,4.33-.21,0-2.39.61-3.16,1.35.86,3,1.33a3.17,3.17,0,0,0,3-1.07s-3-.13-3.35-.94-2.68-.51-3.36-.94-2.33.3-4.36-1-6.95,3.28-6.64,1.7,3.31-1.44,3.94-3.4-1.73-2.86-1.43-4.44-1.35-2-1.39-3.22c7.07,1.89,11.66-.2,12.53-2s5.18.4,8.64-1.18,2.47-3.19,3.12-4.53,3.53.12,5.12-1.29a4.26,4.26,0,0,0,1.53-3.11c9.15-.38,4.78-4.25,4.78-4.25s.34,2.95-3.69,2-6.27,1.83-5.77,2.63-3.25,1.14-5.84.94-3.4,3.27-3.4,3.27a3.55,3.55,0,0,1-4.4,1.67c-3.09-1-4.25-.48-5.4,0s-1.38,1-3.75.33-5.07,2.54-5.07,2.54h0a3.31,3.31,0,0,0-2.79.7c-1.3,1.53-7-1.5-7.39-2.31s4.66-.59,5.32-1.36-.7-1.62-.4-3.19S560.2,316,560.2,316s-7,.89-6,2.13-.61,3.15-1.94,3.49-3.68-.56-4.33.21-4.34.21-5.32,1.36,2.05,2.47,1.08,3.62-2-.08-3.69-.55-3-.13-3.33.25-1.31,1.53-4,1-3.91,4.6-4.61,3,.28-2.77-.42-4.39-3.06-2.51-3.76-4.13,3.64-1.83,3.27-3.84-3.41-3.32-4.11-4.94c-.46-1.08,2.31-2.19,4.23-2.81l.81,0c8.21-.29,4.09-10.13,1.93-11.22s-2-3.23-.91-5.45-4.43-5.56-7.3-7-1.07-3.31-.48-6.34-7-5.76-10-8.91.69-6.86.69-6.86a25.61,25.61,0,0,0-4.62,2.1c-1.38,1-.25,6,2.4,7.87s7,5.76,5.66,6.74,3.06,6.53,4.28,7.7,4.09,2.62,4.87,4.68-2.81.24-1.75,3.55,8,7.38,3.13,8.23c-4.17.73-5.49,4.89-5.79,6.12a2.37,2.37,0,0,0-.22.33c-1.28,2.72-9,.8-9.65,1.57s.42,4.39,1.77,5.24-.62,2-2.61,3.07-1.23,5.11-2.26,3.87-.74-4-2.75-4.09-3.75-4.14-4.43-4.56-4.38-2.18-5.78-5.42c-1-2.23-7.14-2.42-10.1-2.42a13.49,13.49,0,0,1,6.11,3.44c1.71,1.67,1.75,4,5.46,5.8s3.12,6.1,3.12,6.1-3.68-.56-4.4-3.37-10.42-3.63-12.5-7.29-10.77-4.44-16.13-5.47-1.31,1.54-14.76-3.41-21,1.48-21,1.48c7.6-4.05,16,.69,20.72,1.29s8.51,8.31,16.46,5.07,17.44,3.93,20.49,6.45.1,4.77.8,6.39,4.73,3,6.76,4.27,1.47,6.81,2.15,7.24,3.35.94,4.05,2.56-.25,4,4.13,6.14,3.4,3.32,3.78,5.32.7,1.62,2.05,2.48,2.4,3.28,1.75,4-1.63,1.92.74,4a6.31,6.31,0,0,1,1.08,1.22,34.61,34.61,0,0,0,8.13,8.84l8.82,6.46s10,3.88,14.65,2.09c1.2-.46-3.25-2.9,2.09-4.18,1.78-.43-4.8-2.65-3.46-3.77s7.45,1.81,9,.61c1.89-1.46,1.57-4.44,4.41-4.51a11.12,11.12,0,0,0,1.09.81c.7.41,2,0,3.35.8a13.3,13.3,0,0,0,4.74,1.6c1,0,2.37.79,3.76,1.6s3.75,1.6,5,1.19a6.37,6.37,0,0,1,2.94,0s-1.8-1.61-2.78-1.61-1.27.42-2,0-1,0-1.67-.39.28-.41-1.11-1.22-2,0-2,0a3.88,3.88,0,0,1-1.67-.4,3.94,3.94,0,0,0-1.68-.4,4.6,4.6,0,0,0-1.79-1.61c-1.39-.81-1.55.82-2,0a1.86,1.86,0,0,0-.78-.7c2-.85,1.87-3,5.17-4.21,1-.38,3.4,2.09,5.43,2,4-.17,8.08-2.6,8.28-2.54,1.68.47,5.66-.55,7.34-.08s3-1.07,4-1,3.71,1.75,4,1.36,2.33-.29,4,.18a2.23,2.23,0,0,0,2.66-.68C603.53,362.77,603.18,362,603.18,362Z" transform="translate(-212.5 -257.72)"/>
          <path class="cls-23" d="M495.08,304.64a2.59,2.59,0,0,0-.53-.94A2.83,2.83,0,0,1,495.08,304.64Z" transform="translate(-212.5 -257.72)"/>
          <path class="cls-23" d="M495.63,296.25h0Z" transform="translate(-212.5 -257.72)"/>
          <path class="cls-26" d="M477.27,294.05c1.78-.49,1.42,1.67,3.74,3.1s5,.7,5.7,1.53,4.27,5,6.06,4.53a1.65,1.65,0,0,1,1.78.49,3.73,3.73,0,0,0-2.5-1.32,3.49,3.49,0,0,1-3-2.27s-1.43-1.67-.54-1.92,1.43,1.68,2.32,1.43-.53-1.92.36-2.16,2.5.35,3.39.1a1.69,1.69,0,0,0,1.07-1.31c0,.12-.28,1-1.78.48a23.64,23.64,0,0,0-4.1-.94l-1.79.49c-.89.24-1.6-.6-3.2-1.19s-1.61-.59-2.5-.35-2.14-2.51-3-2.26-1.6-.6-2.5-.35.54,1.92-2.85,1.81A6.06,6.06,0,0,0,477.27,294.05Z" transform="translate(-212.5 -257.72)"/>
        </g>
      </g>
    </g>
    <g id="Clouds">
      <path class="cls-2" d="M667.44,394.79c2.09-2.35,6.41-3.3,15.11.44,0,0,8.35-7.34,22.05,3.4,0,0,11.12-8.57,20.6,10.07,0,0,17.85,8.88,15,18.57,0,0,16.51,4.67,16.43,13.13s-9.76,10.37-16.62,6.21l-59.92-30.46a15.48,15.48,0,0,1-3.5-2.45L671.5,409C666.51,404.4,664.6,398,667.44,394.79Z" transform="translate(-212.5 -257.72)"/>
      <path class="cls-3" d="M664.42,396.52c2.09-2.35,6.41-3.31,15.11.43,0,0,8.35-7.33,22.05,3.41,0,0,11.12-8.57,20.6,10.06,0,0,17.85,8.89,15,18.58,0,0,16.51,4.67,16.43,13.13s-9.76,10.36-16.62,6.2l-59.92-30.45a15.58,15.58,0,0,1-3.51-2.46l-5.09-4.69C663.49,406.13,661.58,399.71,664.42,396.52Z" transform="translate(-212.5 -257.72)"/>
      <path class="cls-2" d="M353.76,323.1c1.82-2.05,5.59-2.89,13.19.38,0,0,7.29-6.4,19.24,3,0,0,9.71-7.48,18,8.78,0,0,15.59,7.76,13.09,16.22,0,0,14.42,4.08,14.35,11.46s-8.52,9-14.51,5.41l-52.3-26.58a13.32,13.32,0,0,1-3.06-2.14l-4.44-4.1C353,331.49,351.28,325.89,353.76,323.1Z" transform="translate(-212.5 -257.72)"/>
      <path class="cls-3" d="M351.12,324.61c1.82-2.06,5.59-2.89,13.19.37,0,0,7.29-6.4,19.24,3,0,0,9.71-7.48,18,8.78,0,0,15.59,7.76,13.1,16.22,0,0,14.41,4.07,14.34,11.46s-8.52,9-14.51,5.41l-52.3-26.58a14,14,0,0,1-3.06-2.14l-4.44-4.1C350.31,333,348.64,327.39,351.12,324.61Z" transform="translate(-212.5 -257.72)"/>
      <path class="cls-2" d="M650.06,338c1.56-1.76,4.79-2.47,11.3.32,0,0,6.25-5.48,16.5,2.55,0,0,8.32-6.41,15.41,7.53,0,0,13.35,6.65,11.22,13.9,0,0,12.35,3.49,12.29,9.82s-7.3,7.75-12.43,4.64l-44.83-22.78a12.07,12.07,0,0,1-2.62-1.84l-3.81-3.51C649.36,345.15,647.94,340.35,650.06,338Z" transform="translate(-212.5 -257.72)"/>
      <path class="cls-3" d="M647.8,339.25c1.56-1.76,4.79-2.47,11.3.33,0,0,6.25-5.49,16.49,2.54,0,0,8.32-6.41,15.42,7.53,0,0,13.35,6.65,11.22,13.9,0,0,12.35,3.49,12.29,9.82s-7.3,7.75-12.43,4.64l-44.83-22.78a11.51,11.51,0,0,1-2.62-1.84l-3.81-3.51C647.1,346.44,645.68,341.64,647.8,339.25Z" transform="translate(-212.5 -257.72)"/>
    </g>
  </g>
</svg>
